<svg id="Layer_1" enable-background="new 0 0 296 106.347" height="106.347" viewBox="0 0 296 106.347" width="296" xmlns="http://www.w3.org/2000/svg" xmlns:xlink="http://www.w3.org/1999/xlink"><clipPath id="SVGID_1_"><rect id="SVGID_67_" height="106.347" width="296"/></clipPath><g><rect clip-path="url(#SVGID_1_)" fill="#b5c1c3" height="106.347" width="296"/><g clip-path="url(#SVGID_1_)"><g fill="#686a70" stroke="#686a70" stroke-width=".1729"><path d="m21.961-.446c0 .52.039 2.291.039 2.618 0 .443-.058.598-.597.598-.386 0-.463-.174-.463-.521 0-.809.077-1.906.116-3.177.076-2.6.153-5.7.153-6.528 0-.982-.019-1.926-.038-2.118-.02-.212-.097-.327-.25-.327-.154 0-.309.173-.501.347-.521.462-.982.751-1.31.924-.173.097-.886.462-1.021.077-.039-.097-.077-.25-.077-.327 0-.27.173-.327.462-.443.616-.25 1.31-.654 1.906-1.213.405-.366.521-.636.905-.636.174 0 .327.039.501.116.212.096.385.23.385.462 0 .096-.058.789-.077 1.482-.056 1.695-.133 6.085-.133 8.666z"/><path d="m28.992-8.322c.347-1.561 1.579-2.851 3.736-2.851 2.195 0 3.562 1.56 3.562 3.582 0 .559-.02 1.444-.02 3.331 0 1.29.02 3.004.02 3.216.02 2.157-1.656 3.813-3.697 3.813-2.234 0-3.62-1.521-3.62-3.621 0-.096-.02-2.907-.039-3.851-.018-1.385-.173-2.56.058-3.619zm3.524 10.167c2.195 0 2.889-1.599 2.889-3.331 0 0 .058-1.637.058-2.677 0-1.078-.038-3.023-.077-3.39-.115-1.328-.789-2.677-2.927-2.677-2.041 0-2.639 1.599-2.696 3.081-.02.559-.038 1.753-.038 2.735 0 1.155.058 2.715.077 3.157.057 1.504.75 3.102 2.714 3.102z"/><path d="m45.074-.446c0 .52.039 2.291.039 2.618 0 .443-.058.598-.597.598-.386 0-.463-.174-.463-.521 0-.809.077-1.906.116-3.177.076-2.6.153-5.7.153-6.528 0-.982-.019-1.926-.038-2.118-.02-.212-.097-.327-.25-.327-.154 0-.309.173-.501.347-.521.462-.982.751-1.31.924-.173.097-.886.462-1.021.077-.039-.097-.077-.25-.077-.327 0-.27.173-.327.462-.443.616-.25 1.31-.654 1.906-1.213.405-.366.521-.636.905-.636.174 0 .327.039.501.116.212.096.385.23.385.462 0 .096-.058.789-.077 1.482-.056 1.695-.133 6.085-.133 8.666z"/><path d="m55.649 2.712c-.867 0-1.464-.827-1.464-1.54 0-.751.771-1.425 1.521-1.425.442 0 .828.308 1.078.597s.327.501.327.905c.001.693-.788 1.463-1.462 1.463z"/><path d="m63.778.96c.038-.27.135-.771.25-1.098.462-1.387 1.137-2.445 3.717-4.024 1.213-.751 2.522-1.811 2.522-3.505 0-1.078-.751-2.619-2.715-2.619-2.677 0-2.773 1.791-2.773 2.696 0 .289-.02.771-.559.771-.424 0-.52-.193-.52-.539 0-1.349 1.001-3.813 3.909-3.813 2.079 0 3.466 1.579 3.466 3.467 0 2.388-1.849 3.581-3.543 4.736-.771.521-1.579 1.002-2.176 1.868-.463.809-.713 1.56-.713 2.253 0 .309.058.404.231.443.289.077 1.348.058 1.598.058 2.022 0 3.467-.192 3.891-.192.288 0 .539.096.539.52 0 .501-.404.578-.771.578-.886-.02-2.195-.039-3.312-.02-1.098 0-2.079.038-2.445.038-.289 0-.693-.115-.693-.731 0-.194 0-.386.097-.887z"/><path d="m78.666-10.941c2.079 0 2.677-.058 3.157-.058.328 0 .521.135.521.481 0 .442-.231.52-.521.52-.173 0-1.79-.096-3.042-.096-.751 0-1.425.019-2.061.076-.173.02-.231.116-.25.328-.039.577-.058 2.349-.058 2.772 0 .404-.02.79 0 1.136.019.424.019.521.173.521.058 0 .097-.02.25-.135.636-.521 1.349-.809 2.292-.809 1.579 0 3.293 1.059 3.293 3.64 0 1.771-.713 3.042-1.656 3.908-.982.907-2.233 1.427-4.698 1.427-.424 0-.713-.039-.713-.501 0-.443.231-.52.481-.52.404 0 .771.038 1.078.038 1.579 0 2.696-.481 3.505-1.348.597-.636 1.078-1.464 1.078-2.908 0-1.599-.616-2.85-2.542-2.85-1.174 0-1.732.539-2.253 1.155-.135.154-.212.25-.404.25-.096 0-.731-.135-.731-.5 0-.271.038-.848.038-.982 0-.289.02-1.329 0-2.388-.019-1.329-.096-1.965-.096-2.234 0-.212.019-.404.153-.635.116-.174.193-.309.521-.309.367.002 1.078.021 2.485.021z"/><path d="m41.82 18.794c.173-.135.347-.231.347-.442 0-.136-.039-.193-.212-.328-.731-.597-1.31-1.521-1.31-2.85 0-2.003 1.502-3.582 3.601-3.582 2.946 0 3.467 2.427 3.467 3.408 0 .963-.366 2.003-1.213 2.793-.231.23-.328.327-.328.481 0 .288.732.5 1.31 1.444.27.442.521.981.521 1.829 0 2.368-1.483 3.986-3.929 3.986-2.465 0-3.755-1.695-3.755-3.774-.001-.713.288-2.06 1.501-2.965zm-.559 3.043c0 1.425.809 2.83 2.831 2.83 2.021 0 2.965-1.425 2.965-2.965 0-1.387-.674-2.523-2.176-2.889-.192-.039-.404-.077-.654-.077-.251 0-.481.038-.655.077-1.251.308-2.311 1.193-2.311 3.024zm5.508-6.702c0-1.503-.675-2.696-2.6-2.696-1.945 0-2.619 1.502-2.619 2.792 0 1.021.52 2.292 1.944 2.657.289.077.521.097.732.097.289 0 .5-.058.751-.154 1.484-.577 1.792-2.176 1.792-2.696z"/><path d="m55.649 25.475c-.867 0-1.464-.827-1.464-1.54 0-.751.771-1.425 1.521-1.425.442 0 .828.308 1.078.597s.327.501.327.905c.001.694-.788 1.463-1.462 1.463z"/><path d="m70.633 21.162c.423-.019.712-.019.712.309 0 .52-.115.636-.365.636h-1.232c-.212 0-.328.038-.328.365 0 1.271.059 2.138.059 2.6 0 .386-.154.463-.481.463-.366 0-.501-.059-.501-.366 0-.366.096-1.752.096-2.734 0-.212-.076-.327-.462-.327h-1.983c-.616 0-1.482.019-1.944.019-.559 0-.675-.192-.675-.635 0-.386 0-.674-.019-.886-.02-.289-.039-.578-.039-.675 0-.308.077-.635.327-1.039.559-.944 2.562-5.431 3.005-6.625.173-.442.288-.558.481-.558.173 0 .635.153.635.423 0 .193-.153.463-.404.982-.539 1.117-2.272 4.737-2.715 5.7-.424.924-.424 1.463-.424 1.867 0 .347.038.443.135.521s.771.154 1.482.154c.578 0 1.406.019 2.195-.077.289-.039.386-.192.404-.481.02-.424.039-1.406.039-1.599 0-.481-.058-1.849-.058-2.58 0-.386.173-.521.5-.521.309 0 .54.039.54.366 0 .366-.212 3.408-.212 4.275 0 .404.019.462.462.462.173 0 .616-.039.77-.039z"/><path d="m75.335 23.723c.038-.27.135-.771.25-1.098.462-1.387 1.137-2.445 3.717-4.024 1.213-.751 2.522-1.811 2.522-3.505 0-1.078-.751-2.619-2.715-2.619-2.677 0-2.773 1.791-2.773 2.696 0 .289-.02.771-.559.771-.424 0-.52-.193-.52-.539 0-1.349 1.001-3.813 3.909-3.813 2.079 0 3.466 1.579 3.466 3.467 0 2.388-1.849 3.581-3.543 4.736-.771.521-1.579 1.002-2.176 1.868-.463.809-.713 1.56-.713 2.253 0 .309.058.404.231.443.289.077 1.348.058 1.598.058 2.022 0 3.467-.192 3.891-.192.288 0 .539.096.539.52 0 .501-.404.578-.771.578-.886-.02-2.195-.039-3.312-.02-1.098 0-2.079.038-2.445.038-.289 0-.693-.115-.693-.731 0-.193 0-.386.097-.887z"/><path d="m21.961 45.081c0 .52.039 2.291.039 2.618 0 .443-.058.598-.597.598-.386 0-.463-.174-.463-.521 0-.809.077-1.906.116-3.177.076-2.6.153-5.7.153-6.528 0-.982-.019-1.926-.038-2.118-.02-.212-.097-.327-.25-.327-.154 0-.309.173-.501.347-.521.462-.982.751-1.31.924-.173.097-.886.462-1.021.077-.039-.097-.077-.25-.077-.327 0-.27.173-.327.462-.443.616-.25 1.31-.654 1.906-1.213.405-.366.521-.636.905-.636.174 0 .327.039.501.116.212.096.385.23.385.462 0 .096-.058.789-.077 1.482-.056 1.694-.133 6.085-.133 8.666z"/><path d="m28.992 37.205c.347-1.561 1.579-2.851 3.736-2.851 2.195 0 3.562 1.56 3.562 3.582 0 .559-.02 1.444-.02 3.331 0 1.29.02 3.004.02 3.216.02 2.157-1.656 3.813-3.697 3.813-2.234 0-3.62-1.521-3.62-3.62 0-.097-.02-2.908-.039-3.852-.018-1.386-.173-2.561.058-3.619zm3.524 10.167c2.195 0 2.889-1.599 2.889-3.331 0 0 .058-1.637.058-2.677 0-1.078-.038-3.023-.077-3.39-.115-1.328-.789-2.677-2.927-2.677-2.041 0-2.639 1.599-2.696 3.081-.02.559-.038 1.753-.038 2.735 0 1.155.058 2.715.077 3.157.057 1.503.75 3.102 2.714 3.102z"/><path d="m47.154 36.434c.404.866.578 1.926.578 3.428 0 1.637-.521 4.409-2.003 6.277-.809 1.002-1.906 1.753-3.428 2.08-.231.058-.424.077-.539.077-.27 0-.327-.463-.327-.559 0-.212.096-.347.346-.386 1.483-.25 2.484-.77 3.447-2.002.886-1.117 1.482-3.332 1.482-3.986 0-.192-.096-.192-.135-.192-.058 0-.096.038-.173.135-.154.192-.481.442-.597.52-.81.539-1.483.674-2.215.674-1.887 0-3.466-1.386-3.466-3.832 0-2.233 1.482-4.313 3.832-4.313 1.118-.001 2.485.558 3.198 2.079zm-6.182 2.138c0 1.405.616 3.119 2.869 3.119 1.444 0 2.234-.963 2.523-1.56.25-.501.404-1.04.404-1.714 0-1.232-.636-3.196-2.908-3.196-.942 0-2.888.577-2.888 3.351z"/><path d="m55.649 48.238c-.867 0-1.464-.827-1.464-1.54 0-.751.771-1.425 1.521-1.425.442 0 .828.308 1.078.597s.327.501.327.905c.001.693-.788 1.463-1.462 1.463z"/><path d="m67.283 48.296c-1.945 0-3.717-1.714-3.717-4.834 0-2.368.385-4.66 2.176-6.855.597-.731 1.676-1.655 3.158-2.118.25-.077.424-.135.616-.135.27 0 .347.443.347.501 0 .25-.212.308-.828.539-1.194.443-2.138.963-3.119 2.407-.81 1.175-1.194 2.657-1.194 3.235 0 .173.077.25.212.25.347 0 .943-1.175 2.85-1.175 1.83 0 3.351 1.31 3.351 3.812 0 1.214-.288 1.965-.674 2.6-.81 1.33-2.004 1.773-3.178 1.773zm3.004-4.025c0-1.598-.578-3.292-2.831-3.292-1.502 0-2.272 1.021-2.58 1.675-.154.327-.366.925-.366 1.694 0 1.464.886 3.12 2.984 3.12.887 0 2.793-.616 2.793-3.197z"/><path d="m81.342 34.47c.635 0 .847.076 1.039.442.097.192.193.539.193.828 0 .597-.867 1.868-1.252 2.696-.481 1.039-1.137 2.542-1.541 3.909-.674 2.271-.77 3.485-.77 4.813 0 .327.038.674-.02.848-.058.173-.192.289-.443.289-.559 0-.597-.212-.597-.982 0-.578.173-2.311.771-4.275.424-1.348 1.021-2.927 1.887-4.736.559-1.175.867-2.272.867-2.446 0-.347-.135-.424-.328-.442-.25-.02-1.29-.039-2.002-.039-.905 0-1.868.02-2.677.077-.481.039-.636.135-.655.559-.019.309-.077 1.502-.077 1.752 0 .578-.212.655-.442.655-.309 0-.443-.097-.443-.366 0-.212.231-1.251.289-2.176.02-.385.02-.713.115-.905.174-.347.481-.424.925-.424.442 0 .924.02 1.387.02 1.772-.001 3.581-.097 3.774-.097z"/><path d="m17.551 92.012c.038-.27.135-.771.25-1.098.462-1.387 1.137-2.445 3.717-4.024 1.213-.751 2.522-1.811 2.522-3.505 0-1.078-.751-2.619-2.715-2.619-2.677 0-2.773 1.791-2.773 2.696 0 .289-.02.771-.559.771-.424 0-.52-.193-.52-.539 0-1.349 1.001-3.813 3.909-3.813 2.079 0 3.466 1.579 3.466 3.467 0 2.388-1.849 3.581-3.543 4.736-.771.521-1.579 1.002-2.176 1.868-.463.809-.713 1.56-.713 2.253 0 .309.058.404.231.443.289.077 1.348.058 1.598.058 2.022 0 3.467-.192 3.891-.192.288 0 .539.096.539.52 0 .501-.404.578-.771.578-.886-.02-2.195-.039-3.312-.02-1.098 0-2.079.038-2.445.038-.289 0-.693-.115-.693-.731.001-.193.001-.386.097-.887z"/><path d="m29.108 92.012c.038-.27.135-.771.25-1.098.462-1.387 1.137-2.445 3.717-4.024 1.213-.751 2.522-1.811 2.522-3.505 0-1.078-.751-2.619-2.715-2.619-2.677 0-2.773 1.791-2.773 2.696 0 .289-.02.771-.559.771-.424 0-.52-.193-.52-.539 0-1.349 1.001-3.813 3.909-3.813 2.079 0 3.466 1.579 3.466 3.467 0 2.388-1.849 3.581-3.543 4.736-.771.521-1.579 1.002-2.176 1.868-.463.809-.713 1.56-.713 2.253 0 .309.058.404.231.443.289.077 1.348.058 1.598.058 2.022 0 3.467-.192 3.891-.192.288 0 .539.096.539.52 0 .501-.404.578-.771.578-.886-.02-2.195-.039-3.312-.02-1.098 0-2.079.038-2.445.038-.289 0-.693-.115-.693-.731 0-.193 0-.386.097-.887z"/><path d="m40.877 87.372c-.251 0-.386-.077-.386-.481 0-.366.154-.481.501-.481h2.638c2.523 0 3.178-.077 3.505-.077.501 0 .713.038.713.481 0 .481-.174.539-.539.539-.809 0-2.504-.038-3.081-.038-1.195-.001-3.044.057-3.351.057z"/><path d="m59.077 89.451c.423-.019.712-.019.712.309 0 .52-.115.636-.365.636h-1.232c-.212 0-.328.038-.328.365 0 1.271.059 2.138.059 2.6 0 .386-.154.463-.481.463-.366 0-.501-.059-.501-.366 0-.366.096-1.752.096-2.734 0-.212-.076-.327-.462-.327h-1.985c-.616 0-1.482.019-1.944.019-.559 0-.675-.192-.675-.635 0-.386 0-.674-.019-.886-.02-.289-.039-.578-.039-.675 0-.308.077-.635.327-1.039.559-.944 2.562-5.431 3.005-6.625.173-.442.288-.558.481-.558.173 0 .635.153.635.423 0 .193-.153.463-.404.982-.539 1.117-2.272 4.737-2.715 5.7-.424.924-.424 1.463-.424 1.867 0 .347.038.443.135.521s.771.154 1.482.154c.578 0 1.406.019 2.195-.077.289-.039.386-.192.404-.481.02-.424.039-1.406.039-1.599 0-.481-.058-1.849-.058-2.58 0-.386.173-.521.5-.521.309 0 .54.039.54.366 0 .366-.212 3.408-.212 4.275 0 .404.019.462.462.462.174 0 .618-.039.772-.039z"/><path d="m67.109 80.112c2.08 0 2.677-.058 3.158-.058.327 0 .52.135.52.481 0 .442-.23.52-.52.52-.173 0-1.791-.096-3.043-.096-.751 0-1.425.019-2.06.076-.174.02-.231.116-.251.328-.038.577-.058 2.349-.058 2.772 0 .404-.02.79 0 1.136.02.424.02.521.173.521.059 0 .097-.02.251-.135.636-.521 1.348-.809 2.291-.809 1.579 0 3.293 1.059 3.293 3.64 0 1.771-.712 3.042-1.656 3.908-.981.905-2.233 1.426-4.698 1.426-.424 0-.713-.039-.713-.501 0-.443.231-.52.481-.52.405 0 .771.038 1.079.038 1.579 0 2.695-.481 3.505-1.348.597-.636 1.078-1.464 1.078-2.908 0-1.599-.616-2.85-2.542-2.85-1.175 0-1.733.539-2.253 1.155-.135.154-.212.25-.404.25-.097 0-.732-.135-.732-.5 0-.271.039-.848.039-.982 0-.289.02-1.329 0-2.388-.02-1.329-.097-1.965-.097-2.234 0-.212.02-.404.154-.635.115-.174.192-.309.52-.309.367.002 1.08.022 2.485.022z"/></g></g><g clip-path="url(#SVGID_1_)"><g><g><g><g><g fill="#b5c1c3"><g stroke="#698db7" stroke-width="2.8827"><path d="m119.654 79.095-5.676 1.104-.381-2.529 13.857-2.693.595 2.487-5.675 1.103 2.404 12.37-2.721.529z"/><path d="m136.317 73.254 2.721-.529 1.153 5.931 8.501-1.652-1.152-5.931 2.721-.528 2.892 14.878-2.721.528-1.252-6.439-8.501 1.652 1.252 6.439-2.721.529z"/><path d="m164.841 67.71 4.421-.859 8.779 13.733-2.849.554-2.223-3.494-7.588 1.475-.753 4.072-2.805.546zm1.013 8.845 5.717-1.111-3.62-5.693-.851.166z"/><path d="m183.82 64.02 3.103-.604 10.235 9.194.128-.025-2.095-10.776 2.656-.516 2.893 14.878-2.934.569-10.459-9.436-.148.028 2.148 11.052-2.636.513z"/><path d="m208.049 59.31 2.721-.528 1.178 6.058 2.912-.566 4.115-7.086 3.145-.612.005.021-4.861 8.356 8.128 6.405.004.021-3.316.645-6.833-5.311-2.827.55 1.244 6.397-2.721.528z"/><path d="m248.967 61.481-8.592-8.454 3.188-.62 6.166 6.19.213-.041 3.483-8.066 3.081-.599-4.828 11.018 1.004 5.165-2.72.529z"/><path d="m264.713 56.016c-.918-4.719 1.65-8.416 6.646-9.387 4.994-.971 8.734 1.479 9.656 6.219.917 4.718-1.63 8.411-6.624 9.382-4.996.971-8.758-1.475-9.678-6.214zm13.517-2.627c-.641-3.295-2.992-4.955-6.372-4.298-3.38.656-4.981 3.085-4.341 6.38.641 3.294 2.993 4.955 6.372 4.298 3.38-.657 4.981-3.086 4.341-6.38z"/><path d="m290.487 52.794-1.78-9.161 2.721-.529 1.756 9.033c.537 2.763 2.67 3.297 4.986 2.847 2.317-.451 4.1-1.724 3.574-4.423l-1.772-9.118 2.721-.528 1.765 9.075c.871 4.484-1.846 6.734-5.841 7.511-3.997.775-7.275-.309-8.13-4.707z"/></g><g><path d="m119.654 79.095-5.676 1.104-.381-2.529 13.857-2.693.595 2.487-5.675 1.103 2.404 12.37-2.721.529z"/><path d="m136.317 73.254 2.721-.529 1.153 5.931 8.501-1.652-1.152-5.931 2.721-.528 2.892 14.878-2.721.528-1.252-6.439-8.501 1.652 1.252 6.439-2.721.529z"/><path d="m164.841 67.71 4.421-.859 8.779 13.733-2.849.554-2.223-3.494-7.588 1.475-.753 4.072-2.805.546zm1.013 8.845 5.717-1.111-3.62-5.693-.851.166z"/><path d="m183.82 64.02 3.103-.604 10.235 9.194.128-.025-2.095-10.776 2.656-.516 2.893 14.878-2.934.569-10.459-9.436-.148.028 2.148 11.052-2.636.513z"/><path d="m208.049 59.31 2.721-.528 1.178 6.058 2.912-.566 4.115-7.086 3.145-.612.005.021-4.861 8.356 8.128 6.405.004.021-3.316.645-6.833-5.311-2.827.55 1.244 6.397-2.721.528z"/><path d="m248.967 61.481-8.592-8.454 3.188-.62 6.166 6.19.213-.041 3.483-8.066 3.081-.599-4.828 11.018 1.004 5.165-2.72.529z"/><path d="m264.713 56.016c-.918-4.719 1.65-8.416 6.646-9.387 4.994-.971 8.734 1.479 9.656 6.219.917 4.718-1.63 8.411-6.624 9.382-4.996.971-8.758-1.475-9.678-6.214zm13.517-2.627c-.641-3.295-2.992-4.955-6.372-4.298-3.38.656-4.981 3.085-4.341 6.38.641 3.294 2.993 4.955 6.372 4.298 3.38-.657 4.981-3.086 4.341-6.38z"/><path d="m290.487 52.794-1.78-9.161 2.721-.529 1.756 9.033c.537 2.763 2.67 3.297 4.986 2.847 2.317-.451 4.1-1.724 3.574-4.423l-1.772-9.118 2.721-.528 1.765 9.075c.871 4.484-1.846 6.734-5.841 7.511-3.997.775-7.275-.309-8.13-4.707z"/></g></g></g></g><g><g><g fill="#b5c1c3"><g stroke="#698db7" stroke-width="2.8504"><path d="m129.433 108.387c-.65-3.35 1.113-6.709 5.448-7.551 1.938-.377 3.624.035 4.698.568l.433 2.227-.017.004c-1.428-.623-2.895-1.186-4.782-.818-2.754.535-4.012 2.686-3.539 5.117.466 2.396 2.329 3.904 5.151 3.357 1.87-.365 3.111-1.328 4.171-2.506l.017-.004.434 2.229c-.772.838-2.266 1.869-4.374 2.279-4.438.861-6.991-1.57-7.64-4.902z"/><path d="m147.838 104.756c-.733-3.773 1.32-6.73 5.315-7.508 3.995-.777 6.987 1.182 7.724 4.973.733 3.775-1.303 6.729-5.298 7.506s-7.004-1.178-7.741-4.971zm10.812-2.102c-.512-2.635-2.394-3.963-5.097-3.438s-3.983 2.469-3.472 5.104c.513 2.635 2.394 3.963 5.097 3.438s3.985-2.467 3.472-5.104z"/><path d="m167.833 94.695 2.584-.503 5.647 6.542 2.7-8.165 2.635-.513 2.313 11.9-2.159.42-1.652-8.5-.118.023-2.958 8.566-.17.033-5.917-6.842-.119.023 1.652 8.5-2.125.414z"/><path d="m190.243 90.338 9.775-1.9.451 1.96-7.685 1.493.542 2.788 6.257-1.216.38 1.955-6.257 1.216.625 3.213 7.956-1.547.299 1.988-10.03 1.949z"/><path d="m221.647 84.234 3.536-.688 7.022 10.985-2.278.443-1.778-2.796-6.069 1.181-.602 3.257-2.244.436zm.811 7.077 4.573-.89-2.896-4.554-.68.133z"/><path d="m237.576 87.472c-.668-3.435 1.229-6.838 5.513-7.671 1.803-.35 3.595-.116 4.811.512l.43 2.211-.017.003c-1.457-.688-3.021-1.107-4.856-.75-2.84.552-4.139 2.675-3.64 5.242.463 2.38 2.319 3.854 5.107 3.312 2.312-.449 3.662-1.946 3.351-4.003l-4.557.886-.354-1.819 6.716-1.306c.062.234.127.47.209.896.825 4.338-1.84 6.69-5.087 7.321-4.098.796-6.962-1.417-7.626-4.834z"/><path d="m260.414 76.699 3.537-.688 7.021 10.985-2.277.442-1.778-2.795-6.069 1.18-.602 3.258-2.244.437zm.811 7.076 4.573-.889-2.896-4.554-.681.132z"/><path d="m276.312 73.608 2.176-.423 2.313 11.9-2.176.423z"/><path d="m287.382 71.457 2.482-.482 8.187 7.354.102-.02-1.676-8.619 2.126-.413 2.313 11.9-2.347.456-8.366-7.548-.118.023 1.719 8.84-2.108.409z"/></g><g><path d="m129.433 108.387c-.65-3.35 1.113-6.709 5.448-7.551 1.938-.377 3.624.035 4.698.568l.433 2.227-.017.004c-1.428-.623-2.895-1.186-4.782-.818-2.754.535-4.012 2.686-3.539 5.117.466 2.396 2.329 3.904 5.151 3.357 1.87-.365 3.111-1.328 4.171-2.506l.017-.004.434 2.229c-.772.838-2.266 1.869-4.374 2.279-4.438.861-6.991-1.57-7.64-4.902z"/><path d="m147.838 104.756c-.733-3.773 1.32-6.73 5.315-7.508 3.995-.777 6.987 1.182 7.724 4.973.733 3.775-1.303 6.729-5.298 7.506s-7.004-1.178-7.741-4.971zm10.812-2.102c-.512-2.635-2.394-3.963-5.097-3.438s-3.983 2.469-3.472 5.104c.513 2.635 2.394 3.963 5.097 3.438s3.985-2.467 3.472-5.104z"/><path d="m167.833 94.695 2.584-.503 5.647 6.542 2.7-8.165 2.635-.513 2.313 11.9-2.159.42-1.652-8.5-.118.023-2.958 8.566-.17.033-5.917-6.842-.119.023 1.652 8.5-2.125.414z"/><path d="m190.243 90.338 9.775-1.9.451 1.96-7.685 1.493.542 2.788 6.257-1.216.38 1.955-6.257 1.216.625 3.213 7.956-1.547.299 1.988-10.03 1.949z"/><path d="m221.647 84.234 3.536-.688 7.022 10.985-2.278.443-1.778-2.796-6.069 1.181-.602 3.257-2.244.436zm.811 7.077 4.573-.89-2.896-4.554-.68.133z"/><path d="m237.576 87.472c-.668-3.435 1.229-6.838 5.513-7.671 1.803-.35 3.595-.116 4.811.512l.43 2.211-.017.003c-1.457-.688-3.021-1.107-4.856-.75-2.84.552-4.139 2.675-3.64 5.242.463 2.38 2.319 3.854 5.107 3.312 2.312-.449 3.662-1.946 3.351-4.003l-4.557.886-.354-1.819 6.716-1.306c.062.234.127.47.209.896.825 4.338-1.84 6.69-5.087 7.321-4.098.796-6.962-1.417-7.626-4.834z"/><path d="m260.414 76.699 3.537-.688 7.021 10.985-2.277.442-1.778-2.795-6.069 1.18-.602 3.258-2.244.437zm.811 7.076 4.573-.889-2.896-4.554-.681.132z"/><path d="m276.312 73.608 2.176-.423 2.313 11.9-2.176.423z"/><path d="m287.382 71.457 2.482-.482 8.187 7.354.102-.02-1.676-8.619 2.126-.413 2.313 11.9-2.347.456-8.366-7.548-.118.023 1.719 8.84-2.108.409z"/></g></g></g></g></g></g></g><g clip-path="url(#SVGID_1_)"><g fill="#686a70" stroke="#686a70" stroke-width=".1729"><path d="m93.045 11.843c.347 0 .404.115.404.462 0 .25-.077.442-.289.442-.154 0-.327-.019-.771-.019-.385 0-.462.077-.462.442 0 2.734-.02 1.888-.02 9.417 0 1.29.039 2.195.039 2.388 0 .308-.174.385-.481.385-.27 0-.443-.038-.443-.404 0-1.367.097-3.178.097-5.469 0-3.178.02-5.931.02-6.085 0-.366-.039-.655-.366-.655h-.654c-.386 0-.443-.058-.443-.481 0-.347.115-.423.424-.423.135 0 .847.058 1.387.058.556 0 1.326-.058 1.558-.058zm3.176.635c.059.521-.019 2.465.481 10.61.058.81.097 1.849.097 1.945 0 .25-.097.347-.462.347-.386 0-.443-.097-.443-.809 0-.27-.02-2.522-.058-2.966-.02-.192-.097-.25-.654-.25-.559 0-.616.019-.655.288-.096.713-.173 2.946-.212 3.351-.02.271-.135.366-.442.366-.404 0-.481-.135-.481-.424 0-.442.674-6.2.904-10.321l.136-2.061c.038-.559.173-.809.924-.809.673.002.808.31.865.733zm-1.039.963c-.039.462-.521 6.432-.521 6.855 0 .231 0 .327.289.327.25 0 .481 0 .636-.019.212-.02.173-.212.173-.771 0-.424-.25-5.989-.289-6.394 0-.096-.038-.192-.115-.192-.097.002-.154.041-.173.194zm3.369-1.405c.077.308.347 4.024.539 5.411.02.115.059.135.174.135.097 0 .135-.058.154-.174.327-1.521.5-4.429.616-5.122.058-.347.077-.539.442-.539.309 0 .443.077.443.385 0 .231-.386 2.35-.424 2.562-.52 2.754-.578 3.447-.578 3.967 0 .982.328 3.293.404 3.678.212 1.175.481 2.272.481 2.754 0 .174-.076.347-.462.347-.289 0-.404-.077-.442-.539-.116-1.694-.174-2.233-.251-3.101-.077-.847-.212-1.502-.25-1.714s-.058-.23-.154-.23c-.077 0-.115.038-.135.096-.038.097-.173.713-.289 1.733-.25 2.272-.27 3.139-.308 3.447-.02.192-.115.327-.347.327-.25 0-.501-.058-.501-.327 0-.366.192-1.079.636-4.141.135-.925.231-1.811.231-2.099 0-.309-.039-1.214-.077-1.521-.174-1.444-.771-4.583-.771-5.276 0-.212.097-.347.481-.347.235-.001.35.095.388.288z"/><path d="m92.524 34.356c1.387 0 2.061.925 2.061 2.851 0 .462-.077.751-.52.751-.327 0-.404-.193-.404-.598v-.712c0-.693-.116-1.464-1.137-1.464-.866 0-1.193.655-1.31 1.502-.115.828-.096 1.868-.096 4.41 0 1.405.02 3.196.038 4.082.039 1.271.193 2.253 1.426 2.253.866 0 1.001-1.021 1.001-2.176 0-.27.096-.462.462-.462.404 0 .481.25.481.424 0 1.309-.347 3.081-2.041 3.081-1.021 0-1.849-.501-2.08-1.791-.096-.462-.135-1.329-.135-2.022 0-.616.02-1.193.02-1.502 0-1.983-.058-3.947-.058-5.084.001-2.522.81-3.543 2.292-3.543zm6.856.943c.097.905.347 3.697 1.06 10.553.077.81.23 1.637.23 1.945 0 .212-.076.347-.442.347-.424 0-.443-.192-.481-.943-.039-.713-.115-1.926-.25-2.812-.039-.212-.116-.251-.463-.27-.23-.02-1.232 0-1.367 0-.597 0-.616.038-.654.308l-.386 3.37c-.019.192-.115.347-.462.347s-.404-.174-.404-.404c0-.404.27-1.771.404-2.696.771-5.776.963-8.165 1.175-9.802.077-.597.154-.731 1.136-.731.384-.001.826.096.904.788zm-1.463 1.33c-.059.462-.771 5.931-.771 6.489 0 .231.058.27.308.27.251 0 1.579-.019 1.714-.019.154 0 .212-.135.212-.347 0-.867-.442-5.046-.597-6.182-.097-.731-.192-.866-.462-.866-.251 0-.347.135-.404.655z"/></g></g><g clip-path="url(#SVGID_1_)"><g fill="#686a70" stroke="#686a70" stroke-width=".1729"><path d="m157.023 2.77c-1.945 0-3.717-1.714-3.717-4.834 0-2.368.386-4.66 2.177-6.855.597-.731 1.675-1.655 3.157-2.118.251-.077.424-.135.616-.135.271 0 .347.443.347.501 0 .25-.212.308-.828.539-1.193.443-2.137.963-3.119 2.407-.809 1.175-1.194 2.657-1.194 3.235 0 .173.077.25.212.25.347 0 .944-1.175 2.851-1.175 1.829 0 3.351 1.31 3.351 3.812 0 1.214-.289 1.965-.674 2.601-.811 1.329-2.004 1.772-3.179 1.772zm3.004-4.025c0-1.598-.577-3.293-2.83-3.293-1.503 0-2.272 1.021-2.581 1.676-.154.327-.365.925-.365 1.694 0 1.464.886 3.12 2.984 3.12.886 0 2.792-.616 2.792-3.197z"/><path d="m165.075.96c.039-.27.135-.771.251-1.098.462-1.387 1.136-2.445 3.716-4.024 1.214-.751 2.522-1.811 2.522-3.505 0-1.078-.751-2.619-2.715-2.619-2.677 0-2.772 1.791-2.772 2.696 0 .289-.02.771-.559.771-.424 0-.521-.193-.521-.539 0-1.349 1.002-3.813 3.909-3.813 2.08 0 3.467 1.579 3.467 3.467 0 2.388-1.849 3.581-3.544 4.736-.77.521-1.579 1.002-2.176 1.868-.462.809-.712 1.56-.712 2.253 0 .309.058.404.23.443.289.077 1.349.058 1.599.058 2.021 0 3.466-.192 3.89-.192.289 0 .539.096.539.52 0 .501-.404.578-.771.578-.886-.02-2.194-.039-3.312-.02-1.098 0-2.08.038-2.445.038-.289 0-.693-.115-.693-.731.001-.194.001-.386.097-.887z"/><path d="m180.059 2.712c-.866 0-1.463-.827-1.463-1.54 0-.751.77-1.425 1.521-1.425.443 0 .828.308 1.079.597.25.289.327.501.327.905 0 .693-.79 1.463-1.464 1.463z"/><path d="m188.188.96c.039-.27.135-.771.251-1.098.462-1.387 1.136-2.445 3.716-4.024 1.214-.751 2.522-1.811 2.522-3.505 0-1.078-.751-2.619-2.715-2.619-2.677 0-2.772 1.791-2.772 2.696 0 .289-.02.771-.559.771-.424 0-.521-.193-.521-.539 0-1.349 1.002-3.813 3.909-3.813 2.08 0 3.467 1.579 3.467 3.467 0 2.388-1.849 3.581-3.544 4.736-.77.521-1.579 1.002-2.176 1.868-.462.809-.712 1.56-.712 2.253 0 .309.058.404.23.443.289.077 1.349.058 1.599.058 2.021 0 3.466-.192 3.89-.192.289 0 .539.096.539.52 0 .501-.404.578-.771.578-.886-.02-2.194-.039-3.312-.02-1.098 0-2.08.038-2.445.038-.289 0-.693-.115-.693-.731.001-.194.001-.386.097-.887z"/><path d="m204.154-.446c0 .52.039 2.291.039 2.618 0 .443-.058.598-.597.598-.386 0-.463-.174-.463-.521 0-.809.077-1.906.116-3.177.076-2.6.153-5.7.153-6.528 0-.982-.019-1.926-.038-2.118-.02-.212-.097-.327-.25-.327-.154 0-.309.173-.501.347-.521.462-.982.751-1.31.924-.173.097-.886.462-1.021.077-.039-.097-.077-.25-.077-.327 0-.27.173-.327.462-.443.616-.25 1.31-.654 1.906-1.213.405-.366.521-.636.905-.636.174 0 .327.039.501.116.212.096.385.23.385.462 0 .096-.058.789-.077 1.482-.056 1.695-.133 6.085-.133 8.666z"/><path d="m168.406 11.823c2.08 0 2.677-.058 3.158-.058.327 0 .52.135.52.481 0 .442-.23.52-.52.52-.173 0-1.791-.096-3.043-.096-.751 0-1.425.019-2.06.076-.174.02-.231.116-.251.328-.038.577-.058 2.349-.058 2.772 0 .404-.02.79 0 1.136.02.424.02.521.173.521.059 0 .097-.02.251-.135.636-.521 1.348-.809 2.291-.809 1.579 0 3.293 1.059 3.293 3.64 0 1.771-.712 3.042-1.656 3.908-.981.905-2.233 1.426-4.698 1.426-.424 0-.713-.039-.713-.501 0-.443.231-.52.481-.52.405 0 .771.038 1.079.038 1.579 0 2.695-.481 3.505-1.348.597-.636 1.078-1.464 1.078-2.908 0-1.599-.616-2.85-2.542-2.85-1.175 0-1.733.539-2.253 1.155-.135.154-.212.25-.404.25-.097 0-.732-.135-.732-.5 0-.271.039-.848.039-.982 0-.289.02-1.329 0-2.388-.02-1.329-.097-1.965-.097-2.234 0-.212.02-.404.154-.635.115-.174.192-.309.52-.309.367.002 1.08.022 2.485.022z"/><path d="m180.059 25.475c-.867 0-1.464-.827-1.464-1.54 0-.751.771-1.425 1.521-1.425.442 0 .828.308 1.078.597s.327.501.327.905c.001.694-.788 1.463-1.462 1.463z"/><path d="m192.597 22.318c0 .52.039 2.291.039 2.618 0 .443-.058.598-.597.598-.386 0-.463-.174-.463-.521 0-.809.077-1.906.116-3.177.076-2.6.153-5.7.153-6.528 0-.982-.019-1.926-.038-2.118-.02-.212-.097-.327-.25-.327-.154 0-.309.173-.501.347-.521.462-.982.751-1.31.924-.173.097-.886.462-1.021.077-.039-.097-.077-.25-.077-.327 0-.27.173-.327.462-.443.616-.25 1.31-.654 1.906-1.213.405-.366.521-.636.905-.636.174 0 .327.039.501.116.212.096.385.23.385.462 0 .096-.058.789-.077 1.482-.056 1.694-.133 6.085-.133 8.666z"/><path d="m205.753 11.708c.636 0 .848.076 1.04.442.096.192.192.539.192.828 0 .597-.866 1.868-1.252 2.696-.481 1.039-1.136 2.541-1.54 3.909-.674 2.271-.771 3.485-.771 4.813 0 .327.038.674-.02.848-.058.173-.192.289-.442.289-.559 0-.597-.212-.597-.982 0-.578.173-2.311.77-4.275.424-1.348 1.021-2.927 1.888-4.736.559-1.175.866-2.272.866-2.446 0-.347-.135-.423-.327-.442-.251-.02-1.29-.039-2.003-.039-.905 0-1.868.02-2.677.077-.481.039-.636.135-.654.559-.02.309-.077 1.502-.077 1.752 0 .578-.212.655-.443.655-.308 0-.442-.097-.442-.366 0-.212.23-1.251.289-2.176.019-.385.019-.713.115-.905.173-.347.481-.424.924-.424s.925.02 1.387.02c1.771-.002 3.581-.097 3.774-.097z"/><path d="m157.023 48.296c-1.945 0-3.717-1.714-3.717-4.834 0-2.368.386-4.66 2.177-6.855.597-.731 1.675-1.655 3.157-2.118.251-.077.424-.135.616-.135.271 0 .347.443.347.501 0 .25-.212.308-.828.539-1.193.443-2.137.963-3.119 2.407-.809 1.175-1.194 2.657-1.194 3.235 0 .173.077.25.212.25.347 0 .944-1.175 2.851-1.175 1.829 0 3.351 1.31 3.351 3.812 0 1.214-.289 1.965-.674 2.6-.811 1.33-2.004 1.773-3.179 1.773zm3.004-4.025c0-1.598-.577-3.292-2.83-3.292-1.503 0-2.272 1.021-2.581 1.675-.154.327-.365.925-.365 1.694 0 1.464.886 3.12 2.984 3.12.886 0 2.792-.616 2.792-3.197z"/><path d="m171.084 34.47c.635 0 .847.076 1.039.442.097.192.193.539.193.828 0 .597-.867 1.868-1.252 2.696-.481 1.039-1.137 2.542-1.541 3.909-.674 2.271-.77 3.485-.77 4.813 0 .327.038.674-.02.848-.058.173-.192.289-.443.289-.559 0-.597-.212-.597-.982 0-.578.173-2.311.771-4.275.424-1.348 1.021-2.927 1.887-4.736.559-1.175.867-2.272.867-2.446 0-.347-.135-.424-.328-.442-.25-.02-1.29-.039-2.002-.039-.905 0-1.868.02-2.677.077-.481.039-.636.135-.655.559-.019.309-.077 1.502-.077 1.752 0 .578-.212.655-.442.655-.309 0-.443-.097-.443-.366 0-.212.231-1.251.289-2.176.02-.385.02-.713.115-.905.174-.347.481-.424.925-.424.442 0 .924.02 1.387.02 1.771-.001 3.58-.097 3.774-.097z"/><path d="m180.059 48.238c-.866 0-1.463-.827-1.463-1.54 0-.751.77-1.425 1.521-1.425.443 0 .828.308 1.079.597.25.289.327.501.327.905 0 .693-.79 1.463-1.464 1.463z"/><path d="m190.288 35.471c-.982.058-1.599.135-2.003.135-.327 0-.386-.25-.386-.501 0-.481.309-.52.598-.52.096 0 1.04.02 2.619.02.77 0 2.176-.039 2.888-.039.636 0 .79.597.79.809 0 .251-.116.404-.386.675-.423.442-1.078 1.136-1.617 1.771-.539.616-.924 1.098-1.213 1.425-.097.115-.135.173-.135.23 0 .059.058.077.135.059.135-.02.365-.039.442-.039 1.502 0 3.273.713 3.273 3.562 0 2.099-1.405 3.582-2.483 4.275-1.137.731-2.157.963-3.929.963-.693 0-.943-.02-.943-.481 0-.424.115-.578.404-.578.173 0 .616.058 1.367.058 1.078 0 1.887-.23 2.754-.731.616-.347 1.868-1.367 1.868-3.62 0-1.194-.424-2.657-2.234-2.657-.943 0-1.463.558-1.791.558-.27 0-.52-.462-.52-.635 0-.154.135-.289.289-.424.674-.616 1.213-1.31 1.983-2.215.424-.5.981-1.271 1.251-1.694.097-.154.116-.25.116-.289 0-.096-.039-.173-.251-.173-.942-.001-2.117.017-2.886.056z"/><path d="m200.9 41.556c.173-.135.347-.231.347-.442 0-.135-.039-.193-.212-.328-.731-.597-1.31-1.521-1.31-2.85 0-2.003 1.502-3.582 3.601-3.582 2.946 0 3.467 2.427 3.467 3.408 0 .963-.366 2.003-1.213 2.793-.231.23-.328.327-.328.481 0 .288.732.5 1.31 1.444.27.442.521.981.521 1.829 0 2.368-1.483 3.986-3.929 3.986-2.465 0-3.755-1.695-3.755-3.774-.001-.712.288-2.059 1.501-2.965zm-.559 3.043c0 1.425.809 2.83 2.831 2.83 2.021 0 2.965-1.425 2.965-2.965 0-1.387-.674-2.523-2.176-2.889-.192-.039-.404-.077-.654-.077-.251 0-.481.038-.655.077-1.251.308-2.311 1.194-2.311 3.024zm5.508-6.702c0-1.502-.675-2.695-2.6-2.695-1.945 0-2.619 1.502-2.619 2.792 0 1.021.52 2.292 1.944 2.657.289.077.521.097.732.097.289 0 .5-.058.751-.154 1.484-.578 1.792-2.176 1.792-2.697z"/><path d="m141.962 92.012c.039-.27.135-.771.251-1.098.462-1.387 1.136-2.445 3.716-4.024 1.214-.751 2.522-1.811 2.522-3.505 0-1.078-.751-2.619-2.715-2.619-2.677 0-2.772 1.791-2.772 2.696 0 .289-.02.771-.559.771-.424 0-.521-.193-.521-.539 0-1.349 1.002-3.813 3.909-3.813 2.08 0 3.467 1.579 3.467 3.467 0 2.388-1.849 3.581-3.544 4.736-.77.521-1.579 1.002-2.176 1.868-.462.809-.712 1.56-.712 2.253 0 .309.058.404.23.443.289.077 1.349.058 1.599.058 2.021 0 3.466-.192 3.89-.192.289 0 .539.096.539.52 0 .501-.404.578-.771.578-.886-.02-2.194-.039-3.312-.02-1.098 0-2.08.038-2.445.038-.289 0-.693-.115-.693-.731.001-.193.001-.386.097-.887z"/><path d="m153.403 82.731c.347-1.561 1.579-2.851 3.735-2.851 2.195 0 3.562 1.56 3.562 3.582 0 .559-.019 1.444-.019 3.331 0 1.29.019 3.004.019 3.216.02 2.157-1.655 3.813-3.697 3.813-2.233 0-3.62-1.521-3.62-3.621 0-.096-.019-2.907-.038-3.851-.019-1.386-.173-2.56.058-3.619zm3.523 10.167c2.195 0 2.889-1.599 2.889-3.331 0 0 .058-1.637.058-2.677 0-1.078-.038-3.023-.076-3.39-.116-1.328-.79-2.677-2.928-2.677-2.041 0-2.638 1.599-2.695 3.081-.02.559-.039 1.753-.039 2.735 0 1.155.058 2.715.077 3.157.057 1.503.751 3.102 2.714 3.102z"/><path d="m165.287 87.372c-.25 0-.385-.077-.385-.481 0-.366.154-.481.5-.481h2.639c2.522 0 3.178-.077 3.505-.077.5 0 .712.038.712.481 0 .481-.173.539-.539.539-.809 0-2.503-.038-3.081-.038-1.194-.001-3.043.057-3.351.057z"/><path d="m181.042 90.607c0 .52.038 2.291.038 2.618 0 .443-.058.598-.597.598-.385 0-.462-.174-.462-.521 0-.809.077-1.906.115-3.177.077-2.6.154-5.7.154-6.528 0-.982-.02-1.926-.039-2.118-.019-.212-.096-.327-.25-.327s-.308.173-.501.347c-.52.462-.981.751-1.31.924-.173.097-.886.462-1.021.077-.038-.097-.076-.25-.076-.327 0-.27.173-.327.462-.443.616-.25 1.31-.654 1.906-1.213.404-.366.52-.636.905-.636.173 0 .327.039.5.116.212.096.386.23.386.462 0 .096-.058.789-.077 1.482-.056 1.694-.133 6.085-.133 8.666z"/><path d="m195.044 89.451c.423-.019.712-.019.712.309 0 .52-.115.636-.365.636h-1.232c-.212 0-.328.038-.328.365 0 1.271.059 2.138.059 2.6 0 .386-.154.463-.481.463-.366 0-.501-.059-.501-.366 0-.366.096-1.752.096-2.734 0-.212-.076-.327-.462-.327h-1.983c-.616 0-1.482.019-1.944.019-.559 0-.675-.192-.675-.635 0-.386 0-.674-.019-.886-.02-.289-.039-.578-.039-.675 0-.308.077-.635.327-1.039.559-.944 2.562-5.431 3.005-6.625.173-.442.288-.558.481-.558.173 0 .635.153.635.423 0 .193-.153.463-.404.982-.539 1.117-2.272 4.737-2.715 5.7-.424.924-.424 1.463-.424 1.867 0 .347.038.443.135.521s.771.154 1.482.154c.578 0 1.406.019 2.195-.077.289-.039.386-.192.404-.481.02-.424.039-1.406.039-1.599 0-.481-.058-1.849-.058-2.58 0-.386.173-.521.5-.521.309 0 .54.039.54.366 0 .366-.212 3.408-.212 4.275 0 .404.019.462.462.462.172 0 .615-.039.77-.039z"/></g></g><g clip-path="url(#SVGID_1_)"><g fill="#686a70" stroke="#686a70" stroke-width=".1729"><path d="m217.457 11.843c.347 0 .404.115.404.462 0 .25-.077.442-.289.442-.154 0-.327-.019-.771-.019-.385 0-.462.077-.462.442 0 2.734-.02 1.888-.02 9.417 0 1.29.039 2.195.039 2.388 0 .308-.174.385-.481.385-.27 0-.443-.038-.443-.404 0-1.367.097-3.178.097-5.469 0-3.178.02-5.931.02-6.085 0-.366-.039-.655-.366-.655h-.654c-.386 0-.443-.058-.443-.481 0-.347.115-.423.424-.423.135 0 .847.058 1.387.058.556 0 1.326-.058 1.558-.058zm3.176.635c.059.521-.019 2.465.481 10.61.058.81.097 1.849.097 1.945 0 .25-.097.347-.462.347-.386 0-.443-.097-.443-.809 0-.27-.02-2.522-.058-2.966-.02-.192-.097-.25-.654-.25-.559 0-.616.019-.655.288-.096.713-.173 2.946-.212 3.351-.02.271-.135.366-.442.366-.404 0-.481-.135-.481-.424 0-.442.674-6.2.904-10.321l.136-2.061c.038-.559.173-.809.924-.809.673.002.808.31.865.733zm-1.039.963c-.039.462-.521 6.432-.521 6.855 0 .231 0 .327.289.327.25 0 .481 0 .636-.019.212-.02.173-.212.173-.771 0-.424-.25-5.989-.289-6.394 0-.096-.038-.192-.115-.192-.096.002-.154.041-.173.194zm3.37-1.405c.077.308.347 4.024.539 5.411.02.115.059.135.174.135.097 0 .135-.058.154-.174.327-1.521.5-4.429.616-5.122.058-.347.077-.539.442-.539.309 0 .443.077.443.385 0 .231-.386 2.35-.424 2.562-.52 2.754-.578 3.447-.578 3.967 0 .982.328 3.293.404 3.678.212 1.175.481 2.272.481 2.754 0 .174-.076.347-.462.347-.289 0-.404-.077-.442-.539-.116-1.694-.174-2.233-.251-3.101-.077-.847-.212-1.502-.25-1.714s-.058-.23-.154-.23c-.077 0-.115.038-.135.096-.038.097-.173.713-.289 1.733-.25 2.272-.27 3.139-.308 3.447-.02.192-.115.327-.347.327-.25 0-.501-.058-.501-.327 0-.366.192-1.079.636-4.141.135-.925.231-1.811.231-2.099 0-.309-.039-1.214-.077-1.521-.174-1.444-.771-4.583-.771-5.276 0-.212.097-.347.481-.347.234-.001.349.095.388.288z"/><path d="m216.936 34.356c1.387 0 2.061.925 2.061 2.851 0 .462-.077.751-.52.751-.327 0-.404-.193-.404-.598v-.712c0-.693-.116-1.464-1.137-1.464-.866 0-1.193.655-1.31 1.502-.115.828-.096 1.868-.096 4.41 0 1.405.02 3.196.038 4.082.039 1.271.193 2.253 1.426 2.253.866 0 1.001-1.021 1.001-2.176 0-.27.096-.462.462-.462.404 0 .481.25.481.424 0 1.309-.347 3.081-2.041 3.081-1.021 0-1.849-.501-2.08-1.791-.096-.462-.135-1.329-.135-2.022 0-.616.02-1.193.02-1.502 0-1.983-.058-3.947-.058-5.084.001-2.522.81-3.543 2.292-3.543zm6.856.943c.097.905.347 3.697 1.06 10.553.077.81.23 1.637.23 1.945 0 .212-.076.347-.442.347-.424 0-.443-.192-.481-.943-.039-.713-.115-1.926-.25-2.812-.039-.212-.116-.251-.463-.27-.23-.02-1.232 0-1.367 0-.597 0-.616.038-.654.308l-.386 3.37c-.019.192-.115.347-.462.347s-.404-.174-.404-.404c0-.404.27-1.771.404-2.696.771-5.776.963-8.165 1.175-9.802.077-.597.154-.731 1.136-.731.384-.001.827.096.904.788zm-1.463 1.33c-.059.462-.771 5.931-.771 6.489 0 .231.058.27.308.27.251 0 1.579-.019 1.714-.019.154 0 .212-.135.212-.347 0-.867-.442-5.046-.597-6.182-.097-.731-.192-.866-.462-.866-.251 0-.347.135-.404.655z"/></g></g><g clip-path="url(#SVGID_1_)"><g fill="#686a70" stroke="#686a70" stroke-width=".1729"><path d="m113.878 70.698c-.077.289-.27.366-.443.366-.308 0-.539-.077-.404-.675.116-.52.655-2.58.79-3.523.02-.135-.097-.174-.251-.174h-1.001c-.52 0-1.175 0-1.868.02-.096 0-.192.058-.212.174l-.731 3.832c-.038.25-.212.347-.385.347-.192 0-.521-.077-.521-.347 0-.058.039-.231.077-.404l.732-3.332c.038-.192.019-.25-.135-.25-.309 0-1.579.02-1.714.02-.289 0-.54-.116-.54-.424 0-.327.154-.443.443-.443.385 0 1.098.02 2.021.039.097 0 .174-.02.212-.174.174-.751.539-2.542.675-3.273.019-.115-.02-.192-.136-.192-.904 0-1.752.038-1.887.038-.366 0-.481-.077-.481-.404s.135-.442.424-.442c.385 0 1.213.038 2.156.038.097 0 .135-.058.154-.173l.674-3.736c.058-.347.135-.481.386-.481.347 0 .52.135.52.404 0 .116-.058.386-.077.481-.077.347-.365 1.561-.751 3.37-.038.115 0 .154.077.154.27.02.731.02.925.02 1.463 0 1.964-.02 2.194-.039.116-.02.136-.096.174-.212l.674-3.735c.058-.347.289-.443.521-.443.346 0 .423.174.423.309 0 .154-.115.616-.173.828-.097.347-.366 1.463-.693 3.081-.02.115.02.153.115.153.347-.019 1.579-.058 1.753-.058.365 0 .577.02.577.366 0 .404-.27.501-.577.501-.289 0-1.06-.02-1.926-.039-.135 0-.154.058-.192.212-.154.636-.539 2.639-.636 3.255-.02.135.038.173.173.173.905-.02 1.599-.038 1.733-.038.366 0 .578.038.578.481 0 .346-.174.404-.481.404-.386 0-1.349-.02-2.022-.039-.115 0-.192.058-.212.192-.116.576-.655 3.483-.732 3.792zm.866-8.242c.02-.135 0-.173-.096-.192-.135-.02-1.079-.02-1.502-.02-.154 0-1.021 0-1.599.02-.115 0-.173.039-.192.154l-.655 3.389c-.019.077.02.135.135.135h1.291c.577 0 1.155 0 1.732-.019.116 0 .174-.02.212-.174.174-.77.424-2.022.674-3.293z"/><path d="m120.677 59.972c.347-1.561 1.579-2.851 3.736-2.851 2.195 0 3.562 1.56 3.562 3.582 0 .559-.02 1.444-.02 3.331 0 1.29.02 3.004.02 3.216.02 2.157-1.656 3.813-3.697 3.813-2.234 0-3.62-1.521-3.62-3.62 0-.097-.02-2.908-.039-3.852-.018-1.385-.172-2.56.058-3.619zm3.525 10.167c2.195 0 2.889-1.599 2.889-3.331 0 0 .058-1.637.058-2.677 0-1.078-.038-3.023-.077-3.39-.115-1.328-.789-2.677-2.927-2.677-2.041 0-2.639 1.599-2.696 3.081-.02.559-.038 1.753-.038 2.735 0 1.155.058 2.715.077 3.157.057 1.504.75 3.102 2.714 3.102z"/><path d="m135.855 71.064c-1.945 0-3.717-1.714-3.717-4.834 0-2.368.385-4.66 2.176-6.855.597-.731 1.676-1.655 3.158-2.118.25-.077.424-.135.616-.135.27 0 .347.443.347.501 0 .25-.212.308-.828.539-1.194.443-2.138.963-3.119 2.407-.81 1.175-1.194 2.657-1.194 3.235 0 .173.077.25.212.25.347 0 .943-1.175 2.85-1.175 1.83 0 3.351 1.31 3.351 3.812 0 1.214-.288 1.965-.674 2.6-.81 1.33-2.004 1.773-3.178 1.773zm3.004-4.025c0-1.598-.578-3.292-2.831-3.292-1.502 0-2.272 1.021-2.58 1.675-.154.327-.366.925-.366 1.694 0 1.464.886 3.12 2.984 3.12.887 0 2.793-.616 2.793-3.197z"/><path d="m146.006 58.239c-.982.058-1.599.135-2.003.135-.327 0-.385-.25-.385-.501 0-.481.308-.52.597-.52.097 0 1.04.02 2.619.02.771 0 2.176-.039 2.889-.039.636 0 .789.597.789.809 0 .251-.115.404-.385.675-.424.442-1.078 1.136-1.617 1.771-.54.616-.925 1.098-1.214 1.425-.096.115-.135.173-.135.23 0 .059.058.077.135.059.135-.02.366-.039.443-.039 1.502 0 3.273.713 3.273 3.562 0 2.099-1.405 3.582-2.484 4.275-1.136.731-2.156.963-3.928.963-.693 0-.944-.02-.944-.481 0-.424.116-.578.405-.578.173 0 .616.058 1.367.058 1.078 0 1.887-.23 2.753-.731.616-.347 1.868-1.367 1.868-3.62 0-1.194-.424-2.657-2.233-2.657-.944 0-1.464.558-1.791.558-.27 0-.521-.462-.521-.635 0-.154.135-.289.289-.424.674-.616 1.213-1.31 1.983-2.215.424-.5.982-1.271 1.252-1.694.097-.154.115-.25.115-.289 0-.096-.038-.173-.25-.173-.942-.002-2.117.017-2.887.056z"/><path d="m162.319 66.692c.423-.019.712-.019.712.309 0 .52-.115.636-.365.636h-1.232c-.212 0-.328.038-.328.365 0 1.271.059 2.138.059 2.6 0 .386-.154.463-.481.463-.366 0-.501-.059-.501-.366 0-.366.096-1.752.096-2.734 0-.212-.076-.327-.462-.327h-1.983c-.616 0-1.482.019-1.944.019-.559 0-.675-.192-.675-.635 0-.386 0-.674-.019-.886-.02-.289-.039-.578-.039-.675 0-.308.077-.635.327-1.039.559-.944 2.562-5.431 3.005-6.625.173-.442.288-.558.481-.558.173 0 .635.153.635.423 0 .193-.153.463-.404.982-.539 1.117-2.272 4.737-2.715 5.7-.424.924-.424 1.463-.424 1.868 0 .346.038.442.135.52s.771.154 1.482.154c.578 0 1.406.019 2.195-.077.289-.039.386-.192.404-.481.02-.424.039-1.406.039-1.599 0-.481-.058-1.849-.058-2.58 0-.386.173-.521.5-.521.309 0 .54.039.54.366 0 .366-.212 3.408-.212 4.275 0 .404.019.462.462.462.172 0 .616-.039.77-.039z"/></g></g><g clip-path="url(#SVGID_1_)"><g fill="#686a70" stroke="#686a70" stroke-width=".1729"><path d="m270.782-.446c0 .52.038 2.291.038 2.618 0 .443-.058.598-.597.598-.385 0-.462-.174-.462-.521 0-.809.077-1.906.115-3.177.077-2.6.154-5.7.154-6.528 0-.982-.02-1.926-.039-2.118-.019-.212-.096-.327-.25-.327s-.308.173-.501.347c-.52.462-.981.751-1.31.924-.173.097-.886.462-1.021.077-.038-.097-.076-.25-.076-.327 0-.27.173-.327.462-.443.616-.25 1.31-.654 1.906-1.213.404-.366.52-.636.905-.636.173 0 .327.039.5.116.212.096.386.23.386.462 0 .096-.058.789-.077 1.482-.056 1.695-.133 6.085-.133 8.666z"/><path d="m277.928.96c.039-.27.135-.771.251-1.098.462-1.387 1.136-2.445 3.716-4.024 1.214-.751 2.522-1.811 2.522-3.505 0-1.078-.751-2.619-2.715-2.619-2.677 0-2.772 1.791-2.772 2.696 0 .289-.02.771-.559.771-.424 0-.521-.193-.521-.539 0-1.349 1.002-3.813 3.909-3.813 2.08 0 3.467 1.579 3.467 3.467 0 2.388-1.849 3.581-3.544 4.736-.77.521-1.579 1.002-2.176 1.868-.462.809-.712 1.56-.712 2.253 0 .309.058.404.23.443.289.077 1.349.058 1.599.058 2.021 0 3.466-.192 3.89-.192.289 0 .539.096.539.52 0 .501-.404.578-.771.578-.886-.02-2.194-.039-3.312-.02-1.098 0-2.08.038-2.445.038-.289 0-.693-.115-.693-.731.002-.194.002-.386.097-.887z"/><path d="m295.494-11.056c.635 0 .847.076 1.039.442.097.192.193.539.193.828 0 .597-.867 1.868-1.252 2.696-.481 1.039-1.137 2.541-1.541 3.909-.674 2.271-.77 3.485-.77 4.813 0 .327.038.674-.02.848-.058.173-.192.289-.443.289-.559 0-.597-.212-.597-.982 0-.578.173-2.311.771-4.275.424-1.348 1.021-2.927 1.887-4.736.559-1.175.867-2.272.867-2.446 0-.347-.135-.423-.328-.442-.25-.02-1.29-.039-2.002-.039-.905 0-1.868.02-2.677.077-.481.039-.636.135-.655.559-.019.309-.077 1.502-.077 1.752 0 .578-.212.655-.442.655-.309 0-.443-.097-.443-.366 0-.212.231-1.251.289-2.176.02-.385.02-.713.115-.905.174-.347.481-.424.925-.424.442 0 .924.02 1.387.02 1.771-.001 3.58-.097 3.774-.097z"/><path d="m282.339 22.318c0 .52.038 2.291.038 2.618 0 .443-.058.598-.597.598-.385 0-.462-.174-.462-.521 0-.809.077-1.906.115-3.177.077-2.6.154-5.7.154-6.528 0-.982-.02-1.926-.039-2.118-.019-.212-.096-.327-.25-.327s-.308.173-.501.347c-.52.462-.981.751-1.31.924-.173.097-.886.462-1.021.077-.038-.097-.076-.25-.076-.327 0-.27.173-.327.462-.443.616-.25 1.31-.654 1.906-1.213.404-.366.52-.636.905-.636.173 0 .327.039.5.116.212.096.386.23.386.462 0 .096-.058.789-.077 1.482-.056 1.694-.133 6.085-.133 8.666z"/><path d="m289.37 14.442c.347-1.561 1.579-2.851 3.735-2.851 2.195 0 3.562 1.56 3.562 3.582 0 .559-.019 1.444-.019 3.331 0 1.29.019 3.004.019 3.216.02 2.157-1.655 3.813-3.697 3.813-2.233 0-3.62-1.521-3.62-3.621 0-.096-.019-2.907-.038-3.851-.019-1.386-.174-2.56.058-3.619zm3.523 10.167c2.195 0 2.889-1.599 2.889-3.331 0 0 .058-1.637.058-2.677 0-1.078-.038-3.023-.076-3.39-.116-1.328-.79-2.677-2.928-2.677-2.041 0-2.638 1.599-2.695 3.081-.02.559-.039 1.753-.039 2.735 0 1.155.058 2.715.077 3.157.057 1.503.75 3.102 2.714 3.102z"/><path d="m270.782 45.081c0 .52.038 2.291.038 2.618 0 .443-.058.598-.597.598-.385 0-.462-.174-.462-.521 0-.809.077-1.906.115-3.177.077-2.6.154-5.7.154-6.528 0-.982-.02-1.926-.039-2.118-.019-.212-.096-.327-.25-.327s-.308.173-.501.347c-.52.462-.981.751-1.31.924-.173.097-.886.462-1.021.077-.038-.097-.076-.25-.076-.327 0-.27.173-.327.462-.443.616-.25 1.31-.654 1.906-1.213.404-.366.52-.636.905-.636.173 0 .327.039.5.116.212.096.386.23.386.462 0 .096-.058.789-.077 1.482-.056 1.694-.133 6.085-.133 8.666z"/><path d="m280.028 35.471c-.982.058-1.599.135-2.003.135-.327 0-.386-.25-.386-.501 0-.481.309-.52.598-.52.096 0 1.04.02 2.619.02.77 0 2.176-.039 2.888-.039.636 0 .79.597.79.809 0 .251-.116.404-.386.675-.423.442-1.078 1.136-1.617 1.771-.539.616-.924 1.098-1.213 1.425-.097.115-.135.173-.135.23 0 .059.058.077.135.059.135-.02.365-.039.442-.039 1.502 0 3.273.713 3.273 3.562 0 2.099-1.405 3.582-2.483 4.275-1.137.731-2.157.963-3.929.963-.693 0-.943-.02-.943-.481 0-.424.115-.578.404-.578.173 0 .616.058 1.367.058 1.078 0 1.887-.23 2.754-.731.616-.347 1.868-1.367 1.868-3.62 0-1.194-.424-2.657-2.234-2.657-.943 0-1.463.558-1.791.558-.27 0-.52-.462-.52-.635 0-.154.135-.289.289-.424.674-.616 1.213-1.31 1.983-2.215.424-.5.981-1.271 1.251-1.694.097-.154.116-.25.116-.289 0-.096-.039-.173-.251-.173-.942-.001-2.116.017-2.886.056z"/><path d="m295.494 34.47c.635 0 .847.076 1.039.442.097.192.193.539.193.828 0 .597-.867 1.868-1.252 2.696-.481 1.039-1.137 2.542-1.541 3.909-.674 2.271-.77 3.485-.77 4.813 0 .327.038.674-.02.848-.058.173-.192.289-.443.289-.559 0-.597-.212-.597-.982 0-.578.173-2.311.771-4.275.424-1.348 1.021-2.927 1.887-4.736.559-1.175.867-2.272.867-2.446 0-.347-.135-.424-.328-.442-.25-.02-1.29-.039-2.002-.039-.905 0-1.868.02-2.677.077-.481.039-.636.135-.655.559-.019.309-.077 1.502-.077 1.752 0 .578-.212.655-.442.655-.309 0-.443-.097-.443-.366 0-.212.231-1.251.289-2.176.02-.385.02-.713.115-.905.174-.347.481-.424.925-.424.442 0 .924.02 1.387.02 1.771-.001 3.58-.097 3.774-.097z"/><path d="m266.372 92.012c.039-.27.135-.771.251-1.098.462-1.387 1.136-2.445 3.716-4.024 1.214-.751 2.522-1.811 2.522-3.505 0-1.078-.751-2.619-2.715-2.619-2.677 0-2.772 1.791-2.772 2.696 0 .289-.02.771-.559.771-.424 0-.521-.193-.521-.539 0-1.349 1.002-3.813 3.909-3.813 2.08 0 3.467 1.579 3.467 3.467 0 2.388-1.849 3.581-3.544 4.736-.77.521-1.579 1.002-2.176 1.868-.462.809-.712 1.56-.712 2.253 0 .309.058.404.23.443.289.077 1.349.058 1.599.058 2.021 0 3.466-.192 3.89-.192.289 0 .539.096.539.52 0 .501-.404.578-.771.578-.886-.02-2.194-.039-3.312-.02-1.098 0-2.08.038-2.445.038-.289 0-.693-.115-.693-.731.001-.193.001-.386.097-.887z"/><path d="m282.339 90.607c0 .52.038 2.291.038 2.618 0 .443-.058.598-.597.598-.385 0-.462-.174-.462-.521 0-.809.077-1.906.115-3.177.077-2.6.154-5.7.154-6.528 0-.982-.02-1.926-.039-2.118-.019-.212-.096-.327-.25-.327s-.308.173-.501.347c-.52.462-.981.751-1.31.924-.173.097-.886.462-1.021.077-.038-.097-.076-.25-.076-.327 0-.27.173-.327.462-.443.616-.25 1.31-.654 1.906-1.213.404-.366.52-.636.905-.636.173 0 .327.039.5.116.212.096.386.23.386.462 0 .096-.058.789-.077 1.482-.056 1.694-.133 6.085-.133 8.666z"/><path d="m289.697 87.372c-.25 0-.385-.077-.385-.481 0-.366.154-.481.5-.481h2.639c2.522 0 3.178-.077 3.505-.077.5 0 .712.038.712.481 0 .481-.173.539-.539.539-.809 0-2.503-.038-3.081-.038-1.194-.001-3.042.057-3.351.057z"/></g></g><g clip-path="url(#SVGID_1_)"><g fill="#686a70" stroke="#686a70" stroke-width=".1729"><path d="m238.288 70.698c-.077.289-.27.366-.443.366-.308 0-.539-.077-.404-.675.116-.52.655-2.58.79-3.523.02-.135-.097-.174-.251-.174h-1.001c-.52 0-1.175 0-1.868.02-.096 0-.192.058-.212.174l-.731 3.832c-.038.25-.212.347-.385.347-.192 0-.521-.077-.521-.347 0-.058.039-.231.077-.404l.732-3.332c.038-.192.019-.25-.135-.25-.309 0-1.579.02-1.714.02-.289 0-.54-.116-.54-.424 0-.327.154-.443.443-.443.385 0 1.098.02 2.021.039.097 0 .174-.02.212-.174.174-.751.539-2.542.675-3.273.019-.115-.02-.192-.136-.192-.904 0-1.752.038-1.887.038-.366 0-.481-.077-.481-.404s.135-.442.424-.442c.385 0 1.213.038 2.156.038.097 0 .135-.058.154-.173l.674-3.736c.058-.347.135-.481.386-.481.347 0 .52.135.52.404 0 .116-.058.386-.077.481-.077.347-.365 1.561-.751 3.37-.038.115 0 .154.077.154.27.02.731.02.925.02 1.463 0 1.964-.02 2.194-.039.116-.02.136-.096.174-.212l.674-3.735c.058-.347.289-.443.521-.443.346 0 .423.174.423.309 0 .154-.115.616-.173.828-.097.347-.366 1.463-.693 3.081-.02.115.02.153.115.153.347-.019 1.579-.058 1.753-.058.365 0 .577.02.577.366 0 .404-.27.501-.577.501-.289 0-1.06-.02-1.926-.039-.135 0-.154.058-.192.212-.154.636-.539 2.639-.636 3.255-.02.135.038.173.173.173.905-.02 1.599-.038 1.733-.038.366 0 .578.038.578.481 0 .346-.174.404-.481.404-.386 0-1.349-.02-2.022-.039-.115 0-.192.058-.212.192-.116.576-.655 3.483-.732 3.792zm.866-8.242c.02-.135 0-.173-.096-.192-.135-.02-1.079-.02-1.502-.02-.154 0-1.021 0-1.599.02-.115 0-.173.039-.192.154l-.655 3.389c-.019.077.02.135.135.135h1.291c.577 0 1.155 0 1.732-.019.116 0 .174-.02.212-.174.174-.77.424-2.022.674-3.293z"/><path d="m245.088 59.972c.347-1.561 1.579-2.851 3.736-2.851 2.195 0 3.562 1.56 3.562 3.582 0 .559-.02 1.444-.02 3.331 0 1.29.02 3.004.02 3.216.02 2.157-1.656 3.813-3.697 3.813-2.234 0-3.62-1.521-3.62-3.62 0-.097-.02-2.908-.039-3.852-.019-1.385-.173-2.56.058-3.619zm3.524 10.167c2.195 0 2.889-1.599 2.889-3.331 0 0 .058-1.637.058-2.677 0-1.078-.038-3.023-.077-3.39-.115-1.328-.789-2.677-2.927-2.677-2.041 0-2.639 1.599-2.696 3.081-.02.559-.038 1.753-.038 2.735 0 1.155.058 2.715.077 3.157.057 1.504.75 3.102 2.714 3.102z"/><path d="m260.265 71.064c-1.945 0-3.717-1.714-3.717-4.834 0-2.368.385-4.66 2.176-6.855.597-.731 1.676-1.655 3.158-2.118.25-.077.424-.135.616-.135.27 0 .347.443.347.501 0 .25-.212.308-.828.539-1.194.443-2.138.963-3.119 2.407-.81 1.175-1.194 2.657-1.194 3.235 0 .173.077.25.212.25.347 0 .943-1.175 2.85-1.175 1.83 0 3.351 1.31 3.351 3.812 0 1.214-.288 1.965-.674 2.6-.81 1.33-2.004 1.773-3.178 1.773zm3.004-4.025c0-1.598-.578-3.292-2.831-3.292-1.502 0-2.272 1.021-2.58 1.675-.154.327-.366.925-.366 1.694 0 1.464.886 3.12 2.984 3.12.887 0 2.793-.616 2.793-3.197z"/><path d="m268.317 69.254c.038-.27.135-.771.25-1.098.462-1.387 1.137-2.445 3.717-4.024 1.213-.751 2.522-1.811 2.522-3.505 0-1.078-.751-2.619-2.715-2.619-2.677 0-2.773 1.791-2.773 2.696 0 .289-.02.771-.559.771-.424 0-.52-.192-.52-.539 0-1.349 1.001-3.813 3.909-3.813 2.079 0 3.466 1.579 3.466 3.467 0 2.388-1.849 3.581-3.543 4.736-.771.521-1.579 1.002-2.176 1.868-.463.809-.713 1.56-.713 2.253 0 .309.058.404.231.443.289.077 1.348.058 1.598.058 2.022 0 3.467-.192 3.891-.192.288 0 .539.096.539.52 0 .501-.404.578-.771.578-.886-.02-2.195-.039-3.312-.02-1.098 0-2.079.038-2.445.038-.289 0-.693-.115-.693-.731 0-.194 0-.387.097-.887z"/><path d="m281.029 64.324c.173-.135.347-.231.347-.442 0-.135-.039-.193-.212-.328-.731-.597-1.31-1.521-1.31-2.85 0-2.003 1.502-3.582 3.601-3.582 2.946 0 3.467 2.427 3.467 3.408 0 .963-.366 2.003-1.213 2.793-.231.23-.328.327-.328.481 0 .288.732.5 1.31 1.444.27.442.521.981.521 1.829 0 2.368-1.483 3.986-3.929 3.986-2.465 0-3.755-1.695-3.755-3.774-.001-.712.288-2.06 1.501-2.965zm-.559 3.043c0 1.425.809 2.83 2.831 2.83 2.021 0 2.965-1.425 2.965-2.965 0-1.387-.674-2.523-2.176-2.889-.192-.039-.404-.077-.654-.077-.251 0-.481.038-.655.077-1.251.308-2.311 1.194-2.311 3.024zm5.508-6.702c0-1.502-.675-2.695-2.6-2.695-1.945 0-2.619 1.502-2.619 2.792 0 1.021.52 2.292 1.944 2.657.289.077.521.097.732.097.289 0 .5-.058.751-.154 1.484-.578 1.792-2.177 1.792-2.697z"/></g></g></g></svg>