<svg id="Layer_1" enable-background="new 0 0 296 106.347" height="106.347" viewBox="0 0 296 106.347" width="296" xmlns="http://www.w3.org/2000/svg" xmlns:xlink="http://www.w3.org/1999/xlink"><defs><rect id="SVGID_254_" height="106.347" width="296"/><clipPath id="SVGID_1_"><use xlink:href="#SVGID_254_"/></clipPath></defs><g><use fill="#43566b" opacity=".95" xlink:href="#SVGID_254_"/><g clip-path="url(#SVGID_1_)"><g><rect id="SVGID_13_" fill="#43566b" height="106.347" opacity=".95" width="296"/></g></g><g clip-path="url(#SVGID_1_)"><path d="m67.535 53.174c0 25.289-19.253 45.79-42.999 45.79-23.752 0-43.006-20.501-43.006-45.79 0-25.285 19.255-45.786 43.006-45.786 23.746 0 42.999 20.501 42.999 45.786zm-42.999-38.452c-2.281 0-4.128 1.928-4.128 4.312 0 2.382 1.847 4.312 4.128 4.312 2.274 0 4.12-1.93 4.12-4.312-.001-2.384-1.846-4.312-4.12-4.312z" fill="#e5e5e5"/><g fill="#6c8ec3"><g><path d="m14.322 60.483c-3.605 0-8.372-3.204-8.372-13.538 0-11.776 5.769-14.9 9.213-14.9 3.364 0 5.928 2.644 5.928 5.728 0 1.963-1.041 3.405-2.884 3.405-1.602 0-2.644-.762-2.644-2.283 0-1.803 2.203-1.963 2.203-2.924 0-.962-.801-1.963-2.523-1.963-3.364 0-4.606 8.251-4.606 11.255 1.082-1.562 2.724-2.283 4.446-2.283 4.566 0 7.49 4.046 7.49 8.372 0 5.086-3.565 9.131-8.251 9.131zm-.16-15.542c-1.322 0-2.563.962-3.686 2.644 0 7.17 1.082 11.096 4.206 11.096 1.803 0 3.164-1.683 3.164-6.89 0-3.084-.32-6.85-3.684-6.85z"/><path d="m44.843 60.042c-1.001-.12-3.965-.16-7.05-.16-3.044 0-6.088.04-7.089.16-.361.04-.521-.48-.521-1.241 0-.521.2-.922.682-.922 1.121.04 3.765.28 4.125-.08s.561-.841.561-3.524v-3.245c-3.404 0-8.091.04-8.892.16-.36.04-1.041-.682-.521-1.282 2.844-3.364 6.97-7.61 6.97-17.344 0-1.281 6.168-1.602 6.168-.761 0 3.004-5.888 12.897-10.254 17.304l6.528.08v-4.566c0-.801.802-2.043 1.603-3.004 1.242-1.522 2.844-2.203 2.844-.761v8.331c1.963 0 3.445-.08 4.166-.16.521-.04.641.4.641.881 0 .761-.2 1.362-.561 1.282-.721-.12-2.243-.16-4.246-.16v3.244c0 2.684.2 3.164.601 3.524s2.965.12 4.086.08c.521 0 .721.4.721.922-.001.762-.161 1.282-.562 1.242z"/></g><g><path d="m1.07 69.229h2.278l1.87 5.284h-1.347l-.381-1.109h-2.589l-.363 1.108h-1.348zm.203 3.094h1.845l-.683-1.969h-.462z"/><path d="m7.014 69.229h1.304v2.03h.815l1.764-2.03h1.489v.01l-2.216 2.526 2.313 2.739v.009h-1.56l-1.843-2.137h-.762v2.137h-1.304z"/><path d="m14.21 69.229h4.548l.045 1.108h-3.289v.993h2.624v1.063h-2.624v1.011h3.422l-.045 1.108h-4.681z"/><path d="m23.818 69.229h2.987c1.312 0 1.986.736 1.986 1.924 0 1.356-.896 1.978-2.119 1.978h-1.551v1.383h-1.304v-5.285zm2.872 2.784c.567 0 .789-.372.789-.824 0-.541-.248-.843-.815-.843h-1.542v1.667z"/><path d="m30.658 69.229h4.548l.045 1.108h-3.289v.993h2.624v1.063h-2.624v1.011h3.422l-.045 1.108h-4.681z"/><path d="m38.705 69.229h2.278l1.87 5.284h-1.348l-.381-1.108h-2.589l-.363 1.108h-1.348zm.203 3.094h1.845l-.683-1.969h-.462z"/><path d="m44.649 69.229h2.598c1.587 0 2.411.488 2.411 1.817 0 .932-.443 1.401-1.339 1.685l1.738 1.738v.044h-1.632l-1.453-1.587h-1.02v1.587h-1.304v-5.284zm2.731 2.588c.665 0 .967-.213.967-.744 0-.523-.302-.736-.967-.736h-1.427v1.48z"/><path d="m51.764 69.229h1.304v4.132h3.022l-.044 1.152h-4.282z"/><path d="m8.353 79.229h1.304v2.075h2.73v-2.075h1.294v5.284h-1.294v-2.092h-2.73v2.092h-1.304z"/><path d="m15.709 81.898c0-1.702 1.197-2.828 3.032-2.828s3.014 1.091 3.014 2.793-1.196 2.828-3.031 2.828c-1.837 0-3.015-1.091-3.015-2.793zm4.707-.009c0-1.046-.683-1.658-1.692-1.658-1.02 0-1.676.595-1.676 1.641 0 1.055.674 1.657 1.693 1.657 1.011-.001 1.675-.586 1.675-1.64z"/><path d="m25.022 80.382h-1.959l.045-1.153h5.124l.044 1.153h-1.959v4.131h-1.295z"/><path d="m30.205 79.229h4.548l.045 1.108h-3.289v.993h2.624v1.063h-2.624v1.011h3.422l-.045 1.108h-4.681z"/><path d="m36.957 79.229h1.304v4.132h3.022l-.044 1.152h-4.282z"/></g></g></g><g clip-path="url(#SVGID_1_)"><path d="m162.292-1.381c0 25.287-19.255 45.788-43.003 45.788s-43.003-20.501-43.003-45.788c0-25.289 19.255-45.786 43.003-45.786 23.749 0 43.003 20.497 43.003 45.786zm-43.003-38.454c-2.278 0-4.127 1.928-4.127 4.312 0 2.382 1.849 4.312 4.127 4.312s4.121-1.93 4.121-4.312c.001-2.384-1.843-4.312-4.121-4.312z" fill="#e5e5e5"/><g fill="#6c8ec3"><g><path d="m110.518 5.928c-3.925 0-6.248-5.007-7.49-5.007-1.201 0-1.201 1.322-1.201 2.684s.12 2.363-1.082 2.363c-.721 0-.921-.48-.921-1.441 0-8.973 11.776-11.536 11.776-20.027 0-2.523-1.162-4.847-4.286-4.847-1.603 0-2.764 1.121-2.764 2.083 0 .921 1.843 1.722 1.843 3.484s-.962 3.284-2.924 3.284c-1.883 0-3.005-1.922-3.005-3.564 0-4.286 3.085-7.45 7.811-7.45 6.369 0 8.172 4.927 8.172 7.57 0 6.89-9.253 8.451-13.379 14.86 1.042-.36 1.522-.44 2.523-.44 1.963 0 3.285 1.001 5.648 1.001 3.204 0 3.244-3.925 3.564-5.127.32-1.201 2.163-.681 2.043.2-.84 6.489-3.123 10.374-6.328 10.374z"/><path d="m132.468 5.928c-3.925 0-6.248-5.007-7.49-5.007-1.201 0-1.201 1.322-1.201 2.684s.12 2.363-1.082 2.363c-.721 0-.921-.48-.921-1.441 0-8.973 11.776-11.536 11.776-20.027 0-2.523-1.162-4.847-4.286-4.847-1.603 0-2.764 1.121-2.764 2.083 0 .921 1.843 1.722 1.843 3.484s-.962 3.284-2.924 3.284c-1.883 0-3.005-1.922-3.005-3.564 0-4.286 3.085-7.45 7.811-7.45 6.369 0 8.172 4.927 8.172 7.57 0 6.89-9.253 8.451-13.379 14.86 1.042-.36 1.522-.44 2.523-.44 1.963 0 3.285 1.001 5.648 1.001 3.204 0 3.244-3.925 3.564-5.127.32-1.201 2.163-.681 2.043.2-.84 6.489-3.122 10.374-6.328 10.374z"/></g><g><path d="m88.301 14.672h1.304v4.132h3.022l-.044 1.152h-4.282z"/><path d="m95.825 14.672h2.278l1.87 5.284h-1.348l-.381-1.108h-2.589l-.363 1.108h-1.348zm.203 3.095h1.845l-.683-1.969h-.461z"/><path d="m101.769 14.672h1.304v2.03h.815l1.764-2.03h1.489v.01l-2.216 2.526 2.313 2.739v.009h-1.56l-1.845-2.137h-.762v2.137h-1.304v-5.284z"/><path d="m108.965 14.672h4.548l.045 1.108h-3.289v.993h2.624v1.063h-2.624v1.011h3.422l-.045 1.108h-4.681z"/><path d="m118.573 14.672h2.987c1.312 0 1.986.736 1.986 1.924 0 1.356-.896 1.978-2.119 1.978h-1.551v1.383h-1.304v-5.285zm2.872 2.784c.567 0 .789-.372.789-.824 0-.541-.248-.843-.815-.843h-1.542v1.667z"/><path d="m125.413 14.672h4.548l.045 1.108h-3.289v.993h2.624v1.063h-2.624v1.011h3.422l-.045 1.108h-4.681z"/><path d="m133.46 14.672h2.278l1.87 5.284h-1.348l-.381-1.108h-2.589l-.363 1.108h-1.348zm.203 3.095h1.845l-.683-1.969h-.461z"/><path d="m139.404 14.672h2.598c1.587 0 2.411.488 2.411 1.817 0 .932-.443 1.401-1.339 1.685l1.738 1.738v.044h-1.632l-1.453-1.587h-1.02v1.587h-1.304v-5.284zm2.73 2.589c.665 0 .967-.213.967-.744 0-.523-.302-.736-.967-.736h-1.427v1.48z"/><path d="m146.519 14.672h1.304v4.132h3.022l-.044 1.152h-4.282z"/><path d="m103.108 24.672h1.304v2.075h2.73v-2.075h1.294v5.284h-1.294v-2.092h-2.73v2.092h-1.304z"/><path d="m110.464 27.341c0-1.702 1.197-2.828 3.032-2.828s3.014 1.091 3.014 2.793-1.196 2.828-3.031 2.828c-1.837 0-3.015-1.091-3.015-2.793zm4.707-.009c0-1.046-.683-1.658-1.692-1.658-1.02 0-1.676.595-1.676 1.641 0 1.055.674 1.657 1.693 1.657 1.011 0 1.675-.585 1.675-1.64z"/><path d="m119.777 25.825h-1.959l.045-1.153h5.124l.044 1.153h-1.959v4.131h-1.295z"/><path d="m124.96 24.672h4.548l.045 1.108h-3.289v.993h2.624v1.063h-2.624v1.011h3.422l-.045 1.108h-4.681z"/><path d="m131.712 24.672h1.304v4.132h3.022l-.044 1.152h-4.282z"/></g></g></g><g clip-path="url(#SVGID_1_)"><path d="m162.292 107.729c0 25.29-19.255 45.791-43.003 45.791s-43.003-20.501-43.003-45.791c0-25.285 19.255-45.783 43.003-45.783 23.749 0 43.003 20.498 43.003 45.783zm-43.003-38.453c-2.278 0-4.127 1.93-4.127 4.313 0 2.382 1.849 4.31 4.127 4.31s4.121-1.928 4.121-4.31c.001-2.383-1.843-4.313-4.121-4.313z" fill="#e5e5e5"/><g fill="#6c8ec3"><path d="m116.167 114.597c-1.042-.12-4.006-.16-7.09-.16-3.044 0-6.089.04-7.05.16-.4.04-.561-.48-.561-1.241 0-.521.2-.922.681-.922 1.161.04 3.766.28 4.126-.08s.601-.841.601-3.524v-10.775c0-3.085.08-4.446.28-5.769-1.562 1.042-3.604 2.323-4.566 2.323-.521 0-1.041-.761-1.201-1.161-.44-1.242-.521-1.963.761-1.963 2.203 0 3.524-.521 4.727-1.201.641-.361.881-.922 1.161-2.684.24-1.482.521-1.803 2.243-1.803 1.402 0 2.043.48 2.043 1.723 0 .761-1.041 4.085-1.041 7.289v14.02c0 2.684.24 3.164.601 3.524s2.964.12 4.125.08c.481 0 .682.4.682.922-.002.761-.162 1.282-.522 1.242z"/><path d="m134.151 99.456c3.044 2.003 5.087 4.326 5.087 7.53 0 4.366-3.645 8.051-8.491 8.051-5.568 0-8.372-3.885-8.372-6.969 0-3.565 2.083-5.688 5.207-7.29-3.805-2.563-4.205-5.247-4.205-7.05 0-4.526 3.845-7.13 7.49-7.13 4.927 0 7.61 3.565 7.61 6.449 0 2.604-1.682 4.808-4.326 6.409zm-5.167 2.203c-2.043 1.482-2.964 3.244-2.964 5.928 0 3.004 1.802 5.487 4.847 5.487 2.363 0 4.165-1.922 4.165-4.525 0-1.963-.881-3.686-6.048-6.89zm3.685-3.164c1.562-1.522 2.403-3.285 2.403-5.167 0-2.884-1.401-4.807-3.965-4.807-2.483 0-3.686 2.043-3.686 3.484.001 1.483-.08 2.925 5.248 6.49z"/></g></g><g clip-path="url(#SVGID_1_)"><path d="m351.801-1.381c0 25.287-19.251 45.788-42.999 45.788-23.75 0-43.005-20.501-43.005-45.788 0-25.289 19.255-45.786 43.005-45.786 23.748 0 42.999 20.497 42.999 45.786zm-42.999-38.454c-2.28 0-4.128 1.928-4.128 4.312 0 2.382 1.849 4.312 4.128 4.312 2.274 0 4.12-1.93 4.12-4.312 0-2.384-1.846-4.312-4.12-4.312z" fill="#e5e5e5"/><g><path d="m297.787 5.928c-4.686 0-8.131-2.884-8.131-7.13 0-1.682 1.162-3.564 3.084-3.564 1.883 0 2.885 1.522 2.885 3.244 0 1.763-1.883 2.563-1.883 3.525 0 .921 1.201 1.962 3.404 1.962 3.244 0 4.606-2.202 4.606-6.048 0-3.204-1.803-5.768-5.407-5.768-1.162 0-1.683.28-2.684.28-.36 0-.521-.48-.521-1.282 0-.48.2-.881.681-.881 1.001 0 1.521.28 2.644.28 3.645 0 5.287-2.283 5.287-6.328 0-2.523-1.442-4.767-4.606-4.767-1.602 0-2.804 1.001-2.804 1.963 0 .961 1.923 1.722 1.923 3.524 0 1.723-1.042 3.244-2.924 3.244-1.923 0-3.085-1.882-3.085-3.564 0-4.286 3.165-7.13 7.852-7.13 6.368 0 8.171 4.646 8.171 7.25 0 3.364-2.483 5.367-6.489 6.488 4.847 1.122 6.489 3.565 6.489 7.05 0 4.007-3.205 7.652-8.492 7.652z" fill="#6c8ec3"/></g><g fill="#6c8ec3"><path d="m277.813 14.672h1.304v4.132h3.022l-.044 1.152h-4.282z"/><path d="m285.337 14.672h2.278l1.87 5.284h-1.348l-.381-1.108h-2.589l-.363 1.108h-1.348zm.203 3.095h1.845l-.683-1.969h-.461z"/><path d="m291.281 14.672h1.304v2.03h.815l1.764-2.03h1.489v.01l-2.216 2.526 2.313 2.739v.009h-1.56l-1.845-2.137h-.762v2.137h-1.304v-5.284z"/><path d="m292.62 24.672h1.304v2.075h2.73v-2.075h1.294v5.284h-1.294v-2.092h-2.73v2.092h-1.304z"/></g></g><g clip-path="url(#SVGID_1_)"><path d="m351.801 107.729c0 25.29-19.251 45.791-42.999 45.791-23.75 0-43.005-20.501-43.005-45.791 0-25.285 19.255-45.783 43.005-45.783 23.748 0 42.999 20.498 42.999 45.783zm-42.999-38.453c-2.28 0-4.128 1.93-4.128 4.313 0 2.382 1.849 4.31 4.128 4.31 2.274 0 4.12-1.928 4.12-4.31 0-2.383-1.846-4.313-4.12-4.313z" fill="#e5e5e5"/><g><path d="m297.466 115.037c-3.965 0-6.769-2.644-6.769-5.728 0-2.003 1.041-3.444 2.924-3.444 1.562 0 2.604.761 2.604 2.323 0 1.802-2.203 1.962-2.203 2.924 0 .921 1.321 1.962 2.964 1.962 3.726 0 4.847-8.251 4.847-11.295-1.161 1.603-2.924 2.323-4.687 2.323-4.566 0-7.33-4.046-7.33-8.411 0-5.047 3.726-9.093 8.412-9.093 4.405 0 8.251 4.847 8.251 13.538 0 11.777-6.169 14.901-9.013 14.901zm.401-26.636c-1.762 0-3.324 1.682-3.324 6.89 0 3.084.2 6.849 3.565 6.849 1.281 0 2.684-1.001 3.805-2.644 0-7.17-.921-11.095-4.046-11.095z" fill="#6c8ec3"/></g></g><g clip-path="url(#SVGID_1_)"><path d="m257.046 53.174c0 25.289-19.251 45.79-42.999 45.79-23.752 0-43.005-20.501-43.005-45.79 0-25.285 19.253-45.786 43.005-45.786 23.748 0 42.999 20.501 42.999 45.786zm-42.999-38.452c-2.28 0-4.128 1.928-4.128 4.312 0 2.382 1.849 4.312 4.128 4.312 2.274 0 4.12-1.93 4.12-4.312-.001-2.384-1.846-4.312-4.12-4.312z" fill="#e5e5e5"/><g fill="#6c8ec3"><g><path d="m207.037 49.228c-.841 5.047.2 11.295-4.006 11.295-2.082 0-2.804-1.602-2.804-3.685 0-2.403 2.283-7.37 4.446-10.094 2.003-2.523 4.687-7.01 5.047-8.411-.921.521-1.843.681-2.724.681-2.083 0-3.886-.801-6.088-.801-1.402 0-2.363 1.081-2.805 2.002-.16.28-.24 3.005-.32 4.646-.04 1.002-2.162.881-1.962.12.32-1.361-.04-10.254-.04-11.695 0-1.402 2.322-.762 2.322-.08 0 .681-.561 2.483-.36 4.445 1.522-1.001 1.242-5.728 5.167-5.728 3.886 0 3.726 4.807 6.289 4.807 2.283 0 1.041-3.004 1.321-4.086.28-1.161 2.003-.681 2.003.2.001 7.211-4.525 10.736-5.486 16.384z"/><path d="m224.541 38.413c-.841 0-1.642-.08-2.523-.16s-1.121-.16-1.121 1.161c0 .921-.12 4.807-.08 5.127.641-1.321 2.443-2.523 4.767-2.523 4.525 0 7.69 3.604 7.69 8.371 0 5.007-3.966 10.094-9.213 10.094-4.526 0-7.37-2.804-7.37-5.888 0-1.723 1.122-3.564 3.044-3.564 1.883 0 2.925 1.481 2.925 3.204 0 1.802-1.883 2.123-1.883 3.084 0 .641.801 1.201 3.084 1.201 2.844 0 4.887-2.483 4.887-7.249 0-3.285-.24-7.45-3.846-7.45-2.844 0-3.805 2.443-3.805 4.526 0 .36-.28.521-1.082.521-.48 0-.921-.2-.881-.682.2-2.162-.28-10.534-.28-12.697 0-2.684.641-3.685 2.243-3.685 1.683 0 3.004.801 4.045 2.163.962 1.241 1.643 1.923 2.925 1.923 1.521 0 2.202-1.122 3.364-3.205.4-.721 2.043-.04 2.043.481-.001 1.802-3.246 5.247-8.933 5.247z"/></g><g><path d="m183.057 69.229h1.304v4.132h3.022l-.044 1.152h-4.282z"/><path d="m190.581 69.229h2.278l1.87 5.284h-1.348l-.381-1.108h-2.589l-.363 1.108h-1.348zm.203 3.094h1.845l-.683-1.969h-.461z"/><path d="m196.525 69.229h1.304v2.03h.815l1.764-2.03h1.489v.01l-2.216 2.526 2.313 2.739v.009h-1.56l-1.845-2.137h-.762v2.137h-1.304v-5.284z"/><path d="m203.72 69.229h4.548l.045 1.108h-3.289v.993h2.624v1.063h-2.624v1.011h3.422l-.045 1.108h-4.681z"/><path d="m213.329 69.229h2.987c1.312 0 1.986.736 1.986 1.924 0 1.356-.896 1.978-2.119 1.978h-1.551v1.383h-1.304v-5.285zm2.872 2.784c.567 0 .789-.372.789-.824 0-.541-.248-.843-.815-.843h-1.542v1.667z"/><path d="m220.169 69.229h4.548l.045 1.108h-3.289v.993h2.624v1.063h-2.624v1.011h3.422l-.045 1.108h-4.681z"/><path d="m228.216 69.229h2.278l1.87 5.284h-1.348l-.381-1.108h-2.589l-.363 1.108h-1.348zm.203 3.094h1.845l-.683-1.969h-.461z"/><path d="m234.16 69.229h2.598c1.587 0 2.411.488 2.411 1.817 0 .932-.443 1.401-1.339 1.685l1.738 1.738v.044h-1.632l-1.453-1.587h-1.02v1.587h-1.304v-5.284zm2.73 2.588c.665 0 .967-.213.967-.744 0-.523-.302-.736-.967-.736h-1.427v1.48z"/><path d="m241.275 69.229h1.304v4.132h3.022l-.044 1.152h-4.282z"/><path d="m197.864 79.229h1.304v2.075h2.73v-2.075h1.294v5.284h-1.294v-2.092h-2.73v2.092h-1.304z"/><path d="m205.219 81.898c0-1.702 1.197-2.828 3.032-2.828s3.014 1.091 3.014 2.793-1.196 2.828-3.031 2.828c-1.836 0-3.015-1.091-3.015-2.793zm4.707-.009c0-1.046-.683-1.658-1.692-1.658-1.02 0-1.676.595-1.676 1.641 0 1.055.674 1.657 1.693 1.657 1.011-.001 1.675-.586 1.675-1.64z"/><path d="m214.533 80.382h-1.959l.045-1.153h5.124l.044 1.153h-1.959v4.131h-1.295z"/><path d="m219.716 79.229h4.548l.045 1.108h-3.289v.993h2.624v1.063h-2.624v1.011h3.422l-.045 1.108h-4.681z"/><path d="m226.467 79.229h1.304v4.132h3.022l-.044 1.152h-4.282z"/></g></g></g></g></svg>