<svg id="Layer_1" enable-background="new 0 0 296 106.347" height="106.347" viewBox="0 0 296 106.347" width="296" xmlns="http://www.w3.org/2000/svg" xmlns:xlink="http://www.w3.org/1999/xlink"><defs><rect id="SVGID_19_" height="106.347" width="296"/><clipPath id="SVGID_1_"><use xlink:href="#SVGID_19_"/></clipPath></defs><g><use fill="#ff9f29" xlink:href="#SVGID_19_"/><rect clip-path="url(#SVGID_1_)" fill="#ff9f29" height="106.347" width="296"/><g clip-path="url(#SVGID_1_)" fill="#ed457b" stroke="#ed457b" stroke-miterlimit="10" stroke-width="15.8476"><path d="m-.602 13.832h-.347c-1.618 0-2.196-.694-2.196-1.85v-1.271c0-1.156.578-1.849 2.196-1.849h10.404c4.739 0 5.433.693 5.433 4.276v29.243c0 8.091-3.814 11.674-12.252 11.674h-10.404c-8.9 0-13.061-3.583-13.061-11.674v-58.486c0-8.091 4.161-11.674 13.061-11.674h10.288c8.438 0 12.252 3.583 12.252 11.674v8.668c0 5.664-1.618 7.282-7.397 7.282s-7.397-1.618-7.397-7.282v-12.483c0-3.236-.809-4.045-2.543-4.045s-2.543.924-2.543 4.045v66.115c0 3.236.809 4.045 2.543 4.045s2.543-.809 2.543-4.045v-31.785c-.001-.463-.117-.578-.58-.578z"/><path d="m68.633-27.316c1.733 0 2.196.462 2.196 2.196v.231c0 1.734-.462 2.196-2.196 2.196h-8.785c-.462 0-.578.115-.578.578v31.786c0 .462.116.578.578.578h8.091c1.618 0 2.081.462 2.081 2.081v.231c0 1.618-.462 2.081-2.081 2.081h-8.091c-.462 0-.578.115-.578.578v33.173c0 .462.116.578.578.578h8.785c1.733 0 2.196.462 2.196 2.196v.231c0 1.734-.462 2.196-2.196 2.196h-15.836c-7.282 0-9.247-1.965-9.247-9.247v-62.417c0-7.282 1.965-9.247 9.247-9.247h15.836z"/><path d="m97.992-20.035c0-6.126 1.733-7.744 7.859-7.744s7.86 1.618 7.86 7.744v66.346c0 6.126-1.733 7.744-7.86 7.744-6.126 0-7.859-1.618-7.859-7.744z"/><path d="m142.145-16.104c0-8.091 4.161-11.674 12.83-11.674h10.287c8.669 0 12.483 3.583 12.483 11.674v9.478c0 5.779-1.618 7.397-7.397 7.397h-.231c-5.779 0-7.397-1.619-7.397-7.397v-13.292c0-3.236-.809-4.045-2.542-4.045-1.618 0-2.543.809-2.543 4.045v17.568c0 2.659.462 3.583 2.543 5.201l11.327 9.016c5.664 4.508 6.473 6.357 6.473 14.795v15.719c0 8.091-4.161 11.674-12.83 11.674h-10.058c-8.785 0-12.945-3.583-12.945-11.674v-11.327c0-5.895 1.618-7.513 7.513-7.513h.231c5.895 0 7.513 1.618 7.513 7.513v15.142c0 3.236.925 4.045 2.543 4.045s2.543-.809 2.543-4.045v-19.534c0-2.774-.462-3.583-2.543-5.202l-11.327-9.016c-5.664-4.508-6.473-6.357-6.473-14.795z"/><path d="m218.779 54.056c-6.126 0-7.86-1.618-7.86-7.744v-68.427c0-.462-.115-.578-.578-.578h-5.317c-1.734 0-2.196-.462-2.196-2.196v-.231c0-1.734.462-2.196 2.196-2.196h27.509c1.734 0 2.196.462 2.196 2.196v.231c0 1.734-.462 2.196-2.196 2.196h-5.317c-.462 0-.578.115-.578.578v68.427c.001 6.126-1.733 7.744-7.859 7.744z"/><path d="m280.501 13.832h-.347c-1.618 0-2.196-.694-2.196-1.85v-1.271c0-1.156.578-1.849 2.196-1.849h10.403c4.739 0 5.433.693 5.433 4.276v29.243c0 8.091-3.814 11.674-12.252 11.674h-10.403c-8.9 0-13.061-3.583-13.061-11.674v-58.486c0-8.091 4.161-11.674 13.061-11.674h10.287c8.438 0 12.252 3.583 12.252 11.674v8.668c0 5.664-1.618 7.282-7.397 7.282s-7.397-1.618-7.397-7.282v-12.483c0-3.236-.809-4.045-2.543-4.045s-2.543.924-2.543 4.045v66.115c0 3.236.809 4.045 2.543 4.045s2.543-.809 2.543-4.045v-31.785c0-.463-.116-.578-.579-.578z"/></g><g clip-path="url(#SVGID_1_)"><g fill="#ff9f29"><path d="m3.708 12.511h-.347c-1.618 0-2.196-.694-2.196-1.85v-1.271c0-1.156.578-1.849 2.196-1.849h10.403c4.739 0 5.433.693 5.433 4.276v29.243c0 8.091-3.814 11.674-12.252 11.674h-10.403c-8.9 0-13.061-3.583-13.061-11.674v-58.486c0-8.091 4.161-11.674 13.061-11.674h10.287c8.438 0 12.252 3.583 12.252 11.674v8.668c0 5.664-1.618 7.282-7.397 7.282s-7.398-1.617-7.398-7.281v-12.483c0-3.236-.809-4.045-2.543-4.045s-2.543.924-2.543 4.045v66.115c0 3.236.809 4.045 2.543 4.045s2.543-.809 2.543-4.045v-31.787c0-.462-.116-.577-.578-.577z"/><path d="m72.942-28.638c1.733 0 2.196.462 2.196 2.196v.231c0 1.734-.462 2.196-2.196 2.196h-8.785c-.462 0-.578.115-.578.578v31.787c0 .462.116.578.578.578h8.091c1.618 0 2.081.462 2.081 2.081v.231c0 1.618-.462 2.081-2.081 2.081h-8.091c-.462 0-.578.115-.578.578v33.173c0 .462.116.578.578.578h8.785c1.733 0 2.196.462 2.196 2.196v.231c0 1.734-.462 2.196-2.196 2.196h-15.836c-7.282 0-9.247-1.965-9.247-9.247v-62.416c0-7.282 1.965-9.247 9.247-9.247h15.836z"/><path d="m102.301-21.356c0-6.126 1.733-7.744 7.859-7.744s7.86 1.618 7.86 7.744v66.346c0 6.126-1.733 7.744-7.86 7.744-6.126 0-7.859-1.618-7.859-7.744z"/><path d="m146.454-17.426c0-8.091 4.161-11.674 12.83-11.674h10.287c8.669 0 12.483 3.583 12.483 11.674v9.478c0 5.779-1.618 7.397-7.397 7.397h-.231c-5.779 0-7.397-1.619-7.397-7.397v-13.292c0-3.236-.809-4.045-2.542-4.045-1.618 0-2.543.809-2.543 4.045v17.569c0 2.659.462 3.583 2.543 5.201l11.327 9.016c5.664 4.508 6.473 6.357 6.473 14.795v15.719c0 8.091-4.161 11.674-12.83 11.674h-10.056c-8.785 0-12.945-3.583-12.945-11.674v-11.327c0-5.895 1.618-7.513 7.513-7.513h.231c5.895 0 7.513 1.618 7.513 7.513v15.142c0 3.236.925 4.045 2.543 4.045s2.543-.809 2.543-4.045v-19.534c0-2.774-.462-3.583-2.543-5.202l-11.327-9.016c-5.664-4.508-6.473-6.357-6.473-14.795v-13.754z"/><path d="m223.088 52.734c-6.126 0-7.86-1.618-7.86-7.744v-68.427c0-.462-.115-.578-.578-.578h-5.317c-1.734 0-2.196-.462-2.196-2.196v-.231c0-1.734.462-2.196 2.196-2.196h27.509c1.734 0 2.196.462 2.196 2.196v.231c0 1.734-.462 2.196-2.196 2.196h-5.317c-.462 0-.578.115-.578.578v68.427c.001 6.126-1.733 7.744-7.859 7.744z"/><path d="m284.811 12.511h-.347c-1.618 0-2.196-.694-2.196-1.85v-1.271c0-1.156.578-1.849 2.196-1.849h10.403c4.739 0 5.433.693 5.433 4.276v29.243c0 8.091-3.814 11.674-12.252 11.674h-10.403c-8.9 0-13.061-3.583-13.061-11.674v-58.486c0-8.091 4.161-11.674 13.061-11.674h10.287c8.438 0 12.252 3.583 12.252 11.674v8.668c0 5.664-1.618 7.282-7.397 7.282s-7.397-1.618-7.397-7.282v-12.482c0-3.236-.809-4.045-2.543-4.045s-2.543.924-2.543 4.045v66.115c0 3.236.809 4.045 2.543 4.045s2.543-.809 2.543-4.045v-31.787c-.001-.462-.117-.577-.579-.577z"/></g></g><g clip-path="url(#SVGID_1_)" fill="#f5f5f5"><path d="m31.019 87.731v-2.489h.014c1.542.806 3.183 1.244 4.569 1.244 1.188 0 1.796-.325 1.796-.891 0-.58-.453-.75-2.645-1.117-2.023-.326-3.763-.948-3.763-2.929 0-1.754 1.499-3.253 4.64-3.253 1.259 0 2.631.297 3.762.849v2.476h-.014c-1.16-.693-2.673-1.132-3.946-1.132-1.259 0-1.782.34-1.782.877 0 .693.948.764 2.603 1.061 2.023.354 3.791.92 3.791 3.042 0 1.414-.948 3.21-4.526 3.21-1.798-.001-3.198-.383-4.499-.948z"/><path d="m49.813 84.478c0 .254-.014.509-.042.749h-5.573c.198 1.019.976 1.485 2.249 1.485 1.019 0 2.037-.325 2.872-.792h.014v2.009c-.764.41-1.853.749-3.112.749-2.971 0-4.512-1.584-4.512-3.946 0-2.475 1.669-4.285 4.243-4.285 2.589 0 3.861 1.725 3.861 4.031zm-5.587-.637h3.338c-.071-.892-.679-1.485-1.641-1.485-.919 0-1.499.565-1.697 1.485z"/><path d="m51.904 80.701h2.433l.028.99c.552-.693 1.358-1.23 2.504-1.23 1.98 0 3.479 1.471 3.479 3.918 0 2.532-1.825 4.286-4.159 4.286-.735 0-1.287-.142-1.782-.396v3.042h-2.503zm5.941 3.819c0-1.344-.778-2.022-1.867-2.022-.594 0-1.16.24-1.57.565v3.141c.424.282.863.452 1.415.452 1.216 0 2.022-.806 2.022-2.136z"/><path d="m63.231 82.653h-1.684l.368-1.952h1.315v-1.739l2.475-.283v2.022h1.711v1.952h-1.711v5.785h-2.475v-5.785z"/><path d="m76.752 84.478c0 .254-.014.509-.042.749h-5.573c.198 1.019.976 1.485 2.249 1.485 1.019 0 2.037-.325 2.872-.792h.014v2.009c-.764.41-1.853.749-3.112.749-2.971 0-4.512-1.584-4.512-3.946 0-2.475 1.669-4.285 4.243-4.285 2.588 0 3.861 1.725 3.861 4.031zm-5.587-.637h3.338c-.071-.892-.679-1.485-1.641-1.485-.92 0-1.499.565-1.697 1.485z"/><path d="m78.842 80.701h2.475l.014 1.188c.693-.863 1.514-1.429 2.645-1.429 1.104 0 1.966.523 2.348 1.542.891-1.033 1.711-1.542 2.829-1.542 1.5 0 2.546.948 2.546 2.814v5.163h-2.503v-4.555c0-1.004-.509-1.272-1.061-1.272-.566 0-1.131.311-1.612.735v5.092h-2.504v-4.555c0-1.004-.509-1.272-1.061-1.272-.566 0-1.132.311-1.613.735v5.092h-2.503z"/><path d="m96.674 81.507c.538-.594 1.259-1.032 2.376-1.032 1.952 0 3.536 1.428 3.536 3.805 0 2.631-1.825 4.385-4.385 4.385-.792 0-1.627-.17-2.376-.467h-1.655v-10.609h2.503v3.918zm0 1.471v3.381c.41.198.905.34 1.372.34 1.104 0 2.037-.792 2.037-2.249 0-1.302-.764-1.952-1.839-1.952-.664 0-1.188.211-1.57.48z"/><path d="m112.344 84.478c0 .254-.014.509-.042.749h-5.573c.198 1.019.976 1.485 2.249 1.485 1.019 0 2.037-.325 2.872-.792h.014v2.009c-.764.41-1.853.749-3.112.749-2.971 0-4.512-1.584-4.512-3.946 0-2.475 1.669-4.285 4.243-4.285 2.588 0 3.861 1.725 3.861 4.031zm-5.587-.637h3.338c-.071-.892-.679-1.485-1.641-1.485-.919 0-1.499.565-1.697 1.485z"/><path d="m114.435 80.701h2.489v1.429c.566-1.004 1.33-1.599 2.164-1.599.085 0 .17 0 .326.015v2.504c-.198-.028-.354-.028-.538-.028-.905 0-1.613.269-1.938.877v4.54h-2.503z"/><path d="m124.913 85.878c0-1.217.651-1.967 1.938-2.447-1.075-.41-1.711-1.09-1.711-2.221 0-1.697 1.386-2.971 4.328-2.971 2.928 0 4.314 1.287 4.314 2.971 0 1.131-.637 1.811-1.697 2.221 1.273.48 1.923 1.23 1.923 2.447 0 1.782-1.443 2.899-4.541 2.899-3.069.001-4.554-1.116-4.554-2.899zm6.577-.326c0-.834-.792-1.272-2.023-1.272-1.259 0-2.022.41-2.022 1.259 0 .82.693 1.287 2.022 1.287 1.316 0 2.023-.467 2.023-1.274zm-.17-4.143c0-.765-.665-1.231-1.853-1.231-1.202 0-1.867.438-1.867 1.231 0 .849.764 1.23 1.867 1.23 1.104 0 1.853-.382 1.853-1.23z"/><path d="m140.256 83.629c0-2.971 2.107-5.291 5.502-5.291 1.457 0 2.9.467 3.833 1.245v1.117h-.014c-1.033-.849-2.334-1.372-3.833-1.372-2.702 0-4.385 1.782-4.385 4.286 0 2.433 1.57 4.116 4.229 4.116 2.405 0 3.918-1.372 3.989-3.621h-4.441v-.905h5.502c.014.142.014.283.014.523-.028 3.253-2.179 4.965-5.121 4.965-3.239.001-5.275-2.065-5.275-5.063z"/><path d="m153.534 80.969h1.004v1.769c.622-1.217 1.598-1.952 2.73-1.952.028 0 .099 0 .169.015v1.019c-.071-.015-.127-.015-.198-.015-1.203 0-2.15.665-2.688 1.825v4.809h-1.019v-7.47z"/><path d="m159.035 86.67c0-.51.198-1.005.58-1.387.665-.665 2.037-1.132 5.007-1.287v-.396c0-1.287-.707-1.938-2.051-1.938-1.061 0-2.164.438-3.069 1.146h-.014v-1.004c.948-.665 2.093-1.032 3.225-1.032 1.895 0 2.928.976 2.928 2.829v4.837h-.962l-.028-1.329c-.863.947-1.881 1.527-3.183 1.527-1.528 0-2.433-.778-2.433-1.966zm5.587-.283v-1.697c-2.376.142-3.607.438-4.201 1.032-.269.283-.368.608-.368.892 0 .777.665 1.23 1.627 1.23 1.159 0 2.15-.593 2.942-1.457z"/><path d="m168.947 80.969h1.004v1.599c.778-.919 1.74-1.796 3.168-1.796 1.598 0 2.603.891 2.603 2.814v4.852h-1.033v-4.64c0-1.527-.721-2.121-1.896-2.121-1.202 0-2.079.834-2.829 1.711v5.05h-1.019v-7.469z"/><path d="m185.933 88.438h-1.004v-1.188c-.608.679-1.613 1.386-2.957 1.386-1.923 0-3.508-1.372-3.508-3.876 0-2.234 1.683-3.988 3.96-3.988 1.089 0 1.853.354 2.49.862v-3.748h1.019zm-6.422-3.72c0 2.051 1.245 3.041 2.758 3.041 1.061 0 2.051-.58 2.645-1.259v-3.805c-.651-.651-1.386-1.047-2.419-1.047-1.796.001-2.984 1.345-2.984 3.07z"/><path d="m197.385 78.537h2.108l4.06 9.901h-1.132l-1.174-2.857h-5.644l-1.174 2.857h-1.104zm-1.386 6.096h4.866l-2.094-5.092h-.679z"/><path d="m206.279 80.969h1.004v1.769c.622-1.217 1.598-1.952 2.729-1.952.028 0 .099 0 .17.015v1.019c-.071-.015-.127-.015-.198-.015-1.203 0-2.15.665-2.688 1.825v4.809h-1.018v-7.47z"/><path d="m212.543 80.969h1.004v1.655c.764-.99 1.697-1.853 3.041-1.853 1.216 0 2.107.608 2.391 1.909.863-1.104 1.796-1.909 3.112-1.909 1.471 0 2.475.891 2.475 2.814v4.852h-1.033v-4.64c0-1.527-.721-2.121-1.768-2.121-1.131 0-1.98.834-2.702 1.726v.184 4.852h-1.032v-4.64c0-1.527-.722-2.121-1.768-2.121-1.104 0-1.938.792-2.702 1.711v5.05h-1.018z"/><path d="m230.376 88.678-3.38-7.709h1.103l2.829 6.535 2.702-6.535h1.061l-4.258 10.1h-1.033z"/><path d="m242.097 78.537h4.64c2.489 0 3.777 1.202 3.777 3.311 0 2.234-1.429 3.423-3.862 3.423h-3.479v3.168h-1.075v-9.902zm4.569 5.756c1.867 0 2.758-.905 2.758-2.404 0-1.527-.919-2.376-2.772-2.376h-3.479v4.78z"/><path d="m253.424 77.886h1.018v10.552h-1.018z"/><path d="m257.44 86.67c0-.51.198-1.005.58-1.387.665-.665 2.037-1.132 5.007-1.287v-.396c0-1.287-.707-1.938-2.051-1.938-1.061 0-2.164.438-3.069 1.146h-.014v-1.004c.948-.665 2.093-1.032 3.225-1.032 1.895 0 2.928.976 2.928 2.829v4.837h-.962l-.028-1.329c-.863.947-1.881 1.527-3.183 1.527-1.528 0-2.433-.778-2.433-1.966zm5.587-.283v-1.697c-2.376.142-3.607.438-4.201 1.032-.269.283-.368.608-.368.892 0 .777.665 1.23 1.627 1.23 1.16 0 2.15-.593 2.942-1.457z"/><path d="m266.843 87.632 5.233-5.8h-5.092l.042-.863h6.365v.765l-5.304 5.842h5.304v.862h-6.549v-.806z"/><path d="m275.639 86.67c0-.51.198-1.005.58-1.387.665-.665 2.037-1.132 5.007-1.287v-.396c0-1.287-.707-1.938-2.051-1.938-1.061 0-2.164.438-3.069 1.146h-.014v-1.004c.948-.665 2.093-1.032 3.225-1.032 1.895 0 2.928.976 2.928 2.829v4.837h-.962l-.028-1.329c-.863.947-1.881 1.527-3.183 1.527-1.528 0-2.433-.778-2.433-1.966zm5.587-.283v-1.697c-2.376.142-3.607.438-4.201 1.032-.269.283-.368.608-.368.892 0 .777.665 1.23 1.627 1.23 1.16 0 2.15-.593 2.942-1.457z"/><path d="m290.501 78.537h5.304c2.023 0 3.183.877 3.183 2.476 0 1.188-.636 2.037-2.065 2.306 1.485.354 2.263 1.16 2.263 2.404 0 1.882-1.33 2.716-3.621 2.716h-5.064zm5.106 4.384c1.527 0 2.306-.607 2.306-1.739s-.82-1.697-2.178-1.697h-4.187v3.437h4.059zm-.042 4.555c1.754 0 2.56-.622 2.56-1.853 0-1.117-.834-1.825-2.461-1.825h-4.116v3.692z"/></g></g></svg>