<svg id="Layer_1" enable-background="new 0 0 304 109.222" height="109.222" viewBox="0 0 304 109.222" width="304" xmlns="http://www.w3.org/2000/svg" xmlns:xlink="http://www.w3.org/1999/xlink"><clipPath id="SVGID_1_"><rect id="SVGID_3_" height="109.222" width="304" x="-328"/></clipPath><g><g clip-path="url(#SVGID_1_)"><g><g><g fill="#eb5e29"><path d="m-28.936-134.869c73.316 144.901 61.089 263.489 13.936 290.491s-168.578-90.964-219.95-184.356 106.747 68.621 143.593 48.829 19.721-239.356 62.421-154.964z"/><path d="m153.609 146.758c-134.788 90.575-253.98 93.021-286.574 49.545s69.547-178.482 155.915-240.947-54.977 114.374-30.804 148.507 239.964-9.856 161.463 42.895z"/></g><g fill="#f2ff00"><path d="m-28.936-134.869c73.316 144.901 61.089 263.489 13.936 290.491s-168.578-90.964-219.95-184.356 106.747 68.621 143.593 48.829 19.721-239.356 62.421-154.964z" opacity=".13"/><path d="m153.609 146.758c-134.788 90.575-253.98 93.021-286.574 49.545s69.547-178.482 155.915-240.947-54.977 114.374-30.804 148.507 239.964-9.856 161.463 42.895z" opacity=".13"/></g></g></g></g></g><g><g><rect fill="#a9a59f" height="109.222" width="304"/></g><g fill="#f5f5f5" opacity=".96"><path d="m66.703 54.783c0 2.094-.55 3.56-1.518 4.396-.891.759-2.067 1.047-3.82 1.047h-11.645v-1.753h11.515c1.072 0 1.779-.236 2.303-.759.549-.55.941-1.701.941-3.114s-.262-2.329-.863-2.932c-.419-.418-.941-.653-1.727-.759.706-.156 1.203-.366 1.596-.759.576-.575.811-1.465.811-2.983 0-1.151-.313-2.224-.889-2.8-.472-.471-1.021-.706-2.199-.706h-11.488v-1.754h11.278c2.041 0 3.114.288 4.004.994 1.073.864 1.518 2.382 1.518 3.952 0 2.303-.706 3.454-1.963 3.925v.053c1.387.525 2.146 1.571 2.146 3.952zm-16.983 1.256h1.962v-9.943h-1.962v-1.754h4.239v13.451h-4.239zm13.057-11.174c.472.472.733 1.387.733 2.303 0 1.335-.21 2.172-.707 2.67-.497.497-1.335.732-2.485.732h-5.574v-6.229h6.229c.941.001 1.439.158 1.804.524zm-2.459 6.386c1.281 0 2.094.235 2.616.759.523.523.759 1.413.759 2.616 0 1.126-.313 2.146-.785 2.617-.418.419-1.02.55-1.91.55h-6.254v-6.542zm-.236-2.355c.445 0 .707-.053.891-.235.234-.235.313-.654.313-1.256 0-.523-.079-.942-.341-1.204-.131-.131-.313-.21-.811-.21h-3.114v2.905zm-3.061 7.249h3.219c.472 0 .706-.053.89-.235.262-.262.34-.707.34-1.388 0-.575-.104-1.099-.365-1.36-.184-.184-.445-.235-.916-.235h-3.167v3.218z"/><path d="m69.715 57.793v-1.754h1.178l4.082-12.482c.366-1.151 1.021-1.727 2.277-1.727h3.873c1.256 0 1.91.575 2.275 1.727l4.083 12.482h1.178v1.754h-2.931l-4.214-13.006c-.261-.785-.628-1.204-1.387-1.204h-1.989c-.758 0-1.203.393-1.465 1.204l-4.188 13.006zm0 2.434v-1.753h8.191v1.753zm5.024-7.066h8.714l1.466 4.632h-4.841v-1.701h1.936l-.418-1.309h-5.208l-.393 1.309h1.911v1.701h-4.606zm3.507-8.897h1.753c.497 0 .681.366.837.863l2.408 7.354h-8.296l2.382-7.354c.156-.497.393-.863.916-.863zm.602 1.963-1.361 4.658h3.01l-1.361-4.658zm1.23 14v-1.753h8.583v1.753z"/><path d="m105.072 54.652c0-1.675-.262-2.485-.733-2.957-.366-.393-.942-.602-2.015-.732l-5.443-.707c-.941-.131-1.334-.235-1.675-.575-.393-.393-.523-.994-.523-2.407 0-1.283.183-2.067.628-2.513.288-.288.863-.419 1.779-.419h4.475c1.074 0 1.649.131 1.963.445.445.419.576 1.099.603 3.062h-2.042c-.052-1.151-.131-1.439-.287-1.597-.157-.156-.419-.209-1.1-.209h-2.643c-.628 0-.89 0-1.047.157-.131.131-.184.419-.184 1.021 0 .575.053.916.21 1.073.131.131.444.183 1.335.287l4.92.629c1.256.156 2.145.497 2.695 1.046.706.707 1.229 1.78 1.229 4.239 0 2.513-.575 4.004-1.413 4.842-.55.55-1.439.89-2.904.89h-6.988c-1.648 0-2.59-.209-3.244-.863-.76-.759-1.178-2.094-1.178-5.312h2.094c.025 2.434.287 3.323.759 3.82.444.445 1.125.603 2.434.603h5.181c1.205 0 1.885-.236 2.277-.629.523-.524.837-1.492.837-3.194zm-10.703-.601h2.041c.053 1.36.131 1.675.287 1.832.158.156.472.209 1.23.209h2.695c.759 0 1.151-.026 1.309-.183.156-.157.209-.498.209-1.152 0-.522-.025-.863-.184-1.021-.183-.183-.627-.235-1.36-.34l-4.919-.628c-1.152-.157-2.146-.471-2.723-1.047-.706-.706-1.203-1.753-1.203-4.292 0-2.329.576-3.794 1.413-4.632.55-.549 1.466-.89 2.853-.89h6.516c1.701 0 2.67.262 3.245.838.785.785 1.204 1.937 1.229 5.103h-2.094c-.052-2.303-.287-3.062-.784-3.585-.419-.419-1.073-.602-2.382-.602h-4.893c-1.1 0-1.754.235-2.121.602-.522.523-.837 1.466-.837 3.035 0 1.728.235 2.486.733 2.983.393.393.941.576 2.015.707l5.312.706c.916.131 1.467.288 1.78.576.393.393.55 1.072.55 2.407 0 1.387-.184 2.198-.654 2.669-.288.288-.891.445-1.91.445h-4.737c-1.099 0-1.675-.104-2.041-.471-.419-.39-.549-1.175-.575-3.269z"/><path d="m119.885 41.908v1.754h-9.42v-1.754zm-7.301 4.188h-2.119v-1.754h4.318v13.451h-4.318v-1.754h2.119zm-2.119 12.378h9.42v1.753h-9.42zm5.102-.681v-13.451h4.317v1.754h-2.119v9.943h2.119v1.754z"/><path d="m128.365 60.227c-1.937 0-2.722-.314-3.428-1.021-1.047-1.047-1.648-3.114-1.648-8.139s.602-7.092 1.648-8.139c.706-.706 1.491-1.021 3.428-1.021h6.176c1.779 0 2.826.314 3.455.942.941.942 1.281 2.564 1.334 6.307h-2.094c-.053-2.957-.287-4.213-.916-4.841-.418-.419-1.125-.654-2.512-.654h-4.685c-1.491 0-2.067.235-2.538.706-.654.654-1.073 2.067-1.073 6.699s.419 6.045 1.073 6.699c.471.471 1.047.707 2.538.707h4.685c1.387 0 2.094-.236 2.512-.654.629-.628.863-1.885.916-4.842h2.094c-.053 3.742-.393 5.365-1.334 6.307-.629.628-1.676.942-3.455.942h-6.176zm.943-2.434c-1.229 0-1.675-.131-2.067-.523-.602-.576-.942-1.779-.942-6.202s.341-5.626.942-6.202c.393-.393.838-.523 2.067-.523h4.317c1.178 0 1.728.157 2.067.497.497.498.681 1.466.733 4.318h-2.041c-.079-2.225-.158-2.644-.341-2.826-.183-.184-.419-.235-1.229-.235h-2.564c-.812 0-1.047.052-1.23.235-.235.235-.497.812-.497 4.736 0 3.926.262 4.501.497 4.736.184.184.419.235 1.23.235h2.564c.811 0 1.047-.052 1.229-.235.183-.183.262-.602.341-2.826h2.041c-.053 2.853-.236 3.821-.733 4.318-.34.34-.89.497-2.067.497z"/><path d="m159.639 41.908v1.754h-9.42v-1.754zm-7.301 4.188h-2.119v-1.754h4.318v13.451h-4.318v-1.754h2.119zm-2.119 12.378h9.42v1.753h-9.42zm5.102-.681v-13.451h4.317v1.754h-2.119v9.943h2.119v1.754z"/><path d="m181.203 49.471h-1.936v-5.809h-14.472v5.809h-1.937v-7.562h18.344v7.562zm-14.156 6.568h2.381v-9.996h-1.937v3.428h-1.91v-5.129h6.045v13.451h-4.579zm0 4.188v-1.753h9.97v1.753zm9.97-4.188v1.754h-4.579v-13.451h6.045v5.129h-1.91v-3.428h-1.938v9.996z"/><path d="m182.594 57.793v-1.754h1.177l4.083-12.482c.365-1.151 1.02-1.727 2.276-1.727h3.873c1.256 0 1.91.575 2.276 1.727l4.082 12.482h1.178v1.754h-2.931l-4.213-13.006c-.262-.785-.628-1.204-1.388-1.204h-1.988c-.759 0-1.203.393-1.465 1.204l-4.188 13.006zm0 2.434v-1.753h8.19v1.753zm5.023-7.066h8.715l1.465 4.632h-4.841v-1.701h1.937l-.419-1.309h-5.208l-.393 1.309h1.911v1.701h-4.606zm3.507-8.897h1.753c.498 0 .681.366.838.863l2.408 7.354h-8.297l2.382-7.354c.157-.497.393-.863.916-.863zm.603 1.963-1.361 4.658h3.01l-1.361-4.658zm1.229 14v-1.753h8.583v1.753z"/><path d="m213.945 43.662h-9.498v-1.754h9.498zm-7.457 2.434h-2.041v-1.754h4.238v13.451h-4.238v-1.754h2.041zm11.698 6.751h2.041v7.38h-15.779v-1.753h13.738zm-8.715 4.946v-13.451h4.475v1.754h-2.276v9.943h3.716v-3.192h2.016v4.946z"/><path d="m232.658 41.908v1.754h-9.42v-1.754zm-7.301 4.188h-2.119v-1.754h4.317v13.451h-4.317v-1.754h2.119zm-2.119 12.378h9.42v1.753h-9.42zm5.102-.681v-13.451h4.318v1.754h-2.119v9.943h2.119v1.754z"/><path d="m235.564 57.793v-1.754h1.178l4.082-12.482c.366-1.151 1.021-1.727 2.277-1.727h3.873c1.256 0 1.91.575 2.275 1.727l4.083 12.482h1.178v1.754h-2.931l-4.214-13.006c-.261-.785-.628-1.204-1.387-1.204h-1.989c-.758 0-1.203.393-1.465 1.204l-4.188 13.006zm0 2.434v-1.753h8.191v1.753zm5.025-7.066h8.714l1.466 4.632h-4.841v-1.701h1.936l-.418-1.309h-5.208l-.393 1.309h1.911v1.701h-4.606zm3.507-8.897h1.753c.497 0 .681.366.837.863l2.408 7.354h-8.296l2.382-7.354c.156-.497.392-.863.916-.863zm.601 1.963-1.361 4.658h3.01l-1.361-4.658zm1.231 14v-1.753h8.583v1.753z"/><path d="m271.156 52.245v-6.149h-1.806v-1.754h3.794v13.398h-.392c-.576 0-.733-.052-1.544-1.544l-6.281-11.619c-.34-.628-.785-.915-1.622-.915h-5.862v-1.754h6.621c1.256 0 1.779.341 2.329 1.335l2.12 3.873 2.59 5.129zm-13.713 3.794h1.938v-9.943h-1.938v-1.754h4.004v13.451h-4.004zm0 4.188v-1.753h8.715v1.753zm6.779-11.122v6.935h1.937v1.754h-3.926v-13.452h.76c.706 0 .968.21 1.229.681l6.202 11.384c.994 1.831 1.282 2.067 2.067 2.067h1.438v-14.132h3.926v1.754h-1.857v14.131h-4.082c-1.205 0-1.859-.366-2.435-1.387l-2.354-4.214-2.854-5.521zm13.633-5.443h-8.505v-1.754h8.505z"/><path d="m118.682 84.418c-1.047-1.047-1.648-3.114-1.648-8.139s.602-7.092 1.648-8.139c.707-.706 1.492-1.021 3.376-1.021h6.28c1.779 0 2.826.314 3.507.994.916.916 1.229 1.937 1.282 5.286h-2.094c-.053-2.564-.287-3.244-.89-3.847-.444-.444-1.151-.68-2.538-.68h-4.736c-1.492 0-2.067.235-2.539.706-.654.654-1.072 2.067-1.072 6.699s.418 6.045 1.072 6.699c.472.471 1.047.707 2.539.707h4.789c1.309 0 2.015-.184 2.512-.707.654-.654 1.021-1.806 1.021-4.867v-1.597h-6.62v-1.622h8.714v2.486c0 4.422-.497 6.019-1.519 7.039-.758.759-1.753 1.021-3.453 1.021h-6.255c-1.884.003-2.669-.312-3.376-1.018zm8.086-3.114c.733 0 1.021-.052 1.178-.209.184-.184.288-.785.288-2.094v-.184h-3.663v-1.622h5.835v1.073c0 2.616-.262 3.663-.812 4.213-.418.393-.994.523-2.119.523h-4.422c-1.23 0-1.676-.131-2.068-.523-.602-.576-.941-1.779-.941-6.202s.34-5.626.941-6.202c.393-.393.838-.523 2.068-.523h4.369c1.178 0 1.754.157 2.094.497.523.523.681 1.1.707 3.35h-2.041c-.027-1.465-.105-1.753-.289-1.937-.131-.131-.365-.209-1.15-.209h-2.748c-.811 0-1.047.053-1.23.235-.234.235-.496.812-.496 4.789s.262 4.554.496 4.789c.184.184.42.235 1.23.235h2.773z"/><path d="m153.279 81.252h1.282v1.753h-2.46c-.838 0-1.047-.131-1.1-.994l-.131-2.486c-.078-1.675-.522-2.774-2.25-2.905 1.963-.313 2.643-1.413 2.643-3.951 0-1.648-.183-2.486-.758-3.062-.523-.523-1.414-.732-3.141-.732h-10.677v-1.755h12.063c1.57 0 2.853.262 3.559.969.812.811 1.23 1.831 1.23 4.108 0 2.329-.785 3.82-2.198 4.37v.026c1.229.471 1.753 1.151 1.884 3.716zm-16.591 0h1.962v-9.944h-1.962v-1.754h4.239v13.451h-4.239zm0 4.187v-1.753h9.29v1.753zm13.189-15.335c.498.497.576 1.047.576 2.644 0 2.826-1.047 3.532-3.192 3.532h-5.548v-6.726h5.417c1.597 0 2.354.157 2.747.55zm-3.898 11.148v1.753h-4.266v-6.045h5.548c2.093 0 2.722.759 2.826 2.616l.131 2.486c.078 1.309.393 1.623 1.518 1.623h2.826v1.753h-3.611c-1.073 0-1.779-.209-2.198-.628-.549-.55-.759-1.57-.838-3.978-.052-1.204-.131-1.597-.418-1.885-.235-.235-.497-.313-1.492-.313h-2.015v2.617h1.989zm.758-6.647c.759 0 1.021-.026 1.204-.209.234-.235.287-.603.287-1.466 0-.89-.053-1.229-.287-1.466-.158-.156-.445-.209-1.204-.209h-2.748v3.35z"/><path d="m157.128 83.005v-1.753h1.177l4.083-12.483c.366-1.151 1.021-1.727 2.276-1.727h3.873c1.256 0 1.91.575 2.277 1.727l4.082 12.483h1.178v1.753h-2.932l-4.213-13.006c-.262-.785-.628-1.204-1.387-1.204h-1.988c-.76 0-1.204.393-1.466 1.204l-4.187 13.006zm0 2.434v-1.753h8.19v1.753zm5.024-7.066h8.714l1.466 4.632h-4.842v-1.701h1.938l-.42-1.309h-5.207l-.393 1.309h1.91v1.701h-4.605zm3.506-8.897h1.754c.497 0 .681.366.838.863l2.407 7.354h-8.296l2.382-7.354c.157-.497.392-.863.915-.863zm.603 1.963-1.36 4.658h3.009l-1.36-4.658zm1.229 14v-1.753h8.584v1.753z"/><path d="m192.223 82.979c-.209 0-.287-.078-.366-.366l-3.245-12.979c-.131-.523-.287-.759-.89-.759h-8.74v-1.755h9.185c1.676 0 1.963.366 2.408 2.172l1.675 6.987h.104l1.701-6.987c.445-1.806.759-2.172 2.407-2.172h9.106v1.754h-8.74c-.523 0-.759.235-.89.759l-3.245 12.979c-.078.262-.156.366-.366.366h-.104zm-13.242-1.727h1.962v-9.944h-1.962v-1.754h4.134v13.451h-4.134zm0 2.434h8.558v1.753h-8.558zm14.367-.707 3.297-12.953c.079-.341.184-.472.576-.472h3.402v13.451h-3.664v-1.701h1.492v-9.996h-.078l-3.429 12.771c-.262 1.021-.812 1.387-1.911 1.387h-1.518c-1.099 0-1.727-.341-2.015-1.413l-3.376-12.744h-.078v9.996h1.492v1.701h-3.638v-13.452h3.429c.341 0 .472.104.575.472l3.298 12.953c.131.523.419.681.837.681h.472c.419-.001.706-.158.837-.681zm3.611 2.46v-1.753h8.609v1.753zm8.609-4.187v1.753h-4.16v-13.451h4.16v1.754h-1.963v9.944z"/><path d="m222.111 82.979c-.21 0-.288-.078-.367-.366l-3.244-12.98c-.131-.523-.288-.759-.891-.759h-8.74v-1.754h9.186c1.675 0 1.963.366 2.408 2.172l1.674 6.987h.105l1.701-6.987c.444-1.806.758-2.172 2.406-2.172h9.107v1.754h-8.74c-.523 0-.76.235-.891.759l-3.244 12.979c-.078.262-.157.366-.367.366h-.103zm-13.242-1.727h1.963v-9.944h-1.963v-1.754h4.135v13.451h-4.135zm0 2.434h8.558v1.753h-8.558zm14.367-.707 3.297-12.953c.078-.341.184-.472.576-.472h3.402v13.451h-3.664v-1.701h1.491v-9.996h-.078l-3.429 12.771c-.262 1.021-.811 1.387-1.91 1.387h-1.518c-1.1 0-1.727-.341-2.016-1.413l-3.375-12.744h-.078v9.996h1.491v1.701h-3.638v-13.452h3.428c.341 0 .472.104.576.472l3.297 12.953c.131.523.419.681.838.681h.471c.42-.001.708-.158.839-.681zm3.612 2.46v-1.753h8.609v1.753zm8.609-4.187v1.753h-4.161v-13.451h4.161v1.754h-1.963v9.944z"/><path d="m238.365 83.005v-1.753h1.178l4.082-12.483c.366-1.151 1.021-1.727 2.277-1.727h3.873c1.256 0 1.91.575 2.275 1.727l4.083 12.483h1.178v1.753h-2.931l-4.214-13.006c-.261-.785-.628-1.204-1.387-1.204h-1.989c-.758 0-1.203.393-1.465 1.204l-4.188 13.006zm0 2.434v-1.753h8.191v1.753zm5.025-7.066h8.714l1.466 4.632h-4.841v-1.701h1.936l-.418-1.309h-5.208l-.393 1.309h1.911v1.701h-4.606zm3.506-8.897h1.753c.497 0 .681.366.837.863l2.408 7.354h-8.296l2.382-7.354c.157-.497.393-.863.916-.863zm.602 1.963-1.361 4.658h3.01l-1.361-4.658zm1.231 14v-1.753h8.583v1.753z"/><path d="m276.81 81.252h1.282v1.753h-2.46c-.837 0-1.046-.131-1.099-.994l-.131-2.486c-.078-1.675-.523-2.774-2.251-2.905 1.963-.313 2.644-1.413 2.644-3.951 0-1.648-.184-2.486-.76-3.062-.523-.523-1.412-.732-3.14-.732h-10.677v-1.755h12.063c1.57 0 2.853.262 3.56.969.811.811 1.229 1.831 1.229 4.108 0 2.329-.785 3.82-2.198 4.37v.026c1.23.471 1.754 1.151 1.885 3.716zm-16.591 0h1.963v-9.944h-1.963v-1.754h4.239v13.451h-4.239zm0 4.187v-1.753h9.289v1.753zm13.189-15.335c.496.497.575 1.047.575 2.644 0 2.826-1.047 3.532-3.192 3.532h-5.548v-6.726h5.417c1.596 0 2.356.157 2.748.55zm-3.9 11.148v1.753h-4.265v-6.045h5.548c2.094 0 2.721.759 2.826 2.616l.131 2.486c.078 1.309.393 1.623 1.518 1.623h2.826v1.753h-3.611c-1.072 0-1.779-.209-2.198-.628-.55-.55-.759-1.57-.837-3.978-.053-1.204-.131-1.597-.419-1.885-.235-.235-.497-.313-1.491-.313h-2.016v2.617h1.988zm.76-6.647c.759 0 1.021-.026 1.203-.209.236-.235.288-.603.288-1.466 0-.89-.052-1.229-.288-1.466-.156-.156-.444-.209-1.203-.209h-2.748v3.35z"/></g><g fill="#52424d"><path d="m94.725 23.231h2.925l2.82 7.621h-1.644l-.634-1.721h-4.037l-.608 1.721h-1.643zm-.104 4.58h3.093l-1.165-3.209h-.725z"/><path d="m106.371 23.231h1.812l4.089 5.331h.078v-5.331h1.539v7.621h-1.694l-4.192-5.474h-.078v5.474h-1.553v-7.621z"/><path d="m128.111 23.231h1.578v7.621h-1.578z"/><path d="m136.496 23.231h1.812l4.089 5.331h.077v-5.331h1.54v7.621h-1.695l-4.192-5.474h-.077v5.474h-1.553v-7.621z"/><path d="m153.047 24.628h-3.002l.051-1.397h7.467l.052 1.397h-3.002v6.224h-1.565v-6.224z"/><path d="m163.632 23.231h3.791c2.187 0 3.325.737 3.325 2.562 0 1.32-.673 2.045-1.992 2.407l2.471 2.601v.052h-1.979l-2.147-2.433h-1.877v2.433h-1.591v-7.622zm3.946 3.83c1.1 0 1.578-.401 1.578-1.242 0-.828-.479-1.242-1.578-1.242h-2.355v2.484z"/><path d="m176.533 27.073c0-2.458 1.721-4.076 4.335-4.076 2.627 0 4.321 1.565 4.321 4.037 0 2.459-1.721 4.076-4.348 4.076-2.612 0-4.308-1.565-4.308-4.037zm7.039-.012c0-1.67-1.112-2.652-2.717-2.652-1.631 0-2.705.97-2.705 2.639 0 1.67 1.101 2.641 2.718 2.641s2.704-.947 2.704-2.628z"/><path d="m191.453 23.231h3.74c2.51 0 3.972 1.436 3.972 3.804 0 2.355-1.462 3.817-3.972 3.817h-3.74zm3.584 6.25c1.683 0 2.498-.79 2.498-2.42 0-1.617-.815-2.459-2.484-2.459h-2.006v4.879z"/><path d="m205.247 27.889v-4.658h1.592v4.58c0 1.359.983 1.824 2.109 1.824 1.139 0 2.147-.439 2.147-1.772v-4.632h1.579v4.606c0 2.329-1.644 3.196-3.753 3.196-2.082 0-3.674-.867-3.674-3.144z"/><path d="m218.757 27.047c0-2.174 1.565-3.984 4.36-3.984 1.295 0 2.304.414 2.964.918v1.553h-.013c-.881-.646-1.863-1.074-2.951-1.074-1.656 0-2.742 1.126-2.742 2.588 0 1.488.893 2.602 2.742 2.602 1.152 0 2.109-.466 2.951-1.062h.013v1.565c-.569.389-1.669.894-3.067.894-2.899-.001-4.257-1.8-4.257-4z"/><path d="m234.608 24.628h-3.002l.052-1.397h7.466l.052 1.397h-3.002v6.224h-1.565v-6.224z"/><path d="m245.232 23.231h1.579v7.621h-1.579z"/><path d="m253.074 27.073c0-2.458 1.721-4.076 4.335-4.076 2.627 0 4.321 1.565 4.321 4.037 0 2.459-1.721 4.076-4.348 4.076-2.612 0-4.308-1.565-4.308-4.037zm7.039-.012c0-1.67-1.112-2.652-2.717-2.652-1.631 0-2.705.97-2.705 2.639 0 1.67 1.101 2.641 2.718 2.641 1.617-.001 2.704-.947 2.704-2.628z"/><path d="m267.994 23.231h1.812l4.089 5.331h.078v-5.331h1.539v7.621h-1.694l-4.192-5.474h-.078v5.474h-1.553v-7.621z"/></g></g></svg>