<svg enable-background="new 0 0 304 109.222" height="109.222" viewBox="0 0 304 109.222" width="304" xmlns="http://www.w3.org/2000/svg"><g id="background"><rect fill="#f5f5f5" height="14521.144" width="1887.98" x="-100" y="-12688.144"/></g><g id="art"><g><rect fill="#4183d2" height="109.222" width="304"/><g fill="#b6cee9"><path d="m53.905 35.698v-14.835h1.401v16.075h-1.998l-19.083-14.904v14.904h-1.424v-16.075h2.067z"/><path d="m87.276 23.229c1.4 1.401 2.066 3.33 2.066 5.673 0 2.319-.666 4.225-2.066 5.648-1.539 1.516-4.547 2.848-10.518 2.848s-9.002-1.309-10.518-2.824c-1.424-1.424-2.067-3.353-2.067-5.672 0-2.343.666-4.249 2.067-5.649 1.539-1.539 4.547-2.848 10.518-2.848s9.002 1.308 10.518 2.824zm-19.91.803c-1.171 1.172-1.745 2.642-1.745 4.869s.62 3.697 1.768 4.868c1.309 1.309 4.134 2.434 9.37 2.434 5.213 0 8.038-1.102 9.37-2.434 1.148-1.148 1.768-2.641 1.768-4.868s-.574-3.697-1.745-4.869c-1.378-1.354-4.157-2.434-9.393-2.434s-8.015 1.08-9.393 2.434z"/><path d="m111.186 20.863c4.776 0 6.315.551 7.372 1.585.873.872 1.24 1.997 1.24 3.353 0 1.354-.367 2.457-1.24 3.33-.988.987-2.595 1.722-7.05 1.745l10.15 5.993v.069h-2.228l-10.15-6.062h-9.645v6.062h-1.424v-16.075zm-11.551 8.819h11.528c3.95 0 5.488-.528 6.338-1.378.597-.597.873-1.424.873-2.48 0-1.033-.275-1.883-.918-2.525-.85-.85-2.319-1.218-6.269-1.218h-11.552z"/><path d="m150.045 34.366c-1.378 1.355-4.134 2.572-9.852 2.572h-10.655v-16.075h10.655c5.718 0 8.474 1.217 9.852 2.572 1.447 1.446 2.113 3.284 2.113 5.466s-.666 4.019-2.113 5.465zm-9.875 1.356c4.96 0 7.602-.965 8.818-2.182 1.057-1.08 1.723-2.504 1.723-4.639 0-2.136-.666-3.56-1.723-4.64-1.217-1.217-3.858-2.182-8.818-2.182h-9.208v13.642h9.208z"/><path d="m179.168 34.527c.551-.552.735-1.24.735-1.929 0-.666-.115-1.286-.597-1.792-.643-.643-2.044-1.125-8.75-1.424-6.407-.321-8.588-.872-9.576-1.859-.597-.62-.873-1.47-.873-2.389 0-.987.276-1.952 1.01-2.687 1.103-1.103 3.514-1.906 8.888-1.906 4.34 0 7.922.758 10.058 1.492v1.286c-2.526-.896-6.269-1.584-10.058-1.584-5.029 0-6.936.62-7.785 1.47-.459.459-.666 1.102-.666 1.837 0 .712.207 1.24.597 1.607.735.734 2.549 1.171 8.704 1.47 7.05.345 8.635.896 9.599 1.86.666.666.873 1.584.873 2.525 0 .965-.275 2.021-1.01 2.756-.942.941-2.871 1.998-9.393 1.998-4.708 0-8.795-.78-11.391-1.837v-1.286c2.549 1.057 7.073 1.952 11.437 1.952 5.855.002 7.509-.871 8.198-1.56z"/><path d="m191.916 20.863v7.326h5.19l12.217-7.326h2.228v.023l-13.228 7.922 13.457 8.106v.023h-2.342l-12.401-7.51h-5.121v7.51h-1.401v-16.074z"/><path d="m240.65 23.229c1.4 1.401 2.066 3.33 2.066 5.673 0 2.319-.666 4.225-2.066 5.648-1.539 1.516-4.547 2.848-10.518 2.848s-9.002-1.309-10.518-2.824c-1.424-1.424-2.067-3.353-2.067-5.672 0-2.343.666-4.249 2.067-5.649 1.539-1.539 4.547-2.848 10.518-2.848s9.002 1.308 10.518 2.824zm-19.91.803c-1.171 1.172-1.745 2.642-1.745 4.869s.62 3.697 1.768 4.868c1.309 1.309 4.134 2.434 9.37 2.434 5.213 0 8.038-1.102 9.37-2.434 1.148-1.148 1.768-2.641 1.768-4.868s-.574-3.697-1.745-4.869c-1.378-1.354-4.157-2.434-9.393-2.434s-8.015 1.08-9.393 2.434z"/><path d="m261.85 37.03h-1.837l-11.689-16.167h1.722l10.908 15.202 10.931-15.202h1.676z"/></g><g fill="#b6cee9"><path d="m52.355 85.904c.551-.552.735-1.24.735-1.929 0-.666-.115-1.286-.597-1.792-.643-.643-2.044-1.125-8.75-1.424-6.407-.321-8.588-.872-9.576-1.859-.597-.62-.873-1.47-.873-2.389 0-.987.276-1.952 1.01-2.687 1.103-1.103 3.514-1.906 8.888-1.906 4.34 0 7.922.758 10.058 1.492v1.286c-2.526-.896-6.269-1.584-10.058-1.584-5.029 0-6.936.62-7.785 1.47-.459.459-.666 1.102-.666 1.837 0 .712.207 1.24.597 1.607.735.734 2.549 1.171 8.704 1.47 7.05.345 8.635.896 9.599 1.86.666.666.873 1.584.873 2.525 0 .965-.275 2.021-1.01 2.756-.942.941-2.871 1.998-9.393 1.998-4.708 0-8.795-.78-11.391-1.837v-1.286c2.549 1.057 7.073 1.952 11.437 1.952 5.856.002 7.509-.871 8.198-1.56z"/><path d="m63.979 74.721c1.516-1.539 4.501-2.871 10.127-2.871s8.634 1.332 10.15 2.848c1.4 1.401 2.089 3.307 2.089 5.581 0 2.273-.689 4.156-2.089 5.557-1.539 1.516-4.524 2.871-10.15 2.871s-8.635-1.332-10.15-2.848c-1.401-1.401-2.09-3.307-2.09-5.58 0-2.275.689-4.158 2.113-5.558zm.183 9.116 19.198-8.061-.344-.367c-1.286-1.286-3.996-2.365-8.91-2.365-4.892 0-7.625 1.079-8.91 2.365-1.24 1.24-1.883 2.71-1.883 4.869 0 1.447.275 2.595.849 3.559zm19.864-7.142-19.175 8.106.345.345c1.286 1.286 3.996 2.365 8.91 2.365s7.624-1.079 8.933-2.365c1.217-1.217 1.883-2.71 1.883-4.868 0-1.447-.298-2.595-.896-3.583z"/><path d="m108.189 72.24c4.776 0 6.315.551 7.372 1.585.873.872 1.24 1.997 1.24 3.353 0 1.354-.367 2.457-1.24 3.33-.988.987-2.595 1.722-7.05 1.745l10.15 5.993v.069h-2.228l-10.15-6.062h-9.645v6.062h-1.424v-16.075zm-11.551 8.819h11.528c3.95 0 5.488-.528 6.338-1.378.597-.597.873-1.424.873-2.48 0-1.033-.275-1.883-.918-2.525-.85-.85-2.319-1.218-6.269-1.218h-11.552z"/><path d="m146.657 79.589v1.194h-18.693v6.315h19.015v1.217h-20.438v-16.075h20.438v1.217h-19.015v6.132z"/><path d="m177.043 87.075v-14.835h1.401v16.075h-1.998l-19.083-14.904v14.904h-1.424v-16.075h2.067z"/><path d="m207.13 85.904c.551-.552.735-1.24.735-1.929 0-.666-.115-1.286-.597-1.792-.643-.643-2.044-1.125-8.75-1.424-6.407-.321-8.588-.872-9.576-1.859-.597-.62-.873-1.47-.873-2.389 0-.987.275-1.952 1.011-2.687 1.102-1.103 3.513-1.906 8.887-1.906 4.34 0 7.922.758 10.058 1.492v1.286c-2.526-.896-6.269-1.584-10.058-1.584-5.029 0-6.936.62-7.785 1.47-.459.459-.666 1.102-.666 1.837 0 .712.207 1.24.597 1.607.735.734 2.549 1.171 8.704 1.47 7.05.345 8.634.896 9.599 1.86.666.666.873 1.584.873 2.525 0 .965-.275 2.021-1.01 2.756-.942.941-2.871 1.998-9.393 1.998-4.708 0-8.795-.78-11.391-1.837v-1.286c2.549 1.057 7.073 1.952 11.437 1.952 5.856.002 7.509-.871 8.198-1.56z"/><path d="m238.342 79.589v1.194h-18.693v6.315h19.015v1.217h-20.438v-16.075h20.438v1.217h-19.015v6.132z"/><path d="m268.727 87.075v-14.835h1.401v16.075h-1.998l-19.083-14.904v14.904h-1.424v-16.075h2.067z"/></g><g fill="#d7e6f4"><path d="m58.319 50.998h3.924c1.825 0 2.75.95 2.75 2.512 0 1.737-1.125 2.612-2.862 2.612h-2.562v2.149h-1.25zm3.812 4.049c1.125 0 1.612-.612 1.612-1.486 0-.95-.513-1.487-1.637-1.487h-2.537v2.974h2.562z"/><path d="m69.057 50.998h3.662c2 0 3.037.725 3.037 2.375 0 1.249-.662 1.975-1.962 2.274l2.325 2.587v.037h-1.562l-2.087-2.462h-2.162v2.462h-1.25v-7.273zm3.774 3.749c1.163 0 1.662-.487 1.662-1.35 0-.85-.5-1.337-1.662-1.337h-2.524v2.687z"/><path d="m79.569 54.66c0-2.35 1.65-3.887 4.124-3.887 2.475 0 4.099 1.487 4.099 3.849 0 2.35-1.649 3.887-4.124 3.887-2.474 0-4.099-1.488-4.099-3.849zm6.936-.013c0-1.737-1.15-2.762-2.824-2.762-1.687 0-2.824 1.012-2.824 2.749s1.137 2.762 2.824 2.762 2.824-1.011 2.824-2.749z"/><path d="m92.156 50.998h3.449c2.462 0 3.836 1.375 3.836 3.624 0 2.25-1.375 3.649-3.836 3.649h-3.449zm3.324 6.187c1.812 0 2.674-.888 2.674-2.537s-.862-2.574-2.662-2.574h-2.087v5.111z"/><path d="m103.581 55.435v-4.437h1.25v4.374c0 1.45.987 1.975 2.212 1.975 1.274 0 2.274-.5 2.274-1.937v-4.412h1.237v4.399c0 2.212-1.5 3.049-3.524 3.049-1.999 0-3.449-.837-3.449-3.011z"/><path d="m115.256 50.998h1.25v3.012h1.637l2.737-3.012h1.438l-3.187 3.499 3.349 3.762v.013h-1.512l-2.887-3.187h-1.575v3.187h-1.25z"/><path d="m128.53 52.098h-3.024l.05-1.1h7.198l.05 1.1h-3.024v6.174h-1.25z"/><path d="m144.217 50.998h2.487l2.787 7.273h-1.3l-.662-1.75h-4.162l-.65 1.75h-1.3zm-.462 4.474h3.375l-1.312-3.398h-.737z"/><path d="m153.48 50.998h6.048l.062 1.075h-4.861v2.111h4.074v1.088h-4.074v2.999h-1.25v-7.273z"/><path d="m169.08 50.998h3.449c2.462 0 3.836 1.375 3.836 3.624 0 2.25-1.375 3.649-3.836 3.649h-3.449zm3.324 6.187c1.812 0 2.674-.888 2.674-2.537s-.862-2.574-2.662-2.574h-2.087v5.111z"/><path d="m182.517 50.998h2.487l2.787 7.273h-1.3l-.662-1.75h-4.162l-.65 1.75h-1.3zm-.463 4.474h3.375l-1.312-3.398h-.737z"/><path d="m191.779 50.998h1.5l4.249 5.499h.113v-5.499h1.212v7.273h-1.412l-4.336-5.611h-.1v5.611h-1.225v-7.273z"/><path d="m203.679 50.998h1.537l2.787 4.687 2.75-4.687h1.537v7.273h-1.2v-5.511h-.1l-2.974 4.974h-.087l-2.937-4.949h-.1v5.486h-1.212v-7.273z"/><path d="m219.079 50.998h2.487l2.787 7.273h-1.3l-.662-1.75h-4.162l-.65 1.75h-1.3zm-.463 4.474h3.375l-1.312-3.398h-.737z"/><path d="m228.341 50.998h3.662c2 0 3.037.725 3.037 2.375 0 1.249-.662 1.975-1.962 2.274l2.325 2.587v.037h-1.562l-2.087-2.462h-2.162v2.462h-1.25v-7.273zm3.774 3.749c1.163 0 1.662-.487 1.662-1.35 0-.85-.5-1.337-1.662-1.337h-2.524v2.687z"/><path d="m239.416 50.998h1.25v3.012h1.637l2.737-3.012h1.438l-3.187 3.499 3.349 3.762v.013h-1.512l-2.887-3.187h-1.575v3.187h-1.25z"/></g></g></g><g id="guides"/></svg>