<svg enable-background="new 0 0 304 109.222" height="109.222" viewBox="0 0 304 109.222" width="304" xmlns="http://www.w3.org/2000/svg"><g id="background"><rect fill="#f5f5f5" height="14521.144" width="1887.98" x="-756" y="-12688.144"/></g><g id="art"><g><rect fill="#f07269" height="109.222" width="304"/><g><g fill="#efd34b"><path d="m37.314 25.902c.326-.326.796-.471 1.267-.471s.977.145 1.339.398h.398c1.05 0 1.955.037 2.606.109 1.158.18 1.81.939 1.81 1.664 0 .688-.579 1.34-1.701 1.412-.688.072-1.628.18-2.714.254-.434 3.908-.108 11.111-.471 14.26-.217 1.881-1.013 2.605-1.81 2.605-.76 0-1.448-.65-1.556-1.484-.217-.506-.29-1.266-.29-2.207 0-.508 0-1.086.036-1.738.036-2.967-.036-7.816.217-11.184-.543.072-1.086.109-1.629.145-.217.688-1.303.471-1.882.109-.833-.434-1.267-1.195-1.267-1.918 0-.76.471-1.447 1.448-1.594 1.231-.178 2.715-.287 4.199-.36z"/><path d="m47.776 23.08c1.05 0 2.135.939 2.027 3.039-.109 1.449-.145 3.656-.145 6.082 1.231-1.738 2.751-2.932 4.163-2.932 2.57 0 3.185 2.352 3.076 6.695-.036 1.121-.072 2.207-.072 3.221 0 2.316.109 4.271.181 5.066-.072 1.014-.941 1.594-1.846 1.594-.833 0-1.701-.508-1.882-1.594-.145-.795-.181-2.025-.181-3.4 0-1.848.072-3.873.036-5.25 0-1.846-.108-2.389-.688-2.389-.688 0-1.882 1.484-2.823 3.693 0 1.664-.036 3.184-.072 4.414-.072 1.955-.217 3.295-.724 3.982-.398.506-.941.723-1.484.723-1.013 0-1.954-.795-1.665-1.99.253-1.99.29-5.211.29-8.469v-5.357c0-2.062 0-3.908.108-5.066-.072-1.302.797-2.062 1.701-2.062z"/><path d="m63.885 46.207c-2.461-.072-4.777-2.461-4.777-7.094-.036-5.104 2.171-10.062 5.936-10.098 2.968 0 4.307 3.33 4.271 6.84.217 2.389-1.448 3.691-5.899 3.475-.326 0-.616-.035-.905-.072.145 2.57 1.085 3.512 2.171 3.547.869 0 1.737-.434 3.041-1.773.941-.832 1.556-.506 1.556.398 0 .688-.362 1.738-1.303 2.75-1.051 1.304-2.607 2.064-4.091 2.027zm-1.231-9.664c.543 0 1.014.037 1.375.037 1.592 0 2.099-.217 2.099-1.34 0-1.086-.362-2.859-1.23-2.859s-1.846 1.738-2.244 4.162z"/></g></g><g><g fill="#efd34b"><path d="m215.677 31.006c.76-1.086 1.954-1.883 3.366-1.955 3.691-.145 4.886 4.344 4.886 8.289 0 .615-.036 1.195-.072 1.773-.435 4.523-2.497 7.021-5.791 6.949-3.33-.037-4.995-3.584-4.959-7.492.037-2.75.579-4.814 1.593-6.66.325-.506.651-.795.977-.904zm2.715 11.836c1.085.035 1.81-1.34 2.026-4.525.145-2.895-.289-5.609-1.629-5.719-.615 0-1.23.688-1.773 1.738-.289 1.303-.471 2.461-.397 4.451.071 2.57.651 3.983 1.773 4.055z"/><path d="m227.479 29.738c0-.506.036-1.012.036-1.482.072-3.693 1.701-5.141 4.054-5.213 1.99-.035 3.619.977 3.583 2.354-.036.904-.507 1.52-1.194 1.664-1.014.182-1.737-.434-2.533-.65-.29.252-.362.795-.362 1.482 0 .508.036 1.158.108 1.773.797 0 1.484 0 1.918.037.978.072 1.593.76 1.593 1.447 0 .543-.397 1.086-1.303 1.34-.29.18-1.158.326-2.208.471-.072 4.125-.072 9.301-.361 12.053-.109.832-.761 1.266-1.484 1.266-.978 0-1.99-.76-1.954-2.389 0-1.086-.036-2.461-.036-4.125v-1.268c.036-1.664.036-3.475.072-5.213-.435 0-.797 0-1.086-.035-1.194-.072-1.773-.977-1.773-1.811 0-.688.397-1.375 1.086-1.52.431-.071 1.12-.108 1.844-.181z"/><path d="m238.194 31.332c0-.543.254-1.051.724-1.268.398-.217 1.086-.326 1.955-.361.217-1.195.615-2.354.868-2.932.254-.543.833-.832 1.448-.832.904 0 1.882.723 1.773 2.424-.036.471-.072.906-.072 1.303.615 0 1.267 0 1.918-.035 1.086-.037 1.737.145 1.773.977.072.797-.651 1.666-1.81 1.918-.688.219-1.23.326-2.172.398-.217 3.33-.398 5.684-.398 7.203 0 1.266.109 1.955.362 2.135.507.363 1.086-.615 2.1-2.172.688-.939 1.629-.977 1.81 0 .181.615.108 1.521-.362 2.535-.796 1.846-2.605 3.943-4.705 3.619-2.1-.363-2.751-2.498-2.751-6.551 0-1.811.146-3.945.326-6.516-.362 0-.688.035-1.014.035-1.157.001-1.773-.976-1.773-1.88z"/><path d="m252.239 23.08c1.049 0 2.135.939 2.026 3.039-.108 1.449-.145 3.656-.145 6.082 1.23-1.738 2.751-2.932 4.162-2.932 2.57 0 3.186 2.352 3.076 6.695-.036 1.121-.072 2.207-.072 3.221 0 2.316.108 4.271.182 5.066-.073 1.014-.941 1.594-1.847 1.594-.832 0-1.701-.508-1.882-1.594-.145-.795-.181-2.025-.181-3.4 0-1.848.072-3.873.036-5.25 0-1.846-.108-2.389-.688-2.389-.688 0-1.883 1.484-2.823 3.693 0 1.664-.036 3.184-.072 4.414-.072 1.955-.218 3.295-.725 3.982-.397.506-.94.723-1.483.723-1.014 0-1.954-.795-1.665-1.99.253-1.99.29-5.211.29-8.469v-5.357c0-2.062 0-3.908.108-5.066-.07-1.302.798-2.062 1.703-2.062z"/><path d="m268.348 46.207c-2.461-.072-4.777-2.461-4.777-7.094-.036-5.104 2.171-10.062 5.936-10.098 2.968 0 4.307 3.33 4.271 6.84.218 2.389-1.447 3.691-5.899 3.475-.326 0-.615-.035-.905-.072.146 2.57 1.086 3.512 2.172 3.547.869 0 1.737-.434 3.04-1.773.941-.832 1.557-.506 1.557.398 0 .688-.361 1.738-1.303 2.75-1.052 1.304-2.609 2.064-4.092 2.027zm-1.231-9.664c.543 0 1.013.037 1.375.037 1.593 0 2.1-.217 2.1-1.34 0-1.086-.362-2.859-1.23-2.859-.87 0-1.847 1.738-2.245 4.162z"/></g></g><g><g fill="#efd34b"><path d="m79.243 45.328v-6.457h.034c3.935 1.984 7.769 2.959 11.098 2.959 2.522 0 3.8-.605 3.8-1.782s-.841-1.479-5.885-2.287c-5.516-.874-9.181-2.521-9.181-7.264 0-4.405 3.868-7.803 11.434-7.803 3.027 0 6.188.64 9.114 1.884v6.39l-.034.034c-2.792-1.615-6.558-2.624-9.585-2.624-2.69 0-3.767.64-3.767 1.716 0 1.379 1.648 1.513 5.785 2.22 5.515.941 9.181 2.488 9.181 7.466 0 3.867-2.893 7.734-11.199 7.734-4.102 0-7.364-.841-10.795-2.186z"/><path d="m125.085 37.257c0 .639-.067 1.312-.134 1.95h-13.015c.471 2.254 2.253 3.128 5.146 3.128 2.152 0 4.809-.74 6.76-1.782h.034v5.213c-2.085 1.042-4.809 1.748-7.668 1.748-7.062 0-11.031-3.564-11.031-9.551 0-6.087 4.17-10.358 10.392-10.358 6.321-.001 9.516 4.069 9.516 9.652zm-13.116-1.379h7.13c-.202-1.95-1.446-3.296-3.531-3.296-2.052 0-3.195 1.278-3.599 3.296z"/><path d="m128.889 37.862c0-5.986 4.541-10.19 10.896-10.19 2.556 0 4.742.572 6.491 1.715v5.785h-.034c-1.715-1.244-3.699-1.951-5.65-1.951-2.792 0-4.843 1.716-4.843 4.474 0 2.69 2.018 4.237 4.809 4.237 2.085 0 3.968-.673 5.684-1.917h.034v5.784c-1.816 1.109-4.036 1.715-6.524 1.715-6.356 0-10.863-3.464-10.863-9.652z"/><path d="m151.526 28.277h6.86v3.396c1.345-2.22 3.161-3.834 5.28-3.834.202 0 .404 0 .74.034v6.928c-.538-.101-1.009-.101-1.446-.101-2.085 0-3.699.571-4.54 1.85v10.324h-6.894z"/><path d="m187.479 37.257c0 .639-.067 1.312-.134 1.95h-13.015c.471 2.254 2.253 3.128 5.146 3.128 2.152 0 4.809-.74 6.76-1.782h.034v5.213c-2.085 1.042-4.809 1.748-7.668 1.748-7.062 0-11.031-3.564-11.031-9.551 0-6.087 4.17-10.358 10.392-10.358 6.321-.001 9.516 4.069 9.516 9.652zm-13.116-1.379h7.13c-.202-1.95-1.446-3.296-3.531-3.296-2.052 0-3.195 1.278-3.599 3.296z"/><path d="m194.411 33.39h-3.968l.908-5.112h3.06v-4.238l6.793-.808v5.045h4.002v5.112h-4.002v13.485h-6.793z"/></g></g><g><g fill="#efd34b"><path d="m34.2 62.062h13.721c6.255 0 9.316 2.959 9.316 8.441 0 3.767-1.547 6.322-4.574 7.533l5.583 7.566h-8.004l-4.338-6.188h-4.641v6.188h-7.063zm12.814 11.838c2.354 0 3.195-1.312 3.195-3.094 0-1.783-.841-3.061-3.195-3.061h-5.751v6.155z"/><path d="m61.58 76.321c0-5.885 4.002-9.988 10.627-9.988s10.661 4.104 10.661 9.988c0 5.852-4.036 9.955-10.661 9.955s-10.627-4.103-10.627-9.955zm14.595 0c0-2.825-1.479-4.641-3.968-4.641-2.455 0-3.935 1.815-3.935 4.641s1.479 4.642 3.935 4.642c2.489 0 3.968-1.817 3.968-4.642z"/><path d="m107.624 85.604h-6.659l-.067-2.455c-1.345 1.816-3.195 3.061-5.986 3.061-4.843 0-8.206-3.599-8.206-9.35 0-6.222 4.271-10.357 9.82-10.357 1.749 0 3.027.336 4.237.941v-7.938h6.861zm-14.058-9.148c0 2.825 1.614 4.372 3.901 4.372 1.278 0 2.421-.471 3.296-1.177v-6.962c-.875-.538-1.782-.874-2.926-.874-2.523 0-4.271 1.648-4.271 4.641z"/><path d="m132.446 75.985c0 .639-.067 1.312-.134 1.95h-13.015c.471 2.254 2.253 3.128 5.146 3.128 2.152 0 4.809-.74 6.76-1.782h.034v5.213c-2.085 1.042-4.809 1.748-7.668 1.748-7.062 0-11.031-3.564-11.031-9.551 0-6.087 4.17-10.358 10.392-10.358 6.321 0 9.516 4.069 9.516 9.652zm-13.115-1.379h7.13c-.202-1.95-1.446-3.296-3.531-3.296-2.053.001-3.196 1.279-3.599 3.296z"/><path d="m136.251 76.321c0-5.885 4.002-9.988 10.627-9.988s10.661 4.104 10.661 9.988c0 5.852-4.036 9.955-10.661 9.955s-10.627-4.103-10.627-9.955zm14.595 0c0-2.825-1.479-4.641-3.968-4.641-2.455 0-3.935 1.815-3.935 4.641s1.479 4.642 3.935 4.642c2.489 0 3.968-1.817 3.968-4.642z"/></g></g><g><g fill="#efd34b"><path d="m167.41 76.483c.701-1.303 1.503-2.029 2.405-2.004 1.277.024 2.58 1.378 2.58 4.71s-1.202 6.99-3.708 6.99c-.626 0-1.328-.226-2.13-.752-.275.226-.576.352-.852.352-.426 0-.802-.276-.927-.752-.05-.275-.101-.651-.101-1.077 0-.752.101-1.704.301-2.682v-5.061c0-1.93.025-3.558.15-4.535.125-.901.752-1.328 1.353-1.328.777 0 1.504.677 1.178 1.854-.149.803-.199 2.507-.249 4.285zm-.075 7.041c.325.149.651.275 1.002.325 1.203 0 1.729-2.305 1.729-4.209 0-1.152-.2-2.18-.551-2.48-.526-.477-1.203.476-2.13 3.207v.25 1.904c0 .376 0 .703-.05 1.003z"/><path d="m174.699 74.729c.701.075 1.277.602 1.479 2.28.175 1.479.551 4.284.877 6.063.024-.075.05-.176.075-.251.651-2.305 1.252-4.686 1.528-6.013-.627-1.103.776-2.581 1.778-2.456.501.075.827.477.827 1.278 0 .301-.025.651-.125 1.052-.526 2.105-1.103 4.41-1.754 6.489-.902 3.032-1.93 5.337-3.207 6.69-.526.551-1.152.776-1.679.776-.702 0-1.228-.376-1.228-.952 0-.477.351-1.103 1.327-1.729.552-.576 1.053-1.303 1.479-2.205-.426-.05-.852-.477-1.077-1.403-.602-2.18-1.203-5.662-1.429-7.642-.324-1.25.278-2.102 1.129-1.977z"/><path d="m189.154 72.023c.676 0 1.378.501 1.428 1.629.05 1.228.075 2.756.075 4.31 0 1.353-.025 2.681-.05 3.809-.101 3.182-1.729 4.534-3.633 4.534-1.554 0-2.431-.776-2.556-1.679-.126-.776.4-1.478 1.228-1.478.626 0 1.303.275 1.578.676.426-.175.701-.701.752-1.954.024-.677.024-1.578.024-2.53 0-2.18-.05-4.686-.075-5.863-.149-.902.527-1.454 1.229-1.454z"/><path d="m195.416 80.092c.025 1.954.226 3.683 1.554 3.708 1.152-.126 1.453-1.278 1.528-3.282.05-1.077.05-2.255.05-3.332v-2.781c.051-1.403.301-2.306 1.027-2.431.853-.125 1.654.626 1.453 2.154.025 1.003.075 3.032.075 4.836 0 .651 0 1.278-.024 1.804-.101 3.032-1.354 5.537-4.31 5.537-3.157 0-4.06-3.081-4.06-6.789.025-2.205.276-4.836.552-5.988.275-1.027.852-1.429 1.403-1.429.45 0 .877.251 1.152.602.226.275.325.677.325 1.077 0 .552-.2 1.128-.45 1.429-.174.926-.299 2.88-.275 4.885z"/><path d="m203.056 85.077c0-.325.15-.677.376-.877.051-.776.075-2.305.101-3.558v-.827c0-1.102-.025-2.255-.025-3.307 0-.627 0-1.253.025-1.829-.125-.15-.2-.376-.2-.627 0-.45.2-.951.551-1.202.376-.802.978-.952 1.503-.877.176.025.326.101.427.176.351-.051.727-.075 1.102-.051 3.232.101 4.61 3.057 4.561 6.139-.025 4.059-2.706 8.318-7.392 7.942-.729-.124-1.029-.601-1.029-1.102zm2.882-1.453c.1-.024.175-.075.275-.1 1.704-.677 2.581-2.757 2.605-5.388.025-2.229-.776-3.708-2.129-3.708-.176 0-.326 0-.502.025-.024.251-.05.526-.075.802-.024.426-.05.978-.05 1.653 0 .877.025 1.88.025 2.906.001 1.43-.024 2.833-.149 3.81z"/><path d="m213.753 73.552c-.025-.05-.025-.125-.025-.2 0-.576.351-1.127.977-1.152.201-.101.427-.15.627-.15.226 0 .426.075.602.2.525 0 1.077.025 1.604.025.551 0 1.052-.025 1.353-.05.902-.075 1.403.525 1.403 1.127 0 .477-.326.927-1.002 1.053-.477.1-1.854.2-3.032.2h-.024c-.075.877-.101 2.055-.101 3.332.977 0 1.929-.05 2.405-.024.626.024 1.027.551 1.027 1.077 0 .376-.226.776-.802.952-.226.175-1.504.275-2.631.301-.025 1.402-.05 2.655-.2 3.457 1.228.05 2.556-.075 3.081-.075.853.05 1.278.477 1.278.952 0 .501-.477 1.053-1.403 1.278-.727.2-1.954.325-3.007.325-.525 0-1.002-.025-1.378-.101-.952-.175-1.328-.626-1.328-1.327 0-.226.051-.477.126-.752.175-.927.2-2.53.2-4.209v-.126c-.2-.25-.275-.551-.275-.852 0-.325.1-.651.275-.852v-.376c0-1.604.025-3.057.176-3.758.023-.099.049-.175.074-.275z"/><path d="m229.735 78.438c.526 0 1.053.025 1.479.126.902.175 1.328.701 1.178 1.854-.025.677-.05 1.403-.075 2.029.075.15.101.301.101.477 0 .15-.025.301-.075.476v.025c.05.827-.426 1.228-.928 1.228-.951 1.002-2.029 1.704-3.307 1.679-2.28-.025-3.759-2.38-3.884-5.988-.15-5.011 2.005-8.343 4.811-8.394 1.128 0 2.005.427 2.581 1.078s.727 1.378.551 1.929c-.15.576-.476.827-.877.827-.4 0-.852-.275-1.228-.702-.4-.4-.727-.626-1.202-.601-1.027.075-2.105 2.129-2.03 5.862.101 2.255.651 3.458 1.754 3.433.602-.025 1.128-.4 1.679-.877-.075-.701-.075-1.378-.1-1.979 0-.2-.025-.226-.226-.226-.326 0-.651.025-1.053.025-.701-.025-1.127-.626-1.127-1.202 0-.477.275-.928.927-1.027.35-.052.701-.052 1.051-.052z"/><path d="m236.224 71.974c.802 0 1.628.677 1.378 2.079-.351 2.03-.201 8.67-.451 10.824-.101.952-.677 1.378-1.278 1.378-.626 0-1.277-.501-1.252-1.453v-1.253c0-1.328-.025-2.981-.025-4.585 0-2.756.05-5.412.326-6.113.224-.577.75-.877 1.302-.877z"/><path d="m242.736 86.33c-1.729 0-3.132-.701-3.057-1.453-.125-.376.025-.701.326-.902 0-.1 0-.2 0-.301.1-1.202.1-2.63.1-4.059 0-1.754 0-3.508.101-4.86-.125-.176-.2-.451-.2-.727 0-.426.175-.853.601-1.178v-.025c.301-.476.777-.751 1.229-.751.15 0 .3.024.426.1.426-.1.877-.15 1.378-.15 2.431 0 3.833 1.579 3.833 3.408 0 1.303-.676 2.605-1.402 3.282-.101.075-.176.149-.276.2 1.078.651 1.93 1.703 1.93 3.182-.002 2.455-2.132 4.234-4.989 4.234zm-.451-2.431c.352.025.677.025.928 0 1.002-.15 1.929-.802 1.954-1.903 0-1.078-1.253-1.579-2.005-1.854-.226-.05-.4-.15-.551-.251-.05 1.403-.101 2.807-.251 3.709-.024.099-.049.2-.075.299zm1.98-5.636c.025-.101.075-.226.126-.351.375-.652.651-1.403.676-2.055 0-.952-.476-1.479-1.478-1.479-.251 0-.526.05-.802.125-.025.126-.075.226-.101.351-.05.702-.05 1.979-.05 3.383.226-.101.551-.15.927-.101.226.026.476.076.702.127z"/><path d="m251.93 75.757c.025 1.804 4.06 4.059 4.06 7.166 0 1.027-.326 1.778-.877 2.354-.702.677-1.754 1.003-2.731 1.027-.927 0-1.704-.226-2.405-.626-1.528-.752-1.729-1.954-1.328-2.431.201-.451.752-.325 1.679.15.552.326 1.128.501 1.629.501.426 0 .802-.125 1.077-.351.176-.226.301-.476.301-.852 0-1.904-3.908-3.983-3.934-6.891 0-2.029 1.503-3.282 3.132-3.683.451-.101.877-.15 1.253-.15.351 0 .677.025 1.002.101.927.2 1.278.727 1.278 1.252 0 .577-.427 1.178-.978 1.354-.727.2-1.403-.251-1.954-.226-.653.027-1.229.453-1.204 1.305z"/><path d="m259.27 73.552c.551-.977 1.453-1.628 2.631-1.653 2.73-.05 3.732 3.433 3.732 6.74 0 .852-.05 1.679-.175 2.455-.426 2.906-1.453 5.312-4.159 5.262-2.981-.051-4.06-3.408-4.009-6.64.05-2.029.501-4.109 1.453-5.612.175-.251.351-.426.527-.552zm3.732 6.69c.051-.602.101-1.253.101-1.88 0-2.054-.351-3.983-1.353-3.934-.401.025-.702.376-.952.902-.051.251-.126.476-.251.727-.025.075-.05.125-.101.2l-.024.125c-.025.126-.075.226-.125.326-.201.626-.326 1.428-.376 2.455-.025.226-.025.477-.025.752 0 1.653.301 3.884 1.453 3.908 1.052.052 1.453-1.502 1.653-3.581z"/><path d="m269.089 86.18c-.701 0-1.479-.802-1.353-2.154.024-2.029.074-8.018.2-10.474-.025-.977.526-1.453 1.178-1.453.551 0 1.152.351 1.503 1.003 1.002 2.029 2.104 5.061 2.831 7.04.2.526.275.526.251-.075 0-.626-.025-1.328-.025-2.055 0-1.428.025-2.932.101-4.084.075-1.303.802-1.929 1.453-1.929.626 0 1.152.551.952 1.653-.15 2.756-.226 8.093-.352 10.674-.05 1.277-.551 1.778-1.127 1.778-.651 0-1.378-.602-1.729-1.428-.902-2.055-1.829-4.836-2.781-6.966-.025 1.729-.05 4.485-.05 6.54.126 1.328-.426 1.93-1.052 1.93z"/></g></g></g></g><g id="guides"/></svg>