<svg enable-background="new 0 0 304 109.222" height="109.222" viewBox="0 0 304 109.222" width="304" xmlns="http://www.w3.org/2000/svg" xmlns:xlink="http://www.w3.org/1999/xlink"><defs><rect id="SVGID_52_" height="109.222" width="304"/><clipPath id="SVGID_5_"><use xlink:href="#SVGID_52_"/></clipPath></defs><g id="background"><rect fill="#f5f5f5" height="14521.144" width="1887.98" x="-1084" y="-12688.144"/></g><g id="art"><g><use fill="#1c4d97" xlink:href="#SVGID_52_"/><rect clip-path="url(#SVGID_5_)" fill="#1c4d97" height="109.222" width="304"/><g clip-path="url(#SVGID_5_)"><g fill="#cde1f5"><path d="m32.852 73.041c.633 0 .808.109 1.004.698l3.622 10.146c.087.219.153.306.327.306.175 0 .218-.087.306-.306l4.015-10.845h5.521v15.274h-3.862v-11.214c0-.196-.044-.283-.218-.283-.153 0-.218.087-.284.262l-3.906 10.539c-.218.589-.349.698-1.004.698h-3.164l-4.037-11.237c-.065-.175-.131-.262-.284-.262-.152 0-.218.109-.218.283v11.216h-2.924v-15.275z"/><path d="m67.891 73.041v2.466h-7.331v3.818h7.179v2.466h-7.179v4.059h7.332v2.466h-11.478v-15.275z"/><path d="m88.094 73.041v2.466h-4.691v12.809h-4.146v-12.809h-4.691v-2.466z"/><path d="m102.732 73.041c.72 0 .873.109 1.069.721l4.91 14.554h-4.364l-.895-2.837h-6.59l-1.003 2.837h-3.011l5.564-15.274h4.32zm-5.018 9.972h4.953l-2.073-6.589c-.065-.196-.109-.24-.284-.24-.174 0-.218.044-.284.24z"/><path d="m120.033 73.041v12.809h7.026v2.466h-11.172v-15.275z"/><path d="m136.461 73.041 2.357 11.652c.065.196.109.24.283.24.175 0 .24-.065.284-.24l2.531-11.652h4.583c.676 0 .873.109.981.698l2.182 10.954c.044.196.109.24.284.24s.24-.044.284-.24l2.4-11.652h3.033l-3.164 14.576c-.131.633-.328.764-1.026.764h-4.778l-2.422-11.674c-.043-.196-.087-.218-.262-.218-.174 0-.218.021-.262.218l-2.444 10.91c-.153.633-.327.764-1.025.764h-4.67l-3.338-15.34z"/><path d="m172.678 72.954c1.658 0 2.531.196 3.186.851.938.938 1.506 2.924 1.506 6.874 0 4.015-.655 5.935-1.593 6.873-.611.633-1.462.851-3.099.851h-5.739c-1.636 0-2.531-.196-3.164-.829-.917-.916-1.528-2.924-1.528-6.895 0-3.972.655-5.936 1.571-6.852.633-.655 1.484-.873 3.12-.873zm-5.367 2.684c-.611.633-.873 2.052-.873 5.041s.262 4.407.873 5.019c.349.371.829.458 1.876.458h1.244c1.047 0 1.527-.109 1.876-.437.611-.633.873-2.051.873-5.04s-.262-4.408-.873-5.019c-.349-.35-.829-.459-1.876-.459h-1.244c-1.047 0-1.527.11-1.876.437z"/><path d="m194.451 73.041c1.68 0 2.641.131 3.36.852.611.589 1.047 1.745 1.047 3.905 0 1.768-.284 3.033-1.069 3.818-.371.371-.851.611-1.637.742l3.273 5.957h-4.342l-2.945-5.499h-2.619v5.499h-4.146v-15.274zm-4.931 7.55h2.902c1.2 0 1.549-.108 1.833-.393.393-.393.502-1.178.502-2.335 0-1.025-.131-1.789-.502-2.16-.305-.306-.611-.393-1.833-.393h-2.902z"/><path d="m211.053 80.286 6.699-7.245h3.709l-4.888 5.303 5.171 9.972h-4.713l-3.709-7.31-2.27 2.356v4.953h-4.146v-15.274h4.146v7.245z"/><path d="m233.001 73.041v15.274h-4.146v-15.274z"/><path d="m245.655 73.041c.589 0 .764.044 1.004.437l5.499 9.317c.153.262.24.327.415.327.131 0 .196-.087.196-.327v-9.754h3.033v15.274h-3.797c-.611 0-.786-.044-1.004-.437l-5.499-9.252c-.174-.283-.24-.327-.415-.327-.153 0-.196.065-.196.327v9.688h-3.033v-15.273z"/><path d="m277.486 73.041v2.466h-6.742c-1.047 0-1.527.065-1.876.415-.633.61-.873 2.051-.873 4.757 0 2.705.24 4.146.851 4.757.371.349.851.437 1.898.437h3.033v-5.826h3.796v8.27h-9.077c-1.636 0-2.531-.175-3.186-.829-.917-.895-1.506-2.924-1.506-6.808 0-3.906.633-5.848 1.571-6.786.611-.633 1.484-.852 3.055-.852h9.056z"/></g></g><g clip-path="url(#SVGID_5_)"><g fill="#cde1f5"><path d="m27.725 20.561h5.191v34.938h-5.191z"/><path d="m49.587 20.561h6.239l20.414 27.251h.449v-27.251h5.091v34.938h-5.939l-20.763-27.751h-.399v27.751h-5.091v-34.938z"/><path d="m95.908 38.529c0-10.282 7.337-18.667 19.615-18.667 5.241 0 10.282 1.647 13.426 4.192v5.341h-.05c-3.693-2.845-8.086-4.842-13.426-4.842-8.884 0-14.225 5.79-14.225 13.876 0 7.736 4.991 13.276 13.676 13.276 7.537 0 12.528-4.093 12.777-10.98h-14.425v-4.393h19.615c.05.599.05 1.248.05 2.296-.05 12.179-8.335 17.769-18.268 17.769-11.727 0-18.765-7.586-18.765-17.868z"/><path d="m146.572 20.561h17.868c8.585 0 12.827 4.193 12.827 11.48 0 5.739-2.845 9.633-8.485 10.931l9.683 12.527h-6.189l-8.685-11.629h-11.829v11.629h-5.19zm17.768 18.716c5.541 0 7.637-3.094 7.637-7.037s-2.096-6.987-7.637-6.987h-12.578v14.024z"/><path d="m202.227 20.561h9.034l14.025 34.938h-5.44l-3.793-9.434h-18.767l-3.793 9.434h-5.341zm-3.095 20.913h15.073l-6.389-16.021h-2.246z"/><path d="m238.316 20.561h6.488l13.177 23.159 13.027-23.159h6.588v34.938h-5.191v-26.952h-.449l-13.826 24.207h-.499l-13.775-24.207h-.449v26.952h-5.091z"/></g></g></g></g><g id="guides"/></svg>