<svg enable-background="new 0 0 304 109.222" height="109.222" viewBox="0 0 304 109.222" width="304" xmlns="http://www.w3.org/2000/svg"><g id="background"><rect fill="#f5f5f5" height="14521.144" width="1887.98" x="-1412" y="-12688.144"/></g><g id="art"><g><rect fill="#143668" height="109.222" width="304"/><g><g fill="#dbdfe3"><path d="m20.931 68.076c0-1.088.884-1.87 1.666-1.87.374 0 .578.137 1.054.748l1.122 1.496c.306.408.612.782.85.782.306 0 1.326-.272 2.89-5.474 1.258-4.113 2.447-7.581 3.773-10.743h-4.386l.238-.68h4.453c1.666-3.706 3.604-6.97 6.256-10.165l-.034-.136c-1.87.646-3.74 1.292-6.527 1.292-1.156 0-2.414-.137-2.924-.137-1.292 0-1.598.17-1.598.408 0 .103.034.204.442.918l.578 1.02c.102.204.17.374.17.544 0 .714-.918 1.088-1.632 1.088-.952 0-1.326-.611-1.326-1.291 0-.986.816-2.517 2.516-4.216.986-.986 1.903-1.462 2.788-1.462 2.346 0 5.372 1.428 7.037 1.428.476 0 .884-.068 1.156-.68.51-1.19.816-1.904 1.292-1.904.544 0 1.224.544 1.224.918 0 .272-.306.477-.578.68l-.578.408c-.442.306-.782.51-1.054.782-.816.815-2.482 5.541-4.012 10.505h4.114l-.238.68h-4.079c-.646 2.04-1.224 4.114-1.734 5.916-.408 1.529-.952 2.89-1.598 4.215-1.87 3.706-4.896 7.004-8.703 7.004-1.734 0-2.618-1.087-2.618-2.074z"/><path d="m40.583 59.373c1.326 0 2.244.952 2.244 2.108 0 1.291-.952 2.176-2.176 2.176-1.258 0-2.176-.851-2.176-2.108.001-1.19.953-2.176 2.108-2.176z"/><path d="m68.087 46.998h-.306c-.17-4.963-2.414-6.187-4.42-6.187-2.142 0-3.671 1.598-3.671 4.045 0 1.598.986 3.264 2.618 5.405 2.006 2.618 3.298 4.59 3.298 6.97 0 4.046-3.196 6.562-7.684 6.562-1.394 0-4.181-.408-6.459-1.666.136-1.666.816-5.031 1.122-6.222h.272c.136 5.405 2.074 7.344 4.794 7.344 2.277 0 4.385-1.564 4.385-4.25 0-1.903-.986-3.672-2.992-6.357-1.666-2.21-2.855-4.045-2.855-6.153 0-2.991 2.277-6.222 7.411-6.222 1.666 0 4.113.612 5.542 1.292-.069 1.054-.749 3.807-1.055 5.439z"/><path d="m69.89 59.373c1.326 0 2.244.952 2.244 2.108 0 1.291-.952 2.176-2.176 2.176-1.258 0-2.176-.851-2.176-2.108 0-1.19.952-2.176 2.108-2.176z"/><path d="m97.394 46.998h-.306c-.17-4.963-2.414-6.187-4.42-6.187-2.142 0-3.671 1.598-3.671 4.045 0 1.598.986 3.264 2.618 5.405 2.006 2.618 3.298 4.59 3.298 6.97 0 4.046-3.196 6.562-7.684 6.562-1.394 0-4.181-.408-6.459-1.666.136-1.666.816-5.031 1.122-6.222h.272c.136 5.405 2.074 7.344 4.794 7.344 2.277 0 4.385-1.564 4.385-4.25 0-1.903-.986-3.672-2.992-6.357-1.666-2.21-2.855-4.045-2.855-6.153 0-2.991 2.277-6.222 7.411-6.222 1.666 0 4.113.612 5.542 1.292-.069 1.054-.749 3.807-1.055 5.439z"/><path d="m114.529 58.081c1.122-2.243 1.496-4.249 1.496-5.711 0-.612-.102-.851-.782-1.225l-.748-.407c-.578-.307-.748-.442-.748-1.021 0-.714.51-2.209 1.836-2.209.714 0 1.632.85 1.632 2.516 0 1.325-.68 5.201-2.346 8.533-1.666 3.331-3.671 5.371-5.847 5.371-1.7 0-2.924-1.563-3.026-3.739-1.462 2.209-2.992 3.739-4.657 3.739-1.972 0-3.23-1.632-3.23-3.739 0-.544.136-1.326.612-2.278.612-1.224 2.107-3.195 4.045-5.779l1.054-1.394-.034-.068h-3.162c-1.292 0-1.734.17-2.074.85-.204.408-.442 1.156-.578 2.04l-.306.034c.102-1.02.544-4.147 1.598-5.201.306-.307.442-.442 2.855-.442h3.706l.034.17-2.312 3.842c-2.176 3.604-2.481 4.76-2.481 6.018 0 1.938 1.258 3.365 2.516 3.365s2.583-1.836 3.536-3.739c.952-1.904 1.326-3.264 1.768-7.14.034-.306.204-2.039.408-2.447.17-.34.476-.374.68-.374.612 0 1.258.374 1.258.85 0 .51-.612 1.87-1.258 3.298-1.258 2.72-1.768 3.943-1.768 5.541 0 1.632 1.224 4.012 2.958 4.012 1.156-.002 2.277-1.09 3.365-3.266z"/><path d="m133.841 47.509.068.136-4.963 12.477c-.238.646-.442 1.326-.442 1.53 0 .136.034.203.136.203.612 0 2.754-2.277 3.57-3.501l.272.136c-1.054 1.904-4.317 5.439-6.664 5.439-.612 0-.68-.204-.68-.442 0-.34.136-.747 2.108-5.813l.578-1.495-.136-.068c-.884 1.904-2.958 4.59-3.944 5.575-1.292 1.292-2.72 2.108-4.113 2.108-.85 0-2.074-.477-2.074-2.584 0-3.264 2.278-7.547 5.066-10.335 1.734-1.733 3.671-2.89 5.371-2.89 1.326 0 1.972.782 2.176 1.666h.102l.884-2.142zm-5.643 1.019c-.68 0-1.462.476-2.244 1.258-2.516 2.516-5.235 7.989-5.235 11.117 0 .51.068 1.462.884 1.462.544 0 1.224-.477 1.972-1.225 3.094-3.094 5.949-9.009 5.949-11.185-.001-.883-.476-1.427-1.326-1.427z"/><path d="m142.58 60.937 3.025-7.274c.748-1.769 1.326-3.128 1.326-3.672 0-.51-.51-.782-1.156-.782-.544 0-1.122.136-1.802.816-1.088 1.088-4.759 7.037-7.751 13.36h-2.788l5.134-13.123c.136-.374.204-.611.204-.781 0-.238-.136-.307-.442-.307-.374 0-.748.204-1.054.511-.646.646-1.36 1.835-2.414 3.569l-.306-.068c1.02-2.006 1.768-3.365 2.72-4.317.782-.782 1.666-1.156 2.822-1.156.646 0 1.972.17 1.972.851 0 .407-.102.781-1.87 5.031l-1.53 3.706.136.067c.816-1.428 3.604-6.459 5.134-7.989 1.19-1.189 2.618-1.869 3.841-1.869 1.734 0 2.38.918 2.38 1.665 0 .578-.34 1.734-1.088 3.57l-3.366 8.192c-.204.477-.204.646.136.646.68 0 2.006-1.53 3.06-3.229l.272.136c-1.326 2.21-3.128 5.168-6.459 5.168-.782 0-.918-.204-.918-.511 0-.238.102-.612.782-2.21z"/><path d="m161.755 49.718c0 .986-.884 1.496-1.496 1.496-.51 0-.68-.306-.952-.884l-.816-1.666c-.272-.544-.51-.578-.714-.578-1.054 0-1.768 1.088-1.768 2.176 0 2.244 2.481 6.222 2.481 9.044 0 2.821-2.89 4.555-5.473 4.555-2.38 0-3.366-1.02-3.366-2.142 0-.952.748-1.632 1.53-1.632.442 0 .646.17.986.952l.714 1.563c.306.646.476.748.782.748 1.02 0 1.972-.884 1.972-2.414 0-3.025-2.346-6.289-2.346-8.601 0-2.414 1.904-4.726 5.235-4.726 1.804.001 3.231.919 3.231 2.109z"/><path d="m161.349 59.373c0-5.1 3.434-11.864 8.771-11.864 2.958 0 4.317 2.039 4.317 4.555 0 5.1-3.434 11.865-8.771 11.865-2.958 0-4.317-2.04-4.317-4.556zm7.751.034c1.632-3.264 2.753-7.275 2.753-9.587 0-1.19-.374-1.904-1.292-1.904-1.292 0-2.72 1.802-3.876 4.114-1.632 3.264-2.753 7.275-2.753 9.587 0 1.189.374 1.903 1.292 1.903 1.292.001 2.72-1.801 3.876-4.113z"/><path d="m183.788 60.937 3.025-7.274c.748-1.769 1.326-3.128 1.326-3.672 0-.51-.51-.782-1.156-.782-.544 0-1.122.136-1.802.816-1.088 1.088-4.759 7.037-7.751 13.36h-2.788l5.134-13.123c.136-.374.204-.611.204-.781 0-.238-.136-.307-.442-.307-.374 0-.748.204-1.054.511-.646.646-1.36 1.835-2.414 3.569l-.306-.068c1.02-2.006 1.768-3.365 2.72-4.317.782-.782 1.666-1.156 2.822-1.156.646 0 1.972.17 1.972.851 0 .407-.102.781-1.87 5.031l-1.53 3.706.136.067c.816-1.428 3.604-6.459 5.134-7.989 1.19-1.189 2.618-1.869 3.841-1.869 1.734 0 2.38.918 2.38 1.665 0 .578-.34 1.734-1.088 3.57l-3.366 8.192c-.204.477-.204.646.136.646.68 0 2.006-1.53 3.06-3.229l.272.136c-1.326 2.21-3.128 5.168-6.459 5.168-.782 0-.918-.204-.918-.511 0-.238.102-.612.782-2.21z"/><path d="m197.864 56.415c0-4.419 3.128-8.906 7.377-8.906 1.054 0 1.768.306 2.107.544.34-.544.646-1.122.952-1.734.374-.748.714-1.666.714-2.346 0-.306-.102-.476-.374-.612-.34-.17-1.122-.373-2.006-.577.136-1.395.782-2.38 1.802-2.38s1.632.951 1.632 2.346c0 1.258-.544 2.617-1.088 3.705-1.326 2.652-2.992 4.896-7.479 9.384-.306.306-.782.747-1.19 1.155 1.02 2.244 3.264 3.74 6.323 3.74 5.848 0 7.854-5.236 8.397-8.941-.306-.17-.68-.34-1.122-.578-2.04-1.054-2.448-1.189-3.026-1.189-.238 0-.34.102-.34.204s.068.203.306.51l.782.985c.136.17.17.272.17.374 0 .34-.476.816-1.19.816-.646 0-1.156-.374-1.156-1.122 0-.918.782-2.006 1.428-2.651.442-.442.986-.851 1.734-.851.646 0 1.054.137 2.516.782 2.447 1.122 3.264 1.394 3.841 1.394.408 0 .51-.136.51-.237 0-.103-.068-.171-.442-.646l-.612-.782c-.272-.373-.34-.51-.34-.646 0-.374.578-.918 1.462-.918.782 0 1.224.476 1.224 1.19 0 1.155-1.054 2.549-1.7 3.195-.51.51-1.122.918-1.836.918-.476 0-.816-.103-1.802-.578-.612 4.794-2.414 11.967-9.553 11.967-4.417-.001-8.021-2.721-8.021-7.515zm2.21.068c.408-.374.782-.748 1.189-1.156 2.04-2.039 3.502-3.637 4.692-5.201-.238-.782-1.054-1.733-2.346-1.733-1.87 0-3.944 2.176-3.944 5.575.001.884.137 1.733.409 2.515z"/><path d="m241.484 46.998h-.306c-.17-4.963-2.414-6.187-4.419-6.187-2.142 0-3.672 1.598-3.672 4.045 0 1.598.986 3.264 2.618 5.405 2.006 2.618 3.298 4.59 3.298 6.97 0 4.046-3.196 6.562-7.683 6.562-1.394 0-4.182-.408-6.459-1.666.136-1.666.816-5.031 1.122-6.222h.272c.136 5.405 2.074 7.344 4.793 7.344 2.278 0 4.386-1.564 4.386-4.25 0-1.903-.986-3.672-2.992-6.357-1.666-2.21-2.855-4.045-2.855-6.153 0-2.991 2.278-6.222 7.411-6.222 1.666 0 4.114.612 5.542 1.292-.07 1.054-.75 3.807-1.056 5.439z"/><path d="m241.554 59.373c0-5.1 3.434-11.864 8.771-11.864 2.958 0 4.317 2.039 4.317 4.555 0 5.1-3.434 11.865-8.771 11.865-2.957 0-4.317-2.04-4.317-4.556zm7.751.034c1.632-3.264 2.753-7.275 2.753-9.587 0-1.19-.374-1.904-1.292-1.904-1.292 0-2.72 1.802-3.876 4.114-1.632 3.264-2.753 7.275-2.753 9.587 0 1.189.374 1.903 1.292 1.903 1.292.001 2.72-1.801 3.876-4.113z"/><path d="m263.993 60.937 3.025-7.274c.748-1.769 1.326-3.128 1.326-3.672 0-.51-.51-.782-1.156-.782-.544 0-1.122.136-1.802.816-1.088 1.088-4.759 7.037-7.751 13.36h-2.788l5.134-13.123c.136-.374.204-.611.204-.781 0-.238-.136-.307-.442-.307-.374 0-.748.204-1.054.511-.646.646-1.36 1.835-2.414 3.569l-.306-.068c1.02-2.006 1.768-3.365 2.72-4.317.782-.782 1.666-1.156 2.822-1.156.646 0 1.972.17 1.972.851 0 .407-.102.781-1.87 5.031l-1.53 3.706.136.067c.816-1.428 3.604-6.459 5.134-7.989 1.19-1.189 2.618-1.869 3.841-1.869 1.734 0 2.38.918 2.38 1.665 0 .578-.34 1.734-1.088 3.57l-3.366 8.192c-.204.477-.204.646.136.646.68 0 2.006-1.53 3.06-3.229l.272.136c-1.326 2.21-3.128 5.168-6.459 5.168-.782 0-.918-.204-.918-.511 0-.238.102-.612.782-2.21z"/><path d="m283.168 49.718c0 .986-.884 1.496-1.496 1.496-.51 0-.68-.306-.952-.884l-.816-1.666c-.272-.544-.51-.578-.714-.578-1.054 0-1.768 1.088-1.768 2.176 0 2.244 2.481 6.222 2.481 9.044 0 2.821-2.89 4.555-5.473 4.555-2.38 0-3.366-1.02-3.366-2.142 0-.952.748-1.632 1.53-1.632.442 0 .646.17.986.952l.714 1.563c.306.646.476.748.782.748 1.02 0 1.972-.884 1.972-2.414 0-3.025-2.346-6.289-2.346-8.601 0-2.414 1.904-4.726 5.235-4.726 1.804.001 3.231.919 3.231 2.109z"/></g></g><g><g fill="#dbdfe3"><path d="m109.785 81.107h6.143l.062 1.272h-4.699v1.689h3.781v1.224h-3.781v1.75h4.883l-.062 1.272h-6.327z"/><path d="m121.047 87.716v-1.444h.012c1.016.588 2.423.942 3.341.942 1.249 0 1.713-.33 1.713-.844 0-.551-.392-.698-2.154-1.077-1.738-.367-2.852-.686-2.852-2.093 0-1.248 1.004-2.264 3.231-2.264 1.04 0 2.093.293 2.864.685v1.457h-.012c-.857-.49-1.921-.845-2.962-.845-1.052 0-1.603.33-1.603.845.012.514.392.648 2.129 1.003 1.665.343 2.852.808 2.852 2.166 0 .931-.428 2.265-3.207 2.265-1.21 0-2.507-.343-3.352-.796z"/><path d="m134.818 82.429h-2.839l.049-1.321h7.061l.049 1.321h-2.839v5.887h-1.48v-5.887z"/><path d="m142.923 87.386v-.013c0-.562.392-1.053 1.138-1.053.734 0 1.138.49 1.138 1.053v.013c0 .562-.404 1.064-1.138 1.064-.747 0-1.138-.502-1.138-1.064z"/><path d="m158.346 82.417h-1.725l.208-1.31h3.01v7.208h-1.493z"/><path d="m165.397 86.125c0-1.016.587-1.726 1.603-2.13-.82-.342-1.407-.979-1.407-1.958 0-1.37 1.102-2.533 3.292-2.533 2.166 0 3.267 1.176 3.267 2.533 0 .979-.587 1.616-1.407 1.958 1.016.404 1.603 1.114 1.603 2.13 0 1.48-1.175 2.472-3.463 2.472-2.264 0-3.488-.992-3.488-2.472zm5.434-.159c0-.894-.82-1.407-1.946-1.407-1.175 0-1.97.489-1.97 1.407 0 .905.746 1.42 1.97 1.42 1.187 0 1.946-.515 1.946-1.42zm-.171-3.855c0-.857-.698-1.396-1.774-1.396-1.102 0-1.799.526-1.799 1.396 0 .905.758 1.37 1.799 1.37 1.003 0 1.774-.464 1.774-1.37z"/><path d="m183.366 83.103-3.708 6.608h-1.652l3.842-6.829v-.502h-3.561v1.53h-1.383v-2.803h6.461v1.996z"/><path d="m187.848 86.125c0-1.016.587-1.726 1.603-2.13-.82-.342-1.407-.979-1.407-1.958 0-1.37 1.102-2.533 3.292-2.533 2.166 0 3.267 1.176 3.267 2.533 0 .979-.587 1.616-1.407 1.958 1.016.404 1.603 1.114 1.603 2.13 0 1.48-1.175 2.472-3.463 2.472-2.264 0-3.488-.992-3.488-2.472zm5.434-.159c0-.894-.82-1.407-1.946-1.407-1.175 0-1.97.489-1.97 1.407 0 .905.747 1.42 1.97 1.42 1.187 0 1.946-.515 1.946-1.42zm-.172-3.855c0-.857-.698-1.396-1.774-1.396-1.102 0-1.799.526-1.799 1.396 0 .905.758 1.37 1.799 1.37 1.003 0 1.774-.464 1.774-1.37z"/></g></g><g><g fill="#dbdfe3"><path d="m60.3 20.671h4.259c1.566 0 2.472.612 2.472 1.812 0 .795-.354 1.395-1.346 1.651 1.016.355 1.493.857 1.493 1.726 0 1.469-1.114 2.02-2.814 2.02h-4.064zm3.965 2.962c.857 0 1.285-.27 1.285-.882 0-.562-.416-.819-1.224-.819h-2.558v1.701zm.122 2.973c.905-.013 1.309-.294 1.309-.931 0-.6-.428-.905-1.358-.905h-2.57v1.848z"/><path d="m72.419 20.671h6.143l.062 1.272h-4.699v1.689h3.781v1.224h-3.781v1.75h4.883l-.062 1.272h-6.327z"/><path d="m83.681 27.279v-1.444h.012c1.016.588 2.423.942 3.341.942 1.249 0 1.713-.33 1.713-.844 0-.551-.392-.698-2.154-1.077-1.738-.367-2.851-.686-2.851-2.093 0-1.248 1.003-2.264 3.23-2.264 1.04 0 2.093.293 2.864.685v1.457h-.012c-.857-.49-1.921-.845-2.962-.845-1.052 0-1.603.33-1.603.845.012.514.392.648 2.129 1.003 1.665.343 2.852.808 2.852 2.166 0 .931-.429 2.265-3.207 2.265-1.211 0-2.508-.343-3.352-.796z"/><path d="m95.42 20.671h3.977c1.799 0 2.717.979 2.717 2.558 0 1.787-1.163 2.644-2.864 2.644h-2.325v2.007h-1.505zm3.843 3.904c.954 0 1.346-.551 1.346-1.298 0-.844-.416-1.321-1.371-1.321h-2.312v2.619z"/><path d="m106.78 24.306c0-2.325 1.628-3.854 4.1-3.854 2.484 0 4.087 1.48 4.087 3.817 0 2.325-1.627 3.855-4.112 3.855-2.472 0-4.075-1.481-4.075-3.818zm6.657-.013c0-1.578-1.052-2.509-2.57-2.509-1.542 0-2.558.918-2.558 2.497 0 1.578 1.04 2.496 2.57 2.496s2.558-.893 2.558-2.484z"/><path d="m120.282 20.671h1.505v2.888h1.371l2.558-2.888h1.726v.013l-3.096 3.45 3.243 3.732v.013h-1.799l-2.692-3.035h-1.309v3.035h-1.505v-7.208z"/><path d="m132.45 20.671h6.143l.062 1.272h-4.699v1.689h3.781v1.224h-3.781v1.75h4.883l-.062 1.272h-6.327z"/><path d="m152.611 21.992h-2.839l.049-1.321h7.061l.049 1.321h-2.839v5.887h-1.48v-5.887z"/><path d="m163.236 20.671h2.766l2.667 7.208h-1.554l-.6-1.628h-3.818l-.575 1.628h-1.554zm-.097 4.332h2.925l-1.102-3.035h-.685z"/><path d="m173.679 20.671h1.493v7.208h-1.493z"/><path d="m180.999 20.671h1.505v5.887h4.332l-.062 1.321h-5.776v-7.208z"/><path d="m191.086 24.306c0-2.325 1.628-3.854 4.1-3.854 2.484 0 4.087 1.48 4.087 3.817 0 2.325-1.627 3.855-4.112 3.855-2.472 0-4.075-1.481-4.075-3.818zm6.658-.013c0-1.578-1.052-2.509-2.57-2.509-1.542 0-2.558.918-2.558 2.497 0 1.578 1.04 2.496 2.57 2.496s2.558-.893 2.558-2.484z"/><path d="m204.589 20.671h3.585c2.068 0 3.145.697 3.145 2.423 0 1.248-.636 1.934-1.884 2.276l2.337 2.46v.049h-1.872l-2.031-2.301h-1.774v2.301h-1.505v-7.208zm3.732 3.622c1.04 0 1.493-.379 1.493-1.175 0-.783-.453-1.175-1.493-1.175h-2.227v2.35z"/><path d="m216.732 20.671h1.493v7.208h-1.493z"/><path d="m224.053 20.671h1.713l3.867 5.042h.074v-5.042h1.456v7.208h-1.603l-3.965-5.177h-.074v5.177h-1.468z"/><path d="m236.44 24.342c0-2.116 1.493-3.83 4.186-3.83 1.236 0 2.227.38 2.863.869v1.469h-.012c-.771-.551-1.701-1.016-2.888-1.016-1.64 0-2.619 1.064-2.619 2.496 0 1.396.844 2.447 2.606 2.447 1.408 0 2.264-.734 2.276-1.799h-2.741v-1.224h4.198c.012.146.012.465.012.612 0 2.741-1.873 3.708-3.843 3.708-2.691.001-4.038-1.688-4.038-3.732z"/></g></g></g></g><g id="guides"/></svg>