<svg enable-background="new 0 0 304 109.222" height="109.222" viewBox="0 0 304 109.222" width="304" xmlns="http://www.w3.org/2000/svg"><g id="background"><rect fill="#f5f5f5" height="14521.144" width="1887.98" x="-428" y="-12688.144"/></g><g id="art"><rect fill="#a5afb9" height="109.222" width="42.778" x="109.222"/><rect fill="#919aa1" height="109.222" width="109.222"/><g><g><path d="m17.058 55.071c0-20.527 14.983-36.97 41.543-36.97 10.118 0 19.75 2.627 26.074 6.519v18.193h-.097c-8.172-4.476-15.566-7.491-25.101-7.491-13.912 0-21.598 7.588-21.598 19.944 0 11.091 6.81 18.388 19.944 18.388 8.659 0 15.761-3.794 16.345-11.286h-20.723v-14.398h39.305c.194 2.237.389 4.67.389 7.783 0 24.03-16.345 34.344-37.165 34.344-24.711 0-38.916-14.302-38.916-35.026z" fill="#dbdfe3"/></g></g><g><g><path d="m133.579 88.15-7.783-56.915.389 16.929v39.986h-4.378v-68.102h6.421l7.103 51.758-.292-11.772v-39.986h4.378v68.102z" fill="#e4e7ea"/></g></g><rect fill="#a5afb9" height="109.222" width="42.778" x="261.222"/><rect fill="#919aa1" height="109.222" width="109.222" x="152"/><g><g><path d="m174.896 20.048h39.694c18.096 0 26.95 8.561 26.95 24.419 0 10.896-4.476 18.291-13.231 21.793l16.15 21.891h-23.155l-12.551-17.901h-13.426v17.9h-20.431zm37.068 34.246c6.81 0 9.242-3.795 9.242-8.951s-2.432-8.854-9.242-8.854h-16.637v17.805z" fill="#dbdfe3"/></g></g><g><g><path d="m291.076 59.839v21.307c0 5.059-2.529 7.589-7.588 7.589h-1.459c-5.156 0-7.589-2.53-7.589-7.589v-54.094c0-5.059 2.433-7.588 7.589-7.588h1.459c5.059 0 7.491 2.529 7.491 7.491v20.236h-4.573v-20.334c0-2.14-.973-3.113-3.113-3.113h-1.167c-2.043 0-3.016.974-3.016 3.113v54.483c0 2.141.973 3.113 3.016 3.113h1.362c2.043 0 3.016-.973 3.016-3.113v-21.501z" fill="#e4e7ea"/></g></g></g><g id="guides"/></svg>